G75*
G70*
%OFA0B0*%
%FSLAX24Y24*%
%IPPOS*%
%LPD*%
%AMOC8*
5,1,8,0,0,1.08239X$1,22.5*
%
%ADD10C,0.0000*%
%ADD11C,0.0050*%
%ADD12C,0.0040*%
D10*
X004918Y003552D02*
X003552Y004918D01*
X003552Y014391D01*
X004918Y015757D01*
X012422Y015757D01*
X013788Y014391D01*
X013788Y004918D01*
X012422Y003552D01*
X004918Y003552D01*
X008375Y004902D02*
X008377Y004936D01*
X008383Y004970D01*
X008393Y005003D01*
X008406Y005034D01*
X008424Y005064D01*
X008444Y005092D01*
X008468Y005117D01*
X008494Y005139D01*
X008522Y005157D01*
X008553Y005173D01*
X008585Y005185D01*
X008619Y005193D01*
X008653Y005197D01*
X008687Y005197D01*
X008721Y005193D01*
X008755Y005185D01*
X008787Y005173D01*
X008817Y005157D01*
X008846Y005139D01*
X008872Y005117D01*
X008896Y005092D01*
X008916Y005064D01*
X008934Y005034D01*
X008947Y005003D01*
X008957Y004970D01*
X008963Y004936D01*
X008965Y004902D01*
X008963Y004868D01*
X008957Y004834D01*
X008947Y004801D01*
X008934Y004770D01*
X008916Y004740D01*
X008896Y004712D01*
X008872Y004687D01*
X008846Y004665D01*
X008818Y004647D01*
X008787Y004631D01*
X008755Y004619D01*
X008721Y004611D01*
X008687Y004607D01*
X008653Y004607D01*
X008619Y004611D01*
X008585Y004619D01*
X008553Y004631D01*
X008522Y004647D01*
X008494Y004665D01*
X008468Y004687D01*
X008444Y004712D01*
X008424Y004740D01*
X008406Y004770D01*
X008393Y004801D01*
X008383Y004834D01*
X008377Y004868D01*
X008375Y004902D01*
X012241Y009379D02*
X012243Y009413D01*
X012249Y009447D01*
X012259Y009480D01*
X012272Y009511D01*
X012290Y009541D01*
X012310Y009569D01*
X012334Y009594D01*
X012360Y009616D01*
X012388Y009634D01*
X012419Y009650D01*
X012451Y009662D01*
X012485Y009670D01*
X012519Y009674D01*
X012553Y009674D01*
X012587Y009670D01*
X012621Y009662D01*
X012653Y009650D01*
X012683Y009634D01*
X012712Y009616D01*
X012738Y009594D01*
X012762Y009569D01*
X012782Y009541D01*
X012800Y009511D01*
X012813Y009480D01*
X012823Y009447D01*
X012829Y009413D01*
X012831Y009379D01*
X012829Y009345D01*
X012823Y009311D01*
X012813Y009278D01*
X012800Y009247D01*
X012782Y009217D01*
X012762Y009189D01*
X012738Y009164D01*
X012712Y009142D01*
X012684Y009124D01*
X012653Y009108D01*
X012621Y009096D01*
X012587Y009088D01*
X012553Y009084D01*
X012519Y009084D01*
X012485Y009088D01*
X012451Y009096D01*
X012419Y009108D01*
X012388Y009124D01*
X012360Y009142D01*
X012334Y009164D01*
X012310Y009189D01*
X012290Y009217D01*
X012272Y009247D01*
X012259Y009278D01*
X012249Y009311D01*
X012243Y009345D01*
X012241Y009379D01*
X008375Y014406D02*
X008377Y014440D01*
X008383Y014474D01*
X008393Y014507D01*
X008406Y014538D01*
X008424Y014568D01*
X008444Y014596D01*
X008468Y014621D01*
X008494Y014643D01*
X008522Y014661D01*
X008553Y014677D01*
X008585Y014689D01*
X008619Y014697D01*
X008653Y014701D01*
X008687Y014701D01*
X008721Y014697D01*
X008755Y014689D01*
X008787Y014677D01*
X008817Y014661D01*
X008846Y014643D01*
X008872Y014621D01*
X008896Y014596D01*
X008916Y014568D01*
X008934Y014538D01*
X008947Y014507D01*
X008957Y014474D01*
X008963Y014440D01*
X008965Y014406D01*
X008963Y014372D01*
X008957Y014338D01*
X008947Y014305D01*
X008934Y014274D01*
X008916Y014244D01*
X008896Y014216D01*
X008872Y014191D01*
X008846Y014169D01*
X008818Y014151D01*
X008787Y014135D01*
X008755Y014123D01*
X008721Y014115D01*
X008687Y014111D01*
X008653Y014111D01*
X008619Y014115D01*
X008585Y014123D01*
X008553Y014135D01*
X008522Y014151D01*
X008494Y014169D01*
X008468Y014191D01*
X008444Y014216D01*
X008424Y014244D01*
X008406Y014274D01*
X008393Y014305D01*
X008383Y014338D01*
X008377Y014372D01*
X008375Y014406D01*
X005111Y012852D02*
X005113Y012877D01*
X005119Y012902D01*
X005128Y012926D01*
X005141Y012948D01*
X005158Y012968D01*
X005177Y012985D01*
X005198Y012999D01*
X005222Y013009D01*
X005246Y013016D01*
X005272Y013019D01*
X005297Y013018D01*
X005322Y013013D01*
X005346Y013004D01*
X005369Y012992D01*
X005389Y012977D01*
X005407Y012958D01*
X005422Y012937D01*
X005433Y012914D01*
X005441Y012890D01*
X005445Y012865D01*
X005445Y012839D01*
X005441Y012814D01*
X005433Y012790D01*
X005422Y012767D01*
X005407Y012746D01*
X005389Y012727D01*
X005369Y012712D01*
X005346Y012700D01*
X005322Y012691D01*
X005297Y012686D01*
X005272Y012685D01*
X005246Y012688D01*
X005222Y012695D01*
X005198Y012705D01*
X005177Y012719D01*
X005158Y012736D01*
X005141Y012756D01*
X005128Y012778D01*
X005119Y012802D01*
X005113Y012827D01*
X005111Y012852D01*
X005111Y011671D02*
X005113Y011696D01*
X005119Y011721D01*
X005128Y011745D01*
X005141Y011767D01*
X005158Y011787D01*
X005177Y011804D01*
X005198Y011818D01*
X005222Y011828D01*
X005246Y011835D01*
X005272Y011838D01*
X005297Y011837D01*
X005322Y011832D01*
X005346Y011823D01*
X005369Y011811D01*
X005389Y011796D01*
X005407Y011777D01*
X005422Y011756D01*
X005433Y011733D01*
X005441Y011709D01*
X005445Y011684D01*
X005445Y011658D01*
X005441Y011633D01*
X005433Y011609D01*
X005422Y011586D01*
X005407Y011565D01*
X005389Y011546D01*
X005369Y011531D01*
X005346Y011519D01*
X005322Y011510D01*
X005297Y011505D01*
X005272Y011504D01*
X005246Y011507D01*
X005222Y011514D01*
X005198Y011524D01*
X005177Y011538D01*
X005158Y011555D01*
X005141Y011575D01*
X005128Y011597D01*
X005119Y011621D01*
X005113Y011646D01*
X005111Y011671D01*
X004509Y010147D02*
X004511Y010181D01*
X004517Y010215D01*
X004527Y010248D01*
X004540Y010279D01*
X004558Y010309D01*
X004578Y010337D01*
X004602Y010362D01*
X004628Y010384D01*
X004656Y010402D01*
X004687Y010418D01*
X004719Y010430D01*
X004753Y010438D01*
X004787Y010442D01*
X004821Y010442D01*
X004855Y010438D01*
X004889Y010430D01*
X004921Y010418D01*
X004951Y010402D01*
X004980Y010384D01*
X005006Y010362D01*
X005030Y010337D01*
X005050Y010309D01*
X005068Y010279D01*
X005081Y010248D01*
X005091Y010215D01*
X005097Y010181D01*
X005099Y010147D01*
X005097Y010113D01*
X005091Y010079D01*
X005081Y010046D01*
X005068Y010015D01*
X005050Y009985D01*
X005030Y009957D01*
X005006Y009932D01*
X004980Y009910D01*
X004952Y009892D01*
X004921Y009876D01*
X004889Y009864D01*
X004855Y009856D01*
X004821Y009852D01*
X004787Y009852D01*
X004753Y009856D01*
X004719Y009864D01*
X004687Y009876D01*
X004656Y009892D01*
X004628Y009910D01*
X004602Y009932D01*
X004578Y009957D01*
X004558Y009985D01*
X004540Y010015D01*
X004527Y010046D01*
X004517Y010079D01*
X004511Y010113D01*
X004509Y010147D01*
D11*
X007777Y006907D02*
X007777Y006727D01*
X007867Y006727D02*
X007867Y006862D01*
X007912Y006907D01*
X007957Y006862D01*
X007957Y006727D01*
X008072Y006727D02*
X008072Y006907D01*
X008072Y006817D02*
X008162Y006907D01*
X008207Y006907D01*
X008317Y006907D02*
X008362Y006862D01*
X008452Y006862D01*
X008497Y006817D01*
X008497Y006772D01*
X008452Y006727D01*
X008362Y006727D01*
X008317Y006772D01*
X008317Y006907D02*
X008317Y006952D01*
X008362Y006997D01*
X008452Y006997D01*
X008497Y006952D01*
X008612Y006997D02*
X008612Y006727D01*
X008612Y006862D02*
X008657Y006907D01*
X008747Y006907D01*
X008792Y006862D01*
X008792Y006727D01*
X008907Y006772D02*
X008952Y006817D01*
X009087Y006817D01*
X009087Y006862D02*
X009087Y006727D01*
X008952Y006727D01*
X008907Y006772D01*
X008952Y006907D02*
X009042Y006907D01*
X009087Y006862D01*
X009201Y006817D02*
X009291Y006907D01*
X009336Y006907D01*
X009201Y006907D02*
X009201Y006727D01*
X009447Y006727D02*
X009447Y006997D01*
X009582Y006907D02*
X009447Y006817D01*
X009582Y006727D01*
X007867Y006862D02*
X007822Y006907D01*
X007777Y006907D01*
D12*
X008072Y006506D02*
X008139Y006372D01*
X008206Y006506D01*
X008293Y006405D02*
X008326Y006405D01*
X008326Y006372D01*
X008293Y006372D01*
X008293Y006405D01*
X008625Y006372D02*
X008758Y006372D01*
X008691Y006372D02*
X008691Y006572D01*
X008625Y006506D01*
X008846Y006405D02*
X008879Y006405D01*
X008879Y006372D01*
X008846Y006372D01*
X008846Y006405D01*
X008956Y006405D02*
X009089Y006539D01*
X009089Y006405D01*
X009056Y006372D01*
X008989Y006372D01*
X008956Y006405D01*
X008956Y006539D01*
X008989Y006572D01*
X009056Y006572D01*
X009089Y006539D01*
X012882Y011272D02*
X012882Y011406D01*
X013032Y011406D02*
X013099Y011339D01*
X013032Y011272D01*
X013232Y011272D01*
X013232Y011406D02*
X013032Y011406D01*
X013065Y011493D02*
X013199Y011493D01*
X013232Y011526D01*
X013232Y011593D01*
X013199Y011627D01*
X013065Y011627D01*
X013032Y011593D01*
X013032Y011526D01*
X013065Y011493D01*
X013032Y011714D02*
X013032Y011847D01*
X013032Y011781D02*
X013232Y011781D01*
X013199Y011935D02*
X013065Y011935D01*
X013032Y011968D01*
X013032Y012035D01*
X013065Y012068D01*
X013199Y012068D01*
X013232Y012035D01*
X013232Y011968D01*
X013199Y011935D01*
X013232Y012156D02*
X013032Y012156D01*
X013032Y012256D01*
X013065Y012289D01*
X013132Y012289D01*
X013165Y012256D01*
X013165Y012156D01*
X013165Y012223D02*
X013232Y012289D01*
X012899Y012239D02*
X012765Y012239D01*
X012832Y012172D02*
X012832Y012306D01*
X010518Y014922D02*
X010385Y014922D01*
X010297Y015022D02*
X010164Y015022D01*
X010231Y015022D02*
X010231Y014822D01*
X010077Y014822D02*
X010077Y014956D01*
X010010Y015022D01*
X009943Y014956D01*
X009943Y014822D01*
X009856Y014855D02*
X009822Y014822D01*
X009722Y014822D01*
X009722Y015022D01*
X009822Y015022D01*
X009856Y014989D01*
X009856Y014956D01*
X009822Y014922D01*
X009722Y014922D01*
X009822Y014922D02*
X009856Y014889D01*
X009856Y014855D01*
X009943Y014922D02*
X010077Y014922D01*
X007718Y014922D02*
X007585Y014922D01*
X007652Y014989D02*
X007652Y014855D01*
X007497Y015022D02*
X007364Y015022D01*
X007431Y015022D02*
X007431Y014822D01*
X007277Y014822D02*
X007277Y014956D01*
X007210Y015022D01*
X007143Y014956D01*
X007143Y014822D01*
X007056Y014855D02*
X007022Y014822D01*
X006922Y014822D01*
X006922Y015022D01*
X007022Y015022D01*
X007056Y014989D01*
X007056Y014956D01*
X007022Y014922D01*
X006922Y014922D01*
X007022Y014922D02*
X007056Y014889D01*
X007056Y014855D01*
X007143Y014922D02*
X007277Y014922D01*
X007256Y011722D02*
X007256Y011522D01*
X007122Y011722D01*
X007122Y011522D01*
X007343Y011555D02*
X007343Y011622D01*
X007376Y011656D01*
X007443Y011656D01*
X007477Y011622D01*
X007477Y011555D01*
X007443Y011522D01*
X007376Y011522D01*
X007343Y011555D01*
X007564Y011522D02*
X007564Y011656D01*
X007564Y011589D02*
X007631Y011656D01*
X007664Y011656D01*
X007748Y011656D02*
X007815Y011656D01*
X007782Y011689D02*
X007782Y011555D01*
X007815Y011522D01*
X007896Y011522D02*
X007896Y011722D01*
X007929Y011656D02*
X007996Y011656D01*
X008029Y011622D01*
X008029Y011522D01*
X008117Y011555D02*
X008117Y011622D01*
X008150Y011656D01*
X008217Y011656D01*
X008250Y011622D01*
X008250Y011589D01*
X008117Y011589D01*
X008117Y011555D02*
X008150Y011522D01*
X008217Y011522D01*
X008338Y011522D02*
X008338Y011656D01*
X008404Y011656D02*
X008438Y011656D01*
X008404Y011656D02*
X008338Y011589D01*
X008522Y011522D02*
X008522Y011656D01*
X008622Y011656D01*
X008655Y011622D01*
X008655Y011522D01*
X008743Y011555D02*
X008776Y011522D01*
X008843Y011522D01*
X008876Y011555D01*
X008876Y011589D01*
X008843Y011622D01*
X008776Y011622D01*
X008743Y011656D01*
X008743Y011689D01*
X008776Y011722D01*
X008843Y011722D01*
X008876Y011689D01*
X008964Y011656D02*
X009030Y011656D01*
X008997Y011689D02*
X008997Y011555D01*
X009030Y011522D01*
X009111Y011555D02*
X009144Y011589D01*
X009244Y011589D01*
X009244Y011622D02*
X009244Y011522D01*
X009144Y011522D01*
X009111Y011555D01*
X009144Y011656D02*
X009211Y011656D01*
X009244Y011622D01*
X009332Y011589D02*
X009399Y011656D01*
X009432Y011656D01*
X009516Y011622D02*
X009549Y011656D01*
X009650Y011656D01*
X009616Y011589D02*
X009549Y011589D01*
X009516Y011622D01*
X009516Y011522D02*
X009616Y011522D01*
X009650Y011555D01*
X009616Y011589D01*
X009332Y011522D02*
X009332Y011656D01*
X007929Y011656D02*
X007896Y011622D01*
X004547Y011872D02*
X004414Y011872D01*
X004414Y011672D01*
X004414Y011772D02*
X004481Y011772D01*
X004327Y011872D02*
X004193Y011872D01*
X004193Y011672D01*
X004106Y011705D02*
X004106Y011839D01*
X004072Y011872D01*
X004005Y011872D01*
X003972Y011839D01*
X003972Y011705D01*
X004005Y011672D01*
X004072Y011672D01*
X004106Y011705D01*
X004193Y011772D02*
X004260Y011772D01*
X004327Y012672D02*
X004327Y012872D01*
X004193Y012872D02*
X004327Y012672D01*
X004193Y012672D02*
X004193Y012872D01*
X004106Y012839D02*
X004106Y012705D01*
X004072Y012672D01*
X004005Y012672D01*
X003972Y012705D01*
X003972Y012839D01*
X004005Y012872D01*
X004072Y012872D01*
X004106Y012839D01*
X004115Y008039D02*
X004182Y008039D01*
X004215Y008006D01*
X004215Y007906D01*
X004215Y007973D02*
X004282Y008039D01*
X004282Y007906D02*
X004082Y007906D01*
X004082Y008006D01*
X004115Y008039D01*
X004115Y007818D02*
X004082Y007785D01*
X004082Y007718D01*
X004115Y007685D01*
X004249Y007685D01*
X004282Y007718D01*
X004282Y007785D01*
X004249Y007818D01*
X004115Y007818D01*
X004082Y007597D02*
X004082Y007464D01*
X004082Y007531D02*
X004282Y007531D01*
X004249Y007377D02*
X004115Y007377D01*
X004082Y007343D01*
X004082Y007276D01*
X004115Y007243D01*
X004249Y007243D01*
X004282Y007276D01*
X004282Y007343D01*
X004249Y007377D01*
X004282Y007156D02*
X004082Y007156D01*
X004149Y007089D01*
X004082Y007022D01*
X004282Y007022D01*
X004532Y007022D02*
X004532Y007156D01*
X004532Y007722D02*
X004532Y007856D01*
X004465Y007789D02*
X004599Y007789D01*
M02*
