G75*
G70*
%OFA0B0*%
%FSLAX24Y24*%
%IPPOS*%
%LPD*%
%AMOC8*
5,1,8,0,0,1.08239X$1,22.5*
%
%ADD10C,0.0000*%
%ADD11R,0.0150X0.0150*%
%ADD12R,0.0472X0.0551*%
%ADD13R,0.0157X0.0472*%
%ADD14R,0.0250X0.0500*%
%ADD15R,0.0169X0.0110*%
%ADD16R,0.0110X0.0169*%
%ADD17R,0.1496X0.0110*%
%ADD18R,0.0945X0.0650*%
%ADD19C,0.0055*%
%ADD20OC8,0.0630*%
%ADD21R,0.0433X0.0394*%
%ADD22R,0.0394X0.0433*%
%ADD23R,0.0638X0.0126*%
%ADD24R,0.0315X0.0315*%
%ADD25OC8,0.1181*%
%ADD26R,0.0110X0.0550*%
%ADD27R,0.0453X0.0394*%
%ADD28R,0.0550X0.0110*%
%ADD29R,0.0236X0.0236*%
%ADD30C,0.0100*%
%ADD31C,0.0050*%
%ADD32OC8,0.0197*%
%ADD33C,0.0150*%
%ADD34C,0.0250*%
D10*
X004918Y003552D02*
X003552Y004918D01*
X003552Y014391D01*
X004918Y015757D01*
X012422Y015757D01*
X013788Y014391D01*
X013788Y004918D01*
X012422Y003552D01*
X004918Y003552D01*
X008375Y004902D02*
X008377Y004936D01*
X008383Y004970D01*
X008393Y005003D01*
X008406Y005034D01*
X008424Y005064D01*
X008444Y005092D01*
X008468Y005117D01*
X008494Y005139D01*
X008522Y005157D01*
X008553Y005173D01*
X008585Y005185D01*
X008619Y005193D01*
X008653Y005197D01*
X008687Y005197D01*
X008721Y005193D01*
X008755Y005185D01*
X008787Y005173D01*
X008817Y005157D01*
X008846Y005139D01*
X008872Y005117D01*
X008896Y005092D01*
X008916Y005064D01*
X008934Y005034D01*
X008947Y005003D01*
X008957Y004970D01*
X008963Y004936D01*
X008965Y004902D01*
X008963Y004868D01*
X008957Y004834D01*
X008947Y004801D01*
X008934Y004770D01*
X008916Y004740D01*
X008896Y004712D01*
X008872Y004687D01*
X008846Y004665D01*
X008818Y004647D01*
X008787Y004631D01*
X008755Y004619D01*
X008721Y004611D01*
X008687Y004607D01*
X008653Y004607D01*
X008619Y004611D01*
X008585Y004619D01*
X008553Y004631D01*
X008522Y004647D01*
X008494Y004665D01*
X008468Y004687D01*
X008444Y004712D01*
X008424Y004740D01*
X008406Y004770D01*
X008393Y004801D01*
X008383Y004834D01*
X008377Y004868D01*
X008375Y004902D01*
X012241Y009379D02*
X012243Y009413D01*
X012249Y009447D01*
X012259Y009480D01*
X012272Y009511D01*
X012290Y009541D01*
X012310Y009569D01*
X012334Y009594D01*
X012360Y009616D01*
X012388Y009634D01*
X012419Y009650D01*
X012451Y009662D01*
X012485Y009670D01*
X012519Y009674D01*
X012553Y009674D01*
X012587Y009670D01*
X012621Y009662D01*
X012653Y009650D01*
X012683Y009634D01*
X012712Y009616D01*
X012738Y009594D01*
X012762Y009569D01*
X012782Y009541D01*
X012800Y009511D01*
X012813Y009480D01*
X012823Y009447D01*
X012829Y009413D01*
X012831Y009379D01*
X012829Y009345D01*
X012823Y009311D01*
X012813Y009278D01*
X012800Y009247D01*
X012782Y009217D01*
X012762Y009189D01*
X012738Y009164D01*
X012712Y009142D01*
X012684Y009124D01*
X012653Y009108D01*
X012621Y009096D01*
X012587Y009088D01*
X012553Y009084D01*
X012519Y009084D01*
X012485Y009088D01*
X012451Y009096D01*
X012419Y009108D01*
X012388Y009124D01*
X012360Y009142D01*
X012334Y009164D01*
X012310Y009189D01*
X012290Y009217D01*
X012272Y009247D01*
X012259Y009278D01*
X012249Y009311D01*
X012243Y009345D01*
X012241Y009379D01*
X008375Y014406D02*
X008377Y014440D01*
X008383Y014474D01*
X008393Y014507D01*
X008406Y014538D01*
X008424Y014568D01*
X008444Y014596D01*
X008468Y014621D01*
X008494Y014643D01*
X008522Y014661D01*
X008553Y014677D01*
X008585Y014689D01*
X008619Y014697D01*
X008653Y014701D01*
X008687Y014701D01*
X008721Y014697D01*
X008755Y014689D01*
X008787Y014677D01*
X008817Y014661D01*
X008846Y014643D01*
X008872Y014621D01*
X008896Y014596D01*
X008916Y014568D01*
X008934Y014538D01*
X008947Y014507D01*
X008957Y014474D01*
X008963Y014440D01*
X008965Y014406D01*
X008963Y014372D01*
X008957Y014338D01*
X008947Y014305D01*
X008934Y014274D01*
X008916Y014244D01*
X008896Y014216D01*
X008872Y014191D01*
X008846Y014169D01*
X008818Y014151D01*
X008787Y014135D01*
X008755Y014123D01*
X008721Y014115D01*
X008687Y014111D01*
X008653Y014111D01*
X008619Y014115D01*
X008585Y014123D01*
X008553Y014135D01*
X008522Y014151D01*
X008494Y014169D01*
X008468Y014191D01*
X008444Y014216D01*
X008424Y014244D01*
X008406Y014274D01*
X008393Y014305D01*
X008383Y014338D01*
X008377Y014372D01*
X008375Y014406D01*
X005111Y012852D02*
X005113Y012877D01*
X005119Y012902D01*
X005128Y012926D01*
X005141Y012948D01*
X005158Y012968D01*
X005177Y012985D01*
X005198Y012999D01*
X005222Y013009D01*
X005246Y013016D01*
X005272Y013019D01*
X005297Y013018D01*
X005322Y013013D01*
X005346Y013004D01*
X005369Y012992D01*
X005389Y012977D01*
X005407Y012958D01*
X005422Y012937D01*
X005433Y012914D01*
X005441Y012890D01*
X005445Y012865D01*
X005445Y012839D01*
X005441Y012814D01*
X005433Y012790D01*
X005422Y012767D01*
X005407Y012746D01*
X005389Y012727D01*
X005369Y012712D01*
X005346Y012700D01*
X005322Y012691D01*
X005297Y012686D01*
X005272Y012685D01*
X005246Y012688D01*
X005222Y012695D01*
X005198Y012705D01*
X005177Y012719D01*
X005158Y012736D01*
X005141Y012756D01*
X005128Y012778D01*
X005119Y012802D01*
X005113Y012827D01*
X005111Y012852D01*
X005111Y011671D02*
X005113Y011696D01*
X005119Y011721D01*
X005128Y011745D01*
X005141Y011767D01*
X005158Y011787D01*
X005177Y011804D01*
X005198Y011818D01*
X005222Y011828D01*
X005246Y011835D01*
X005272Y011838D01*
X005297Y011837D01*
X005322Y011832D01*
X005346Y011823D01*
X005369Y011811D01*
X005389Y011796D01*
X005407Y011777D01*
X005422Y011756D01*
X005433Y011733D01*
X005441Y011709D01*
X005445Y011684D01*
X005445Y011658D01*
X005441Y011633D01*
X005433Y011609D01*
X005422Y011586D01*
X005407Y011565D01*
X005389Y011546D01*
X005369Y011531D01*
X005346Y011519D01*
X005322Y011510D01*
X005297Y011505D01*
X005272Y011504D01*
X005246Y011507D01*
X005222Y011514D01*
X005198Y011524D01*
X005177Y011538D01*
X005158Y011555D01*
X005141Y011575D01*
X005128Y011597D01*
X005119Y011621D01*
X005113Y011646D01*
X005111Y011671D01*
X004509Y010147D02*
X004511Y010181D01*
X004517Y010215D01*
X004527Y010248D01*
X004540Y010279D01*
X004558Y010309D01*
X004578Y010337D01*
X004602Y010362D01*
X004628Y010384D01*
X004656Y010402D01*
X004687Y010418D01*
X004719Y010430D01*
X004753Y010438D01*
X004787Y010442D01*
X004821Y010442D01*
X004855Y010438D01*
X004889Y010430D01*
X004921Y010418D01*
X004951Y010402D01*
X004980Y010384D01*
X005006Y010362D01*
X005030Y010337D01*
X005050Y010309D01*
X005068Y010279D01*
X005081Y010248D01*
X005091Y010215D01*
X005097Y010181D01*
X005099Y010147D01*
X005097Y010113D01*
X005091Y010079D01*
X005081Y010046D01*
X005068Y010015D01*
X005050Y009985D01*
X005030Y009957D01*
X005006Y009932D01*
X004980Y009910D01*
X004952Y009892D01*
X004921Y009876D01*
X004889Y009864D01*
X004855Y009856D01*
X004821Y009852D01*
X004787Y009852D01*
X004753Y009856D01*
X004719Y009864D01*
X004687Y009876D01*
X004656Y009892D01*
X004628Y009910D01*
X004602Y009932D01*
X004578Y009957D01*
X004558Y009985D01*
X004540Y010015D01*
X004527Y010046D01*
X004517Y010079D01*
X004511Y010113D01*
X004509Y010147D01*
D11*
X004427Y008077D03*
X007877Y013727D03*
X013077Y010377D03*
D12*
X013037Y007985D03*
X012367Y007985D03*
X012367Y007119D03*
X013037Y007119D03*
D13*
X011336Y007194D03*
X011080Y007194D03*
X010824Y007194D03*
X010568Y007194D03*
X010568Y004910D03*
X010824Y004910D03*
X011080Y004910D03*
X011336Y004910D03*
D14*
X011485Y004336D03*
X011111Y004336D03*
X010737Y004336D03*
X010363Y004336D03*
X009989Y004336D03*
X009615Y004336D03*
D15*
X011552Y004752D03*
X011552Y004952D03*
X010752Y009802D03*
X010752Y010002D03*
X006802Y003952D03*
X006802Y003752D03*
X006552Y003752D03*
X006552Y003952D03*
X005252Y008652D03*
X005252Y008852D03*
X005252Y009052D03*
X005252Y009252D03*
D16*
X010152Y004752D03*
X010352Y004752D03*
X012752Y006502D03*
X012952Y006502D03*
X010552Y009802D03*
X010352Y009802D03*
X010502Y011852D03*
X010702Y011852D03*
X010702Y012152D03*
X010502Y012152D03*
D17*
X012252Y014044D03*
X012252Y014260D03*
X005152Y005360D03*
X005152Y005144D03*
D18*
X005152Y005252D03*
X012252Y014152D03*
D19*
X012224Y014593D02*
X012224Y014873D01*
X012280Y014873D01*
X012280Y014593D01*
X012224Y014593D01*
X012224Y014647D02*
X012280Y014647D01*
X012280Y014701D02*
X012224Y014701D01*
X012224Y014755D02*
X012280Y014755D01*
X012280Y014809D02*
X012224Y014809D01*
X012224Y014863D02*
X012280Y014863D01*
X012421Y014873D02*
X012421Y014593D01*
X012421Y014873D02*
X012477Y014873D01*
X012477Y014593D01*
X012421Y014593D01*
X012421Y014647D02*
X012477Y014647D01*
X012477Y014701D02*
X012421Y014701D01*
X012421Y014755D02*
X012477Y014755D01*
X012477Y014809D02*
X012421Y014809D01*
X012421Y014863D02*
X012477Y014863D01*
X012618Y014873D02*
X012618Y014593D01*
X012618Y014873D02*
X012674Y014873D01*
X012674Y014593D01*
X012618Y014593D01*
X012618Y014647D02*
X012674Y014647D01*
X012674Y014701D02*
X012618Y014701D01*
X012618Y014755D02*
X012674Y014755D01*
X012674Y014809D02*
X012618Y014809D01*
X012618Y014863D02*
X012674Y014863D01*
X012027Y014873D02*
X012027Y014593D01*
X012027Y014873D02*
X012083Y014873D01*
X012083Y014593D01*
X012027Y014593D01*
X012027Y014647D02*
X012083Y014647D01*
X012083Y014701D02*
X012027Y014701D01*
X012027Y014755D02*
X012083Y014755D01*
X012083Y014809D02*
X012027Y014809D01*
X012027Y014863D02*
X012083Y014863D01*
X011830Y014873D02*
X011830Y014593D01*
X011830Y014873D02*
X011886Y014873D01*
X011886Y014593D01*
X011830Y014593D01*
X011830Y014647D02*
X011886Y014647D01*
X011886Y014701D02*
X011830Y014701D01*
X011830Y014755D02*
X011886Y014755D01*
X011886Y014809D02*
X011830Y014809D01*
X011830Y014863D02*
X011886Y014863D01*
X011886Y013711D02*
X011886Y013431D01*
X011830Y013431D01*
X011830Y013711D01*
X011886Y013711D01*
X011886Y013485D02*
X011830Y013485D01*
X011830Y013539D02*
X011886Y013539D01*
X011886Y013593D02*
X011830Y013593D01*
X011830Y013647D02*
X011886Y013647D01*
X011886Y013701D02*
X011830Y013701D01*
X012083Y013711D02*
X012083Y013431D01*
X012027Y013431D01*
X012027Y013711D01*
X012083Y013711D01*
X012083Y013485D02*
X012027Y013485D01*
X012027Y013539D02*
X012083Y013539D01*
X012083Y013593D02*
X012027Y013593D01*
X012027Y013647D02*
X012083Y013647D01*
X012083Y013701D02*
X012027Y013701D01*
X012280Y013711D02*
X012280Y013431D01*
X012224Y013431D01*
X012224Y013711D01*
X012280Y013711D01*
X012280Y013485D02*
X012224Y013485D01*
X012224Y013539D02*
X012280Y013539D01*
X012280Y013593D02*
X012224Y013593D01*
X012224Y013647D02*
X012280Y013647D01*
X012280Y013701D02*
X012224Y013701D01*
X012477Y013711D02*
X012477Y013431D01*
X012421Y013431D01*
X012421Y013711D01*
X012477Y013711D01*
X012477Y013485D02*
X012421Y013485D01*
X012421Y013539D02*
X012477Y013539D01*
X012477Y013593D02*
X012421Y013593D01*
X012421Y013647D02*
X012477Y013647D01*
X012477Y013701D02*
X012421Y013701D01*
X012674Y013711D02*
X012674Y013431D01*
X012618Y013431D01*
X012618Y013711D01*
X012674Y013711D01*
X012674Y013485D02*
X012618Y013485D01*
X012618Y013539D02*
X012674Y013539D01*
X012674Y013593D02*
X012618Y013593D01*
X012618Y013647D02*
X012674Y013647D01*
X012674Y013701D02*
X012618Y013701D01*
X005518Y005973D02*
X005518Y005693D01*
X005518Y005973D02*
X005574Y005973D01*
X005574Y005693D01*
X005518Y005693D01*
X005518Y005747D02*
X005574Y005747D01*
X005574Y005801D02*
X005518Y005801D01*
X005518Y005855D02*
X005574Y005855D01*
X005574Y005909D02*
X005518Y005909D01*
X005518Y005963D02*
X005574Y005963D01*
X005321Y005973D02*
X005321Y005693D01*
X005321Y005973D02*
X005377Y005973D01*
X005377Y005693D01*
X005321Y005693D01*
X005321Y005747D02*
X005377Y005747D01*
X005377Y005801D02*
X005321Y005801D01*
X005321Y005855D02*
X005377Y005855D01*
X005377Y005909D02*
X005321Y005909D01*
X005321Y005963D02*
X005377Y005963D01*
X005124Y005973D02*
X005124Y005693D01*
X005124Y005973D02*
X005180Y005973D01*
X005180Y005693D01*
X005124Y005693D01*
X005124Y005747D02*
X005180Y005747D01*
X005180Y005801D02*
X005124Y005801D01*
X005124Y005855D02*
X005180Y005855D01*
X005180Y005909D02*
X005124Y005909D01*
X005124Y005963D02*
X005180Y005963D01*
X004927Y005973D02*
X004927Y005693D01*
X004927Y005973D02*
X004983Y005973D01*
X004983Y005693D01*
X004927Y005693D01*
X004927Y005747D02*
X004983Y005747D01*
X004983Y005801D02*
X004927Y005801D01*
X004927Y005855D02*
X004983Y005855D01*
X004983Y005909D02*
X004927Y005909D01*
X004927Y005963D02*
X004983Y005963D01*
X004730Y005973D02*
X004730Y005693D01*
X004730Y005973D02*
X004786Y005973D01*
X004786Y005693D01*
X004730Y005693D01*
X004730Y005747D02*
X004786Y005747D01*
X004786Y005801D02*
X004730Y005801D01*
X004730Y005855D02*
X004786Y005855D01*
X004786Y005909D02*
X004730Y005909D01*
X004730Y005963D02*
X004786Y005963D01*
X004786Y004811D02*
X004786Y004531D01*
X004730Y004531D01*
X004730Y004811D01*
X004786Y004811D01*
X004786Y004585D02*
X004730Y004585D01*
X004730Y004639D02*
X004786Y004639D01*
X004786Y004693D02*
X004730Y004693D01*
X004730Y004747D02*
X004786Y004747D01*
X004786Y004801D02*
X004730Y004801D01*
X004983Y004811D02*
X004983Y004531D01*
X004927Y004531D01*
X004927Y004811D01*
X004983Y004811D01*
X004983Y004585D02*
X004927Y004585D01*
X004927Y004639D02*
X004983Y004639D01*
X004983Y004693D02*
X004927Y004693D01*
X004927Y004747D02*
X004983Y004747D01*
X004983Y004801D02*
X004927Y004801D01*
X005180Y004811D02*
X005180Y004531D01*
X005124Y004531D01*
X005124Y004811D01*
X005180Y004811D01*
X005180Y004585D02*
X005124Y004585D01*
X005124Y004639D02*
X005180Y004639D01*
X005180Y004693D02*
X005124Y004693D01*
X005124Y004747D02*
X005180Y004747D01*
X005180Y004801D02*
X005124Y004801D01*
X005377Y004811D02*
X005377Y004531D01*
X005321Y004531D01*
X005321Y004811D01*
X005377Y004811D01*
X005377Y004585D02*
X005321Y004585D01*
X005321Y004639D02*
X005377Y004639D01*
X005377Y004693D02*
X005321Y004693D01*
X005321Y004747D02*
X005377Y004747D01*
X005377Y004801D02*
X005321Y004801D01*
X005574Y004811D02*
X005574Y004531D01*
X005518Y004531D01*
X005518Y004811D01*
X005574Y004811D01*
X005574Y004585D02*
X005518Y004585D01*
X005518Y004639D02*
X005574Y004639D01*
X005574Y004693D02*
X005518Y004693D01*
X005518Y004747D02*
X005574Y004747D01*
X005574Y004801D02*
X005518Y004801D01*
D20*
X005052Y007152D03*
X005052Y008002D03*
X006852Y014352D03*
X007652Y014352D03*
X009652Y014352D03*
X010452Y014402D03*
X012352Y012152D03*
X012352Y011302D03*
D21*
X011752Y012017D03*
X011752Y012687D03*
X005652Y007237D03*
X005652Y006567D03*
D22*
X005087Y006552D03*
X004417Y006552D03*
X012267Y012752D03*
X012937Y012752D03*
D23*
X009383Y010540D03*
X009383Y010343D03*
X009383Y010147D03*
X009383Y009950D03*
X009383Y009753D03*
X009383Y009556D03*
X009383Y009359D03*
X009383Y009162D03*
X009383Y008965D03*
X009383Y008769D03*
X007958Y008769D03*
X007958Y008965D03*
X007958Y009162D03*
X007958Y009359D03*
X007958Y009556D03*
X007958Y009753D03*
X007958Y009950D03*
X007958Y010147D03*
X007958Y010343D03*
X007958Y010540D03*
D24*
X004947Y009152D03*
X004947Y008752D03*
X004357Y008752D03*
X004357Y009152D03*
D25*
X004804Y010147D03*
X008670Y014406D03*
X012536Y009379D03*
X008670Y004902D03*
D26*
X007365Y004374D03*
X007175Y004374D03*
X006975Y004374D03*
X006775Y004374D03*
X006585Y004374D03*
X006585Y006094D03*
X006775Y006094D03*
X006975Y006094D03*
X007175Y006094D03*
X007365Y006094D03*
D27*
X006391Y011277D03*
X006391Y012262D03*
X006391Y013246D03*
X004166Y013246D03*
X004166Y012262D03*
X004166Y011277D03*
D28*
X007692Y012462D03*
X007692Y012652D03*
X007692Y012852D03*
X007692Y013052D03*
X007692Y013242D03*
X009412Y013242D03*
X009412Y013052D03*
X009412Y012852D03*
X009412Y012652D03*
X009412Y012462D03*
D29*
X005952Y013969D03*
X005952Y014835D03*
X005102Y014835D03*
X005102Y013969D03*
D30*
X005102Y014835D02*
X005035Y014835D01*
X003802Y013602D01*
X003802Y009452D01*
X003802Y008502D01*
X003852Y008452D01*
X004152Y008452D01*
X004102Y008402D01*
X004102Y006152D01*
X004902Y006152D01*
X004955Y006099D01*
X004955Y005833D01*
X004952Y005836D01*
X005152Y005833D02*
X005152Y006487D01*
X005087Y006552D01*
X005302Y006902D02*
X005052Y007152D01*
X005302Y006902D02*
X005952Y006902D01*
X006002Y006852D01*
X006002Y006352D01*
X005546Y005896D01*
X005546Y005833D01*
X005349Y005833D02*
X005349Y006214D01*
X005652Y006517D01*
X005652Y006567D01*
X005602Y006517D01*
X006202Y005952D02*
X006302Y005952D01*
X006402Y006052D01*
X006402Y008652D01*
X007052Y008652D01*
X007252Y008452D01*
X009066Y008452D01*
X009166Y008552D01*
X010102Y008552D01*
X010102Y008952D01*
X009383Y008769D02*
X009166Y008552D01*
X008852Y009552D02*
X007962Y009552D01*
X007958Y009556D01*
X007957Y009752D02*
X007958Y009753D01*
X007957Y009752D02*
X007502Y009752D01*
X007304Y009950D01*
X006504Y009950D01*
X005202Y011252D01*
X004191Y011252D01*
X004166Y011277D01*
X004947Y009152D02*
X005048Y009052D01*
X005252Y009052D01*
X005252Y008852D02*
X005048Y008852D01*
X004947Y008752D01*
X005152Y008452D02*
X004152Y008452D01*
X005052Y008002D02*
X004417Y007367D01*
X004417Y006552D01*
X004102Y006152D02*
X004102Y004802D01*
X004955Y003949D01*
X005152Y003752D01*
X006552Y003752D01*
X006952Y003752D01*
X007302Y003752D01*
X007365Y003815D01*
X007365Y004374D01*
X006775Y004374D02*
X006775Y003976D01*
X006585Y003986D02*
X006585Y004152D01*
X006585Y004374D01*
X004955Y004671D02*
X004955Y003949D01*
X005152Y008452D02*
X005252Y008552D01*
X005252Y008652D01*
X006402Y008652D01*
X006558Y010147D02*
X006402Y010302D01*
X006402Y011266D01*
X006391Y011277D01*
X006558Y010147D02*
X007358Y010147D01*
X007552Y009952D01*
X007955Y009952D01*
X007958Y009950D01*
X008852Y009552D02*
X008952Y009652D01*
X009383Y009652D01*
X011752Y012687D02*
X011752Y013002D01*
X012055Y013305D01*
X012055Y013571D01*
X011858Y013571D02*
X011858Y013458D01*
X011602Y013202D01*
X012252Y013571D02*
X012252Y012767D01*
X012267Y012752D01*
X012502Y013102D02*
X012452Y013152D01*
X012452Y013568D01*
X012449Y013571D01*
X012502Y013102D02*
X013252Y013102D01*
X012937Y012752D02*
X012937Y012567D01*
X013202Y012302D01*
X013202Y011652D01*
X012852Y011302D01*
X012352Y011302D01*
X012752Y006502D02*
X012752Y005002D01*
X012702Y004952D01*
X011802Y004952D01*
X011552Y004952D01*
X011552Y004952D01*
X011378Y004952D01*
X011336Y004910D01*
X011402Y004976D01*
X011402Y005902D01*
X011080Y004910D02*
X011080Y004367D01*
X011111Y004336D01*
X010824Y004423D02*
X010737Y004336D01*
X010824Y004423D02*
X010824Y004910D01*
X010363Y004741D02*
X010363Y004336D01*
X010363Y004741D02*
X010352Y004752D01*
X011552Y004752D02*
X011552Y004402D01*
X011485Y004336D01*
X008152Y013052D02*
X007692Y013052D01*
X007692Y013242D02*
X007152Y013242D01*
X007152Y013252D01*
X006202Y013702D02*
X006202Y014152D01*
X005952Y014402D01*
X005952Y014835D01*
D31*
X004108Y004619D02*
X003957Y004619D01*
X003909Y004668D02*
X004060Y004668D01*
X004050Y004677D02*
X004903Y003824D01*
X005027Y003700D01*
X005100Y003627D01*
X006431Y003627D01*
X004949Y003627D01*
X003627Y004949D01*
X003627Y014360D01*
X004949Y015682D01*
X012391Y015682D01*
X013713Y014360D01*
X013713Y004949D01*
X012391Y003627D01*
X006923Y003627D01*
X006923Y003627D01*
X007354Y003627D01*
X007395Y003668D01*
X007411Y003652D01*
X009993Y003652D01*
X010043Y003702D01*
X010043Y003702D01*
X010102Y003761D01*
X010102Y003902D01*
X011793Y003902D01*
X011843Y003952D01*
X011902Y004011D01*
X011902Y004827D01*
X012754Y004827D01*
X012827Y004900D01*
X012877Y004950D01*
X012877Y006342D01*
X013039Y006342D01*
X013083Y006386D01*
X013083Y006491D01*
X013143Y006552D01*
X013202Y006611D01*
X013202Y006768D01*
X013304Y006768D01*
X013348Y006812D01*
X013348Y007426D01*
X013304Y007470D01*
X012769Y007470D01*
X012725Y007426D01*
X012725Y006812D01*
X012769Y006768D01*
X013002Y006768D01*
X013002Y006693D01*
X012970Y006662D01*
X012866Y006662D01*
X012852Y006648D01*
X012838Y006662D01*
X012665Y006662D01*
X012622Y006618D01*
X012622Y006602D01*
X012593Y006602D01*
X012502Y006693D01*
X012502Y006768D01*
X012635Y006768D01*
X012679Y006812D01*
X012679Y007426D01*
X012635Y007470D01*
X012102Y007470D01*
X012102Y007635D01*
X012635Y007635D01*
X012679Y007678D01*
X012679Y008292D01*
X012635Y008336D01*
X012100Y008336D01*
X012056Y008292D01*
X012056Y007915D01*
X011902Y007761D01*
X011902Y007310D01*
X011490Y007310D01*
X011490Y007461D01*
X011446Y007505D01*
X011300Y007505D01*
X011375Y007580D01*
X011375Y007724D01*
X011297Y007802D01*
X011375Y007880D01*
X011375Y008024D01*
X011274Y008125D01*
X011130Y008125D01*
X011057Y008052D01*
X010811Y008052D01*
X010761Y008002D01*
X010761Y008002D01*
X010702Y007943D01*
X010702Y007518D01*
X010687Y007527D01*
X010661Y007534D01*
X010583Y007534D01*
X010583Y007208D01*
X010554Y007208D01*
X010554Y007534D01*
X010476Y007534D01*
X010452Y007528D01*
X010452Y007829D01*
X010474Y007829D01*
X010575Y007930D01*
X010575Y008074D01*
X010474Y008175D01*
X010417Y008175D01*
X010493Y008252D01*
X010493Y008252D01*
X010552Y008311D01*
X010552Y009261D01*
X010593Y009302D01*
X011743Y009302D01*
X011793Y009352D01*
X011845Y009404D01*
X012166Y009404D01*
X012166Y009354D01*
X011842Y009354D01*
X011842Y009091D01*
X012249Y008685D01*
X012511Y008685D01*
X012511Y009009D01*
X012561Y009009D01*
X012561Y008685D01*
X012824Y008685D01*
X013231Y009091D01*
X013231Y009354D01*
X012907Y009354D01*
X012907Y009404D01*
X013231Y009404D01*
X013231Y009666D01*
X012824Y010073D01*
X012561Y010073D01*
X012561Y009749D01*
X012511Y009749D01*
X012511Y010073D01*
X012249Y010073D01*
X011852Y009676D01*
X011852Y010661D01*
X012147Y010956D01*
X012191Y010912D01*
X012514Y010912D01*
X012742Y011141D01*
X012742Y011177D01*
X012904Y011177D01*
X013327Y011600D01*
X013327Y012354D01*
X013254Y012427D01*
X013193Y012488D01*
X013209Y012504D01*
X013209Y012929D01*
X013324Y012929D01*
X013425Y013030D01*
X013425Y013174D01*
X013324Y013275D01*
X013180Y013275D01*
X013132Y013227D01*
X012577Y013227D01*
X012577Y013307D01*
X012601Y013300D01*
X012643Y013300D01*
X012643Y013569D01*
X012648Y013569D01*
X012648Y013300D01*
X012691Y013300D01*
X012724Y013309D01*
X012754Y013327D01*
X012778Y013351D01*
X012796Y013381D01*
X012805Y013414D01*
X012805Y013569D01*
X012648Y013569D01*
X012648Y013574D01*
X012805Y013574D01*
X012805Y013728D01*
X012798Y013754D01*
X012808Y013764D01*
X012821Y013787D01*
X012828Y013814D01*
X012828Y013885D01*
X013014Y013885D01*
X013040Y013892D01*
X013064Y013906D01*
X013083Y013925D01*
X013097Y013949D01*
X013104Y013975D01*
X013104Y014041D01*
X012828Y014041D01*
X012828Y014046D01*
X013104Y014046D01*
X013104Y014113D01*
X013097Y014139D01*
X013089Y014152D01*
X013097Y014165D01*
X013104Y014192D01*
X013104Y014258D01*
X012828Y014258D01*
X012828Y014263D01*
X013104Y014263D01*
X013104Y014329D01*
X013097Y014355D01*
X013083Y014379D01*
X013064Y014398D01*
X013040Y014412D01*
X013014Y014419D01*
X012828Y014419D01*
X012828Y014491D01*
X012821Y014517D01*
X012808Y014541D01*
X012788Y014560D01*
X012776Y014567D01*
X012776Y014915D01*
X012716Y014975D01*
X012576Y014975D01*
X012568Y014967D01*
X012557Y014978D01*
X012527Y014995D01*
X012494Y015004D01*
X012451Y015004D01*
X012451Y014735D01*
X012446Y014735D01*
X012446Y014730D01*
X012255Y014730D01*
X012255Y014735D01*
X012411Y014735D01*
X012446Y014735D01*
X012446Y015004D01*
X012404Y015004D01*
X012371Y014995D01*
X012350Y014983D01*
X012330Y014995D01*
X012297Y015004D01*
X012255Y015004D01*
X012255Y014735D01*
X012250Y014735D01*
X012250Y015004D01*
X012207Y015004D01*
X012174Y014995D01*
X012155Y014984D01*
X012155Y014990D01*
X012102Y015043D01*
X012043Y015102D01*
X011661Y015102D01*
X011261Y014702D01*
X011202Y014643D01*
X011202Y013802D01*
X010861Y013802D01*
X010752Y013693D01*
X010752Y013493D01*
X010711Y013452D01*
X010193Y013452D01*
X009993Y013652D01*
X009661Y013652D01*
X009611Y013602D01*
X008811Y013602D01*
X008752Y013543D01*
X007302Y013543D01*
X007302Y013495D02*
X008703Y013495D01*
X008655Y013446D02*
X007302Y013446D01*
X007302Y013398D02*
X008606Y013398D01*
X008558Y013349D02*
X008021Y013349D01*
X008042Y013328D02*
X007998Y013372D01*
X007386Y013372D01*
X007381Y013367D01*
X007302Y013367D01*
X007302Y013790D01*
X007482Y013970D01*
X007491Y013962D01*
X007814Y013962D01*
X007976Y014124D01*
X007976Y014119D01*
X008383Y013712D01*
X008645Y013712D01*
X008645Y014036D01*
X008695Y014036D01*
X008695Y013712D01*
X008958Y013712D01*
X009329Y014083D01*
X009479Y013933D01*
X009627Y013933D01*
X009627Y014327D01*
X009677Y014327D01*
X009677Y013933D01*
X009826Y013933D01*
X010071Y014179D01*
X010071Y014191D01*
X010279Y013983D01*
X010427Y013983D01*
X010427Y014377D01*
X010477Y014377D01*
X010477Y013983D01*
X010626Y013983D01*
X010871Y014229D01*
X010871Y014377D01*
X010477Y014377D01*
X010477Y014427D01*
X010427Y014427D01*
X010427Y014821D01*
X010279Y014821D01*
X010033Y014576D01*
X010033Y014563D01*
X009826Y014771D01*
X009677Y014771D01*
X009677Y014377D01*
X009627Y014377D01*
X009627Y014771D01*
X009479Y014771D01*
X009364Y014657D01*
X009364Y014694D01*
X008958Y015101D01*
X008695Y015101D01*
X008695Y014777D01*
X008645Y014777D01*
X008645Y015101D01*
X008383Y015101D01*
X007976Y014694D01*
X007976Y014580D01*
X007814Y014742D01*
X007491Y014742D01*
X007262Y014514D01*
X007262Y014191D01*
X007270Y014182D01*
X007002Y013914D01*
X007002Y013797D01*
X007002Y013797D01*
X007002Y013962D01*
X007014Y013962D01*
X007242Y014191D01*
X007242Y014514D01*
X007014Y014742D01*
X006691Y014742D01*
X006462Y014514D01*
X006462Y014191D01*
X006691Y013962D01*
X006702Y013962D01*
X006702Y013797D01*
X006679Y013774D01*
X006679Y013630D01*
X006702Y013607D01*
X006702Y012964D01*
X006690Y012952D01*
X006090Y012952D01*
X005890Y012752D01*
X005802Y012664D01*
X005802Y012464D01*
X005749Y012412D01*
X004468Y012412D01*
X004468Y012489D01*
X004424Y012533D01*
X003927Y012533D01*
X003927Y012974D01*
X004424Y012974D01*
X004468Y013018D01*
X004468Y013096D01*
X004958Y013096D01*
X005164Y013302D01*
X005252Y013390D01*
X005252Y013777D01*
X005295Y013820D01*
X005295Y014118D01*
X005251Y014162D01*
X004953Y014162D01*
X004909Y014118D01*
X004909Y013820D01*
X004952Y013777D01*
X004952Y013514D01*
X004834Y013396D01*
X004468Y013396D01*
X004468Y013474D01*
X004424Y013518D01*
X003927Y013518D01*
X003927Y013550D01*
X005019Y014642D01*
X005251Y014642D01*
X005294Y014685D01*
X005760Y014685D01*
X005803Y014642D01*
X005827Y014642D01*
X005827Y014350D01*
X006015Y014162D01*
X005803Y014162D01*
X005759Y014118D01*
X005759Y013820D01*
X005802Y013777D01*
X005802Y013290D01*
X005890Y013202D01*
X005996Y013096D01*
X006089Y013096D01*
X006089Y013018D01*
X006133Y012974D01*
X006648Y012974D01*
X006692Y013018D01*
X006692Y013474D01*
X006648Y013518D01*
X006133Y013518D01*
X006102Y013486D01*
X006102Y013557D01*
X006130Y013529D01*
X006274Y013529D01*
X006375Y013630D01*
X006375Y013774D01*
X006327Y013822D01*
X006327Y014204D01*
X006254Y014277D01*
X006077Y014454D01*
X006077Y014642D01*
X006101Y014642D01*
X006145Y014686D01*
X006145Y014984D01*
X006101Y015028D01*
X005803Y015028D01*
X005760Y014985D01*
X005294Y014985D01*
X005251Y015028D01*
X004953Y015028D01*
X004909Y014984D01*
X004909Y014886D01*
X003750Y013727D01*
X003677Y013654D01*
X003677Y008450D01*
X003727Y008400D01*
X003800Y008327D01*
X003977Y008327D01*
X003977Y004750D01*
X004050Y004677D01*
X004011Y004716D02*
X003860Y004716D01*
X003812Y004765D02*
X003977Y004765D01*
X003977Y004813D02*
X003763Y004813D01*
X003715Y004862D02*
X003977Y004862D01*
X003977Y004910D02*
X003666Y004910D01*
X003627Y004959D02*
X003977Y004959D01*
X003977Y005007D02*
X003627Y005007D01*
X003627Y005056D02*
X003977Y005056D01*
X003977Y005104D02*
X003627Y005104D01*
X003627Y005153D02*
X003977Y005153D01*
X003977Y005201D02*
X003627Y005201D01*
X003627Y005250D02*
X003977Y005250D01*
X003977Y005298D02*
X003627Y005298D01*
X003627Y005347D02*
X003977Y005347D01*
X003977Y005395D02*
X003627Y005395D01*
X003627Y005444D02*
X003977Y005444D01*
X003977Y005492D02*
X003627Y005492D01*
X003627Y005541D02*
X003977Y005541D01*
X003977Y005589D02*
X003627Y005589D01*
X003627Y005638D02*
X003977Y005638D01*
X003977Y005686D02*
X003627Y005686D01*
X003627Y005735D02*
X003977Y005735D01*
X003977Y005783D02*
X003627Y005783D01*
X003627Y005832D02*
X003977Y005832D01*
X003977Y005880D02*
X003627Y005880D01*
X003627Y005929D02*
X003977Y005929D01*
X003977Y005977D02*
X003627Y005977D01*
X003627Y006026D02*
X003977Y006026D01*
X003977Y006074D02*
X003627Y006074D01*
X003627Y006123D02*
X003977Y006123D01*
X003977Y006171D02*
X003627Y006171D01*
X003627Y006220D02*
X003977Y006220D01*
X003977Y006268D02*
X003627Y006268D01*
X003627Y006317D02*
X003977Y006317D01*
X003977Y006365D02*
X003627Y006365D01*
X003627Y006414D02*
X003977Y006414D01*
X003977Y006462D02*
X003627Y006462D01*
X003627Y006511D02*
X003977Y006511D01*
X003977Y006559D02*
X003627Y006559D01*
X003627Y006608D02*
X003977Y006608D01*
X003977Y006656D02*
X003627Y006656D01*
X003627Y006705D02*
X003977Y006705D01*
X003977Y006753D02*
X003627Y006753D01*
X003627Y006802D02*
X003977Y006802D01*
X003977Y006850D02*
X003627Y006850D01*
X003627Y006899D02*
X003977Y006899D01*
X003977Y006947D02*
X003627Y006947D01*
X003627Y006996D02*
X003977Y006996D01*
X003977Y007044D02*
X003627Y007044D01*
X003627Y007093D02*
X003977Y007093D01*
X003977Y007141D02*
X003627Y007141D01*
X003627Y007190D02*
X003977Y007190D01*
X003977Y007238D02*
X003627Y007238D01*
X003627Y007287D02*
X003977Y007287D01*
X003977Y007335D02*
X003627Y007335D01*
X003627Y007384D02*
X003977Y007384D01*
X003977Y007432D02*
X003627Y007432D01*
X003627Y007481D02*
X003977Y007481D01*
X003977Y007529D02*
X003627Y007529D01*
X003627Y007578D02*
X003977Y007578D01*
X003977Y007626D02*
X003627Y007626D01*
X003627Y007675D02*
X003977Y007675D01*
X003977Y007723D02*
X003627Y007723D01*
X003627Y007772D02*
X003977Y007772D01*
X003977Y007820D02*
X003627Y007820D01*
X003627Y007869D02*
X003977Y007869D01*
X003977Y007917D02*
X003627Y007917D01*
X003627Y007966D02*
X003977Y007966D01*
X003977Y008014D02*
X003627Y008014D01*
X003627Y008063D02*
X003977Y008063D01*
X003977Y008111D02*
X003627Y008111D01*
X003627Y008160D02*
X003977Y008160D01*
X003977Y008208D02*
X003627Y008208D01*
X003627Y008257D02*
X003977Y008257D01*
X003977Y008305D02*
X003627Y008305D01*
X003627Y008354D02*
X003774Y008354D01*
X003725Y008402D02*
X003627Y008402D01*
X003627Y008451D02*
X003677Y008451D01*
X003677Y008499D02*
X003627Y008499D01*
X003627Y008548D02*
X003677Y008548D01*
X003677Y008596D02*
X003627Y008596D01*
X003627Y008645D02*
X003677Y008645D01*
X003677Y008693D02*
X003627Y008693D01*
X003627Y008742D02*
X003677Y008742D01*
X003677Y008790D02*
X003627Y008790D01*
X003627Y008839D02*
X003677Y008839D01*
X003677Y008887D02*
X003627Y008887D01*
X003627Y008936D02*
X003677Y008936D01*
X003677Y008984D02*
X003627Y008984D01*
X003627Y009033D02*
X003677Y009033D01*
X003677Y009081D02*
X003627Y009081D01*
X003627Y009130D02*
X003677Y009130D01*
X003677Y009178D02*
X003627Y009178D01*
X003627Y009227D02*
X003677Y009227D01*
X003677Y009275D02*
X003627Y009275D01*
X003627Y009324D02*
X003677Y009324D01*
X003677Y009372D02*
X003627Y009372D01*
X003627Y009421D02*
X003677Y009421D01*
X003677Y009469D02*
X003627Y009469D01*
X003627Y009518D02*
X003677Y009518D01*
X003677Y009566D02*
X003627Y009566D01*
X003627Y009615D02*
X003677Y009615D01*
X003677Y009663D02*
X003627Y009663D01*
X003627Y009712D02*
X003677Y009712D01*
X003677Y009760D02*
X003627Y009760D01*
X003627Y009809D02*
X003677Y009809D01*
X003677Y009857D02*
X003627Y009857D01*
X003627Y009906D02*
X003677Y009906D01*
X003677Y009954D02*
X003627Y009954D01*
X003627Y010003D02*
X003677Y010003D01*
X003677Y010051D02*
X003627Y010051D01*
X003627Y010100D02*
X003677Y010100D01*
X003677Y010148D02*
X003627Y010148D01*
X003627Y010197D02*
X003677Y010197D01*
X003677Y010245D02*
X003627Y010245D01*
X003627Y010294D02*
X003677Y010294D01*
X003677Y010342D02*
X003627Y010342D01*
X003627Y010391D02*
X003677Y010391D01*
X003677Y010439D02*
X003627Y010439D01*
X003627Y010488D02*
X003677Y010488D01*
X003677Y010536D02*
X003627Y010536D01*
X003627Y010585D02*
X003677Y010585D01*
X003677Y010633D02*
X003627Y010633D01*
X003627Y010682D02*
X003677Y010682D01*
X003677Y010730D02*
X003627Y010730D01*
X003627Y010779D02*
X003677Y010779D01*
X003677Y010827D02*
X003627Y010827D01*
X003627Y010876D02*
X003677Y010876D01*
X003677Y010924D02*
X003627Y010924D01*
X003627Y010973D02*
X003677Y010973D01*
X003677Y011021D02*
X003627Y011021D01*
X003627Y011070D02*
X003677Y011070D01*
X003677Y011118D02*
X003627Y011118D01*
X003627Y011167D02*
X003677Y011167D01*
X003677Y011215D02*
X003627Y011215D01*
X003627Y011264D02*
X003677Y011264D01*
X003677Y011312D02*
X003627Y011312D01*
X003627Y011361D02*
X003677Y011361D01*
X003677Y011409D02*
X003627Y011409D01*
X003627Y011458D02*
X003677Y011458D01*
X003677Y011506D02*
X003627Y011506D01*
X003627Y011555D02*
X003677Y011555D01*
X003677Y011603D02*
X003627Y011603D01*
X003627Y011652D02*
X003677Y011652D01*
X003677Y011700D02*
X003627Y011700D01*
X003627Y011749D02*
X003677Y011749D01*
X003677Y011797D02*
X003627Y011797D01*
X003627Y011846D02*
X003677Y011846D01*
X003677Y011894D02*
X003627Y011894D01*
X003627Y011943D02*
X003677Y011943D01*
X003677Y011991D02*
X003627Y011991D01*
X003627Y012040D02*
X003677Y012040D01*
X003677Y012088D02*
X003627Y012088D01*
X003627Y012137D02*
X003677Y012137D01*
X003677Y012185D02*
X003627Y012185D01*
X003627Y012234D02*
X003677Y012234D01*
X003677Y012282D02*
X003627Y012282D01*
X003627Y012331D02*
X003677Y012331D01*
X003677Y012379D02*
X003627Y012379D01*
X003627Y012428D02*
X003677Y012428D01*
X003677Y012476D02*
X003627Y012476D01*
X003627Y012525D02*
X003677Y012525D01*
X003677Y012573D02*
X003627Y012573D01*
X003627Y012622D02*
X003677Y012622D01*
X003677Y012670D02*
X003627Y012670D01*
X003627Y012719D02*
X003677Y012719D01*
X003677Y012767D02*
X003627Y012767D01*
X003627Y012816D02*
X003677Y012816D01*
X003677Y012864D02*
X003627Y012864D01*
X003627Y012913D02*
X003677Y012913D01*
X003677Y012961D02*
X003627Y012961D01*
X003627Y013010D02*
X003677Y013010D01*
X003677Y013058D02*
X003627Y013058D01*
X003627Y013107D02*
X003677Y013107D01*
X003677Y013155D02*
X003627Y013155D01*
X003627Y013204D02*
X003677Y013204D01*
X003677Y013252D02*
X003627Y013252D01*
X003627Y013301D02*
X003677Y013301D01*
X003677Y013349D02*
X003627Y013349D01*
X003627Y013398D02*
X003677Y013398D01*
X003677Y013446D02*
X003627Y013446D01*
X003627Y013495D02*
X003677Y013495D01*
X003677Y013543D02*
X003627Y013543D01*
X003627Y013592D02*
X003677Y013592D01*
X003677Y013640D02*
X003627Y013640D01*
X003627Y013689D02*
X003712Y013689D01*
X003750Y013727D02*
X003750Y013727D01*
X003760Y013737D02*
X003627Y013737D01*
X003627Y013786D02*
X003809Y013786D01*
X003857Y013834D02*
X003627Y013834D01*
X003627Y013883D02*
X003906Y013883D01*
X003954Y013931D02*
X003627Y013931D01*
X003627Y013980D02*
X004003Y013980D01*
X004051Y014028D02*
X003627Y014028D01*
X003627Y014077D02*
X004100Y014077D01*
X004148Y014125D02*
X003627Y014125D01*
X003627Y014174D02*
X004197Y014174D01*
X004245Y014222D02*
X003627Y014222D01*
X003627Y014271D02*
X004294Y014271D01*
X004342Y014319D02*
X003627Y014319D01*
X003635Y014368D02*
X004391Y014368D01*
X004439Y014416D02*
X003684Y014416D01*
X003732Y014465D02*
X004488Y014465D01*
X004536Y014513D02*
X003781Y014513D01*
X003829Y014562D02*
X004585Y014562D01*
X004633Y014610D02*
X003878Y014610D01*
X003926Y014659D02*
X004682Y014659D01*
X004730Y014707D02*
X003975Y014707D01*
X004023Y014756D02*
X004779Y014756D01*
X004827Y014804D02*
X004072Y014804D01*
X004120Y014853D02*
X004876Y014853D01*
X004909Y014901D02*
X004169Y014901D01*
X004217Y014950D02*
X004909Y014950D01*
X004923Y014998D02*
X004266Y014998D01*
X004314Y015047D02*
X008329Y015047D01*
X008377Y015095D02*
X004363Y015095D01*
X004411Y015144D02*
X012929Y015144D01*
X012881Y015192D02*
X004460Y015192D01*
X004508Y015241D02*
X012832Y015241D01*
X012784Y015289D02*
X004557Y015289D01*
X004605Y015338D02*
X012735Y015338D01*
X012687Y015386D02*
X004654Y015386D01*
X004702Y015435D02*
X012638Y015435D01*
X012590Y015483D02*
X004751Y015483D01*
X004799Y015532D02*
X012541Y015532D01*
X012493Y015580D02*
X004848Y015580D01*
X004896Y015629D02*
X012444Y015629D01*
X012396Y015677D02*
X004945Y015677D01*
X005281Y014998D02*
X005773Y014998D01*
X005786Y014659D02*
X005268Y014659D01*
X004987Y014610D02*
X005827Y014610D01*
X005827Y014562D02*
X004938Y014562D01*
X004890Y014513D02*
X005827Y014513D01*
X005827Y014465D02*
X004841Y014465D01*
X004793Y014416D02*
X005827Y014416D01*
X005827Y014368D02*
X004744Y014368D01*
X004696Y014319D02*
X005858Y014319D01*
X005907Y014271D02*
X004647Y014271D01*
X004599Y014222D02*
X005955Y014222D01*
X006004Y014174D02*
X004550Y014174D01*
X004502Y014125D02*
X004916Y014125D01*
X004909Y014077D02*
X004453Y014077D01*
X004405Y014028D02*
X004909Y014028D01*
X004909Y013980D02*
X004356Y013980D01*
X004308Y013931D02*
X004909Y013931D01*
X004909Y013883D02*
X004259Y013883D01*
X004211Y013834D02*
X004909Y013834D01*
X004943Y013786D02*
X004162Y013786D01*
X004114Y013737D02*
X004952Y013737D01*
X004952Y013689D02*
X004065Y013689D01*
X004017Y013640D02*
X004952Y013640D01*
X004952Y013592D02*
X003968Y013592D01*
X003927Y013543D02*
X004952Y013543D01*
X004932Y013495D02*
X004447Y013495D01*
X004468Y013446D02*
X004884Y013446D01*
X004835Y013398D02*
X004468Y013398D01*
X004468Y013058D02*
X005143Y013058D01*
X005141Y013058D02*
X005073Y012989D01*
X005036Y012900D01*
X005036Y012804D01*
X005073Y012715D01*
X005141Y012647D01*
X005230Y012610D01*
X005327Y012610D01*
X005416Y012647D01*
X005484Y012715D01*
X005521Y012804D01*
X005521Y012900D01*
X005484Y012989D01*
X005416Y013058D01*
X005327Y013094D01*
X005230Y013094D01*
X005141Y013058D01*
X005093Y013010D02*
X004459Y013010D01*
X004432Y012525D02*
X005802Y012525D01*
X005802Y012573D02*
X003927Y012573D01*
X003927Y012622D02*
X005202Y012622D01*
X005118Y012670D02*
X003927Y012670D01*
X003927Y012719D02*
X005071Y012719D01*
X005051Y012767D02*
X003927Y012767D01*
X003927Y012816D02*
X005036Y012816D01*
X005036Y012864D02*
X003927Y012864D01*
X003927Y012913D02*
X005041Y012913D01*
X005061Y012961D02*
X003927Y012961D01*
X004468Y012476D02*
X005802Y012476D01*
X005765Y012428D02*
X004468Y012428D01*
X004468Y012112D02*
X005874Y012112D01*
X005962Y012199D01*
X006089Y012327D01*
X006089Y012034D01*
X006133Y011990D01*
X006648Y011990D01*
X006684Y012025D01*
X006730Y011979D01*
X006874Y011979D01*
X006975Y012080D01*
X006975Y012224D01*
X006970Y012229D01*
X007342Y012601D01*
X007342Y012589D01*
X007334Y012581D01*
X007320Y012557D01*
X007313Y012531D01*
X007313Y012465D01*
X007690Y012465D01*
X007690Y012460D01*
X007695Y012460D01*
X007695Y012465D01*
X008071Y012465D01*
X008071Y012488D01*
X008080Y012479D01*
X008224Y012479D01*
X008325Y012580D01*
X008325Y012724D01*
X008224Y012825D01*
X008080Y012825D01*
X008042Y012787D01*
X008042Y012917D01*
X008080Y012879D01*
X008224Y012879D01*
X008325Y012980D01*
X008325Y013124D01*
X008224Y013225D01*
X008080Y013225D01*
X008042Y013187D01*
X008042Y013328D01*
X008042Y013301D02*
X008509Y013301D01*
X008502Y013293D02*
X008502Y012511D01*
X008651Y012362D01*
X008807Y012362D01*
X008880Y012289D01*
X009024Y012289D01*
X009087Y012351D01*
X009106Y012332D01*
X009718Y012332D01*
X009762Y012376D01*
X009762Y012548D01*
X009753Y012557D01*
X009762Y012566D01*
X009762Y012738D01*
X009748Y012752D01*
X009748Y012752D01*
X010602Y012752D01*
X010602Y012298D01*
X010588Y012312D01*
X010415Y012312D01*
X010372Y012268D01*
X010372Y012252D01*
X010347Y012252D01*
X010274Y012325D01*
X010130Y012325D01*
X010057Y012252D01*
X009961Y012252D01*
X009902Y012193D01*
X009852Y012143D01*
X009852Y011152D01*
X009797Y011152D01*
X009724Y011225D01*
X009580Y011225D01*
X009479Y011124D01*
X009479Y010980D01*
X009580Y010879D01*
X009724Y010879D01*
X009752Y010907D01*
X009752Y010659D01*
X009733Y010678D01*
X009393Y010678D01*
X009021Y011091D01*
X009021Y011093D01*
X008993Y011121D01*
X008967Y011150D01*
X008964Y011150D01*
X008962Y011152D01*
X008924Y011152D01*
X008885Y011154D01*
X008883Y011152D01*
X008497Y011152D01*
X008424Y011225D01*
X008280Y011225D01*
X008202Y011147D01*
X008174Y011175D01*
X008030Y011175D01*
X007929Y011074D01*
X007929Y010930D01*
X008002Y010857D01*
X008002Y010726D01*
X007954Y010678D01*
X007608Y010678D01*
X007564Y010634D01*
X007564Y010482D01*
X007552Y010493D01*
X007493Y010552D01*
X007002Y010552D01*
X007002Y011161D01*
X007593Y011752D01*
X008357Y011752D01*
X008380Y011729D01*
X008524Y011729D01*
X008625Y011830D01*
X008625Y011974D01*
X008524Y012075D01*
X008380Y012075D01*
X008279Y011974D01*
X008279Y011952D01*
X007511Y011952D01*
X007452Y011893D01*
X006975Y011417D01*
X006975Y011424D01*
X006874Y011525D01*
X006730Y011525D01*
X006692Y011487D01*
X006692Y011505D01*
X006648Y011549D01*
X006133Y011549D01*
X006089Y011505D01*
X006089Y011049D01*
X006133Y011005D01*
X006277Y011005D01*
X006277Y010354D01*
X005327Y011304D01*
X005254Y011377D01*
X004468Y011377D01*
X004468Y011505D01*
X004424Y011549D01*
X003927Y011549D01*
X003927Y011990D01*
X004424Y011990D01*
X004468Y012034D01*
X004468Y012112D01*
X004468Y012088D02*
X006089Y012088D01*
X006089Y012040D02*
X004468Y012040D01*
X004425Y011991D02*
X006132Y011991D01*
X006089Y012137D02*
X005899Y012137D01*
X005947Y012185D02*
X006089Y012185D01*
X006089Y012234D02*
X005996Y012234D01*
X005962Y012199D02*
X005962Y012199D01*
X006044Y012282D02*
X006089Y012282D01*
X005802Y012622D02*
X005355Y012622D01*
X005439Y012670D02*
X005808Y012670D01*
X005856Y012719D02*
X005485Y012719D01*
X005506Y012767D02*
X005905Y012767D01*
X005953Y012816D02*
X005521Y012816D01*
X005521Y012864D02*
X006002Y012864D01*
X006050Y012913D02*
X005516Y012913D01*
X005496Y012961D02*
X006699Y012961D01*
X006702Y013010D02*
X006684Y013010D01*
X006692Y013058D02*
X006702Y013058D01*
X006702Y013107D02*
X006692Y013107D01*
X006692Y013155D02*
X006702Y013155D01*
X006702Y013204D02*
X006692Y013204D01*
X006692Y013252D02*
X006702Y013252D01*
X006702Y013301D02*
X006692Y013301D01*
X006692Y013349D02*
X006702Y013349D01*
X006702Y013398D02*
X006692Y013398D01*
X006692Y013446D02*
X006702Y013446D01*
X006702Y013495D02*
X006671Y013495D01*
X006702Y013543D02*
X006288Y013543D01*
X006337Y013592D02*
X006702Y013592D01*
X006679Y013640D02*
X006375Y013640D01*
X006375Y013689D02*
X006679Y013689D01*
X006679Y013737D02*
X006375Y013737D01*
X006364Y013786D02*
X006690Y013786D01*
X006702Y013834D02*
X006327Y013834D01*
X006327Y013883D02*
X006702Y013883D01*
X006702Y013931D02*
X006327Y013931D01*
X006327Y013980D02*
X006673Y013980D01*
X006624Y014028D02*
X006327Y014028D01*
X006327Y014077D02*
X006576Y014077D01*
X006527Y014125D02*
X006327Y014125D01*
X006327Y014174D02*
X006479Y014174D01*
X006462Y014222D02*
X006309Y014222D01*
X006260Y014271D02*
X006462Y014271D01*
X006462Y014319D02*
X006212Y014319D01*
X006163Y014368D02*
X006462Y014368D01*
X006462Y014416D02*
X006115Y014416D01*
X006077Y014465D02*
X006462Y014465D01*
X006462Y014513D02*
X006077Y014513D01*
X006077Y014562D02*
X006510Y014562D01*
X006559Y014610D02*
X006077Y014610D01*
X006118Y014659D02*
X006607Y014659D01*
X006656Y014707D02*
X006145Y014707D01*
X006145Y014756D02*
X008038Y014756D01*
X008086Y014804D02*
X006145Y014804D01*
X006145Y014853D02*
X008135Y014853D01*
X008183Y014901D02*
X006145Y014901D01*
X006145Y014950D02*
X008232Y014950D01*
X008280Y014998D02*
X006131Y014998D01*
X005766Y014125D02*
X005288Y014125D01*
X005295Y014077D02*
X005759Y014077D01*
X005759Y014028D02*
X005295Y014028D01*
X005295Y013980D02*
X005759Y013980D01*
X005759Y013931D02*
X005295Y013931D01*
X005295Y013883D02*
X005759Y013883D01*
X005759Y013834D02*
X005295Y013834D01*
X005261Y013786D02*
X005793Y013786D01*
X005802Y013737D02*
X005252Y013737D01*
X005252Y013689D02*
X005802Y013689D01*
X005802Y013640D02*
X005252Y013640D01*
X005252Y013592D02*
X005802Y013592D01*
X005802Y013543D02*
X005252Y013543D01*
X005252Y013495D02*
X005802Y013495D01*
X005802Y013446D02*
X005252Y013446D01*
X005252Y013398D02*
X005802Y013398D01*
X005802Y013349D02*
X005211Y013349D01*
X005163Y013301D02*
X005802Y013301D01*
X005840Y013252D02*
X005114Y013252D01*
X005066Y013204D02*
X005888Y013204D01*
X005937Y013155D02*
X005017Y013155D01*
X004969Y013107D02*
X005985Y013107D01*
X006089Y013058D02*
X005414Y013058D01*
X005464Y013010D02*
X006098Y013010D01*
X006102Y013495D02*
X006110Y013495D01*
X006102Y013543D02*
X006116Y013543D01*
X007002Y013834D02*
X007002Y013834D01*
X007002Y013883D02*
X007002Y013883D01*
X007002Y013931D02*
X007019Y013931D01*
X007031Y013980D02*
X007067Y013980D01*
X007080Y014028D02*
X007116Y014028D01*
X007128Y014077D02*
X007164Y014077D01*
X007177Y014125D02*
X007213Y014125D01*
X007225Y014174D02*
X007261Y014174D01*
X007262Y014222D02*
X007242Y014222D01*
X007242Y014271D02*
X007262Y014271D01*
X007262Y014319D02*
X007242Y014319D01*
X007242Y014368D02*
X007262Y014368D01*
X007262Y014416D02*
X007242Y014416D01*
X007242Y014465D02*
X007262Y014465D01*
X007262Y014513D02*
X007242Y014513D01*
X007194Y014562D02*
X007310Y014562D01*
X007359Y014610D02*
X007146Y014610D01*
X007097Y014659D02*
X007407Y014659D01*
X007456Y014707D02*
X007049Y014707D01*
X007443Y013931D02*
X008164Y013931D01*
X008212Y013883D02*
X007395Y013883D01*
X007346Y013834D02*
X007728Y013834D01*
X007727Y013833D02*
X007727Y013621D01*
X007771Y013577D01*
X007983Y013577D01*
X008027Y013621D01*
X008027Y013833D01*
X007983Y013877D01*
X007771Y013877D01*
X007727Y013833D01*
X007727Y013786D02*
X007302Y013786D01*
X007302Y013737D02*
X007727Y013737D01*
X007727Y013689D02*
X007302Y013689D01*
X007302Y013640D02*
X007727Y013640D01*
X007756Y013592D02*
X007302Y013592D01*
X007831Y013980D02*
X008115Y013980D01*
X008067Y014028D02*
X007880Y014028D01*
X007928Y014077D02*
X008018Y014077D01*
X008026Y013834D02*
X008261Y013834D01*
X008309Y013786D02*
X008027Y013786D01*
X008027Y013737D02*
X008358Y013737D01*
X008645Y013737D02*
X008695Y013737D01*
X008695Y013786D02*
X008645Y013786D01*
X008645Y013834D02*
X008695Y013834D01*
X008695Y013883D02*
X008645Y013883D01*
X008645Y013931D02*
X008695Y013931D01*
X008695Y013980D02*
X008645Y013980D01*
X008645Y014028D02*
X008695Y014028D01*
X008983Y013737D02*
X010796Y013737D01*
X010752Y013689D02*
X008027Y013689D01*
X008027Y013640D02*
X009649Y013640D01*
X009702Y013552D02*
X009952Y013552D01*
X010152Y013352D01*
X010752Y013352D01*
X010852Y013452D01*
X010852Y013652D01*
X010902Y013702D01*
X011302Y013702D01*
X011302Y011602D01*
X011002Y011302D01*
X010752Y011302D01*
X010579Y011312D02*
X010287Y011312D01*
X010325Y011274D02*
X010224Y011375D01*
X010152Y011375D01*
X010152Y011611D01*
X010220Y011679D01*
X010324Y011679D01*
X010377Y011731D01*
X010415Y011692D01*
X010588Y011692D01*
X010602Y011707D01*
X010616Y011692D01*
X010789Y011692D01*
X010828Y011731D01*
X010880Y011679D01*
X011024Y011679D01*
X011125Y011780D01*
X011125Y011924D01*
X011024Y012025D01*
X010880Y012025D01*
X010828Y011973D01*
X010802Y011998D01*
X010802Y012006D01*
X010833Y012036D01*
X010833Y012268D01*
X010802Y012298D01*
X010802Y012843D01*
X010752Y012893D01*
X010693Y012952D01*
X009952Y012952D01*
X009952Y013097D01*
X010025Y013170D01*
X010025Y013187D01*
X010061Y013152D01*
X010893Y013152D01*
X010952Y013211D01*
X011020Y013279D01*
X011124Y013279D01*
X011202Y013357D01*
X011202Y011643D01*
X010961Y011402D01*
X010897Y011402D01*
X010824Y011475D01*
X010680Y011475D01*
X010579Y011374D01*
X010579Y011275D01*
X010480Y011275D01*
X010379Y011174D01*
X010379Y011030D01*
X010480Y010929D01*
X010624Y010929D01*
X010697Y011002D01*
X010993Y011002D01*
X011402Y011411D01*
X011402Y009702D01*
X010898Y009702D01*
X010912Y009715D01*
X010912Y009888D01*
X010898Y009902D01*
X010912Y009916D01*
X010912Y010089D01*
X010868Y010133D01*
X010636Y010133D01*
X010606Y010102D01*
X010347Y010102D01*
X010397Y010152D01*
X010957Y010152D01*
X011030Y010079D01*
X011174Y010079D01*
X011275Y010180D01*
X011275Y010324D01*
X011174Y010425D01*
X011085Y010425D01*
X011125Y010466D01*
X011125Y010610D01*
X011024Y010712D01*
X010880Y010712D01*
X010807Y010638D01*
X010426Y010638D01*
X010380Y010685D01*
X010425Y010730D01*
X011402Y010730D01*
X011402Y010682D02*
X011054Y010682D01*
X011103Y010633D02*
X011402Y010633D01*
X011402Y010585D02*
X011125Y010585D01*
X011125Y010536D02*
X011402Y010536D01*
X011402Y010488D02*
X011125Y010488D01*
X011098Y010439D02*
X011402Y010439D01*
X011402Y010391D02*
X011209Y010391D01*
X011257Y010342D02*
X011402Y010342D01*
X011402Y010294D02*
X011275Y010294D01*
X011275Y010245D02*
X011402Y010245D01*
X011402Y010197D02*
X011275Y010197D01*
X011243Y010148D02*
X011402Y010148D01*
X011402Y010100D02*
X011195Y010100D01*
X011102Y010252D02*
X010252Y010252D01*
X010133Y010125D02*
X010030Y010125D01*
X009929Y010024D01*
X009929Y009920D01*
X009852Y009843D01*
X009852Y009643D01*
X009805Y009597D01*
X009805Y009633D01*
X009800Y009654D01*
X009805Y009676D01*
X009805Y009746D01*
X009389Y009746D01*
X009389Y009586D01*
X009389Y009563D01*
X009376Y009563D01*
X009376Y009746D01*
X009389Y009746D01*
X009389Y009759D01*
X009805Y009759D01*
X009805Y009830D01*
X009798Y009856D01*
X009785Y009880D01*
X009778Y009886D01*
X010079Y010187D01*
X010079Y010180D01*
X010133Y010125D01*
X010111Y010148D02*
X010040Y010148D01*
X010004Y010100D02*
X009991Y010100D01*
X009956Y010051D02*
X009943Y010051D01*
X009929Y010003D02*
X009894Y010003D01*
X009929Y009954D02*
X009846Y009954D01*
X009797Y009906D02*
X009914Y009906D01*
X009866Y009857D02*
X009798Y009857D01*
X009805Y009809D02*
X009852Y009809D01*
X009852Y009760D02*
X009805Y009760D01*
X009805Y009712D02*
X009852Y009712D01*
X009852Y009663D02*
X009802Y009663D01*
X009805Y009615D02*
X009823Y009615D01*
X009952Y009602D02*
X009709Y009359D01*
X009383Y009359D01*
X009383Y009162D02*
X009712Y009162D01*
X010152Y009602D01*
X010152Y009652D01*
X010302Y009802D01*
X010352Y009802D01*
X010352Y009602D02*
X010652Y009602D01*
X010552Y009702D01*
X010552Y009802D01*
X010752Y009802D01*
X010912Y009809D02*
X011402Y009809D01*
X011402Y009857D02*
X010912Y009857D01*
X010901Y009906D02*
X011402Y009906D01*
X011402Y009954D02*
X010912Y009954D01*
X010912Y010003D02*
X011402Y010003D01*
X011402Y010051D02*
X010912Y010051D01*
X010901Y010100D02*
X011009Y010100D01*
X010961Y010148D02*
X010393Y010148D01*
X010152Y010002D02*
X010752Y010002D01*
X010912Y009760D02*
X011402Y009760D01*
X011402Y009712D02*
X010908Y009712D01*
X010652Y009602D02*
X011452Y009602D01*
X011502Y009652D01*
X011502Y011452D01*
X011602Y011552D01*
X011602Y011379D02*
X011602Y010843D01*
X011852Y011093D01*
X011852Y011717D01*
X011777Y011717D01*
X011777Y011992D01*
X011727Y011992D01*
X011727Y011717D01*
X011683Y011717D01*
X011775Y011624D01*
X011775Y011480D01*
X011674Y011379D01*
X011602Y011379D01*
X011602Y011361D02*
X011852Y011361D01*
X011852Y011409D02*
X011704Y011409D01*
X011753Y011458D02*
X011852Y011458D01*
X011852Y011506D02*
X011775Y011506D01*
X011775Y011555D02*
X011852Y011555D01*
X011852Y011603D02*
X011775Y011603D01*
X011748Y011652D02*
X011852Y011652D01*
X011852Y011700D02*
X011699Y011700D01*
X011727Y011749D02*
X011777Y011749D01*
X011777Y011797D02*
X011727Y011797D01*
X011727Y011846D02*
X011777Y011846D01*
X011777Y011894D02*
X011727Y011894D01*
X011727Y011943D02*
X011777Y011943D01*
X011777Y011991D02*
X011727Y011991D01*
X011727Y012042D02*
X011727Y012318D01*
X011522Y012318D01*
X011502Y012313D01*
X011502Y012417D01*
X011504Y012415D01*
X012000Y012415D01*
X012044Y012459D01*
X012044Y012461D01*
X012109Y012461D01*
X011966Y012318D01*
X011777Y012318D01*
X011777Y012042D01*
X011727Y012042D01*
X011727Y012088D02*
X011777Y012088D01*
X011777Y012137D02*
X011727Y012137D01*
X011727Y012185D02*
X011777Y012185D01*
X011777Y012234D02*
X011727Y012234D01*
X011727Y012282D02*
X011777Y012282D01*
X011979Y012331D02*
X011502Y012331D01*
X011502Y012379D02*
X012028Y012379D01*
X012012Y012428D02*
X012076Y012428D01*
X012267Y012752D02*
X012417Y012602D01*
X012552Y012602D01*
X012702Y012452D01*
X012852Y012452D01*
X013052Y012252D01*
X013052Y011802D01*
X013002Y011752D01*
X012002Y011752D01*
X011952Y011702D01*
X011952Y011052D01*
X011652Y010752D01*
X011652Y009602D01*
X011552Y009502D01*
X010402Y009502D01*
X010352Y009452D01*
X010352Y008402D01*
X010002Y008052D01*
X007452Y008052D01*
X007402Y008002D01*
X007402Y006402D01*
X007365Y006365D01*
X007365Y006094D01*
X007175Y006094D02*
X007175Y005729D01*
X007252Y005652D01*
X007502Y005652D01*
X007552Y005702D01*
X007552Y007902D01*
X007602Y007952D01*
X010052Y007952D01*
X010452Y008352D01*
X010452Y009302D01*
X010552Y009402D01*
X011702Y009402D01*
X011752Y009452D01*
X011752Y010702D01*
X012352Y011302D01*
X012623Y011021D02*
X013713Y011021D01*
X013713Y010973D02*
X012574Y010973D01*
X012526Y010924D02*
X013713Y010924D01*
X013713Y010876D02*
X012067Y010876D01*
X012116Y010924D02*
X012178Y010924D01*
X012019Y010827D02*
X013713Y010827D01*
X013713Y010779D02*
X011970Y010779D01*
X011922Y010730D02*
X013713Y010730D01*
X013713Y010682D02*
X011873Y010682D01*
X011852Y010633D02*
X013713Y010633D01*
X013713Y010585D02*
X011852Y010585D01*
X011852Y010536D02*
X013713Y010536D01*
X013713Y010488D02*
X013223Y010488D01*
X013227Y010483D02*
X013183Y010527D01*
X012971Y010527D01*
X012927Y010483D01*
X012927Y010271D01*
X012971Y010227D01*
X013183Y010227D01*
X013227Y010271D01*
X013227Y010483D01*
X013227Y010439D02*
X013713Y010439D01*
X013713Y010391D02*
X013227Y010391D01*
X013227Y010342D02*
X013713Y010342D01*
X013713Y010294D02*
X013227Y010294D01*
X013201Y010245D02*
X013713Y010245D01*
X013713Y010197D02*
X011852Y010197D01*
X011852Y010245D02*
X012953Y010245D01*
X012927Y010294D02*
X011852Y010294D01*
X011852Y010342D02*
X012927Y010342D01*
X012927Y010391D02*
X011852Y010391D01*
X011852Y010439D02*
X012927Y010439D01*
X012932Y010488D02*
X011852Y010488D01*
X011852Y010148D02*
X013713Y010148D01*
X013713Y010100D02*
X011852Y010100D01*
X011852Y010051D02*
X012227Y010051D01*
X012178Y010003D02*
X011852Y010003D01*
X011852Y009954D02*
X012130Y009954D01*
X012081Y009906D02*
X011852Y009906D01*
X011852Y009857D02*
X012033Y009857D01*
X011984Y009809D02*
X011852Y009809D01*
X011852Y009760D02*
X011936Y009760D01*
X011887Y009712D02*
X011852Y009712D01*
X011814Y009372D02*
X012166Y009372D01*
X011842Y009324D02*
X011765Y009324D01*
X011842Y009275D02*
X010567Y009275D01*
X010552Y009227D02*
X011842Y009227D01*
X011842Y009178D02*
X010552Y009178D01*
X010552Y009130D02*
X011842Y009130D01*
X011852Y009081D02*
X010552Y009081D01*
X010552Y009033D02*
X011901Y009033D01*
X011949Y008984D02*
X010552Y008984D01*
X010552Y008936D02*
X011998Y008936D01*
X012046Y008887D02*
X010552Y008887D01*
X010552Y008839D02*
X012095Y008839D01*
X012143Y008790D02*
X010552Y008790D01*
X010552Y008742D02*
X012192Y008742D01*
X012240Y008693D02*
X010552Y008693D01*
X010552Y008645D02*
X013713Y008645D01*
X013713Y008693D02*
X012832Y008693D01*
X012881Y008742D02*
X013713Y008742D01*
X013713Y008790D02*
X012929Y008790D01*
X012978Y008839D02*
X013713Y008839D01*
X013713Y008887D02*
X013026Y008887D01*
X013075Y008936D02*
X013713Y008936D01*
X013713Y008984D02*
X013123Y008984D01*
X013172Y009033D02*
X013713Y009033D01*
X013713Y009081D02*
X013220Y009081D01*
X013231Y009130D02*
X013713Y009130D01*
X013713Y009178D02*
X013231Y009178D01*
X013231Y009227D02*
X013713Y009227D01*
X013713Y009275D02*
X013231Y009275D01*
X013231Y009324D02*
X013713Y009324D01*
X013713Y009372D02*
X012907Y009372D01*
X013231Y009421D02*
X013713Y009421D01*
X013713Y009469D02*
X013231Y009469D01*
X013231Y009518D02*
X013713Y009518D01*
X013713Y009566D02*
X013231Y009566D01*
X013231Y009615D02*
X013713Y009615D01*
X013713Y009663D02*
X013231Y009663D01*
X013185Y009712D02*
X013713Y009712D01*
X013713Y009760D02*
X013137Y009760D01*
X013088Y009809D02*
X013713Y009809D01*
X013713Y009857D02*
X013040Y009857D01*
X012991Y009906D02*
X013713Y009906D01*
X013713Y009954D02*
X012943Y009954D01*
X012894Y010003D02*
X013713Y010003D01*
X013713Y010051D02*
X012846Y010051D01*
X012561Y010051D02*
X012511Y010051D01*
X012511Y010003D02*
X012561Y010003D01*
X012561Y009954D02*
X012511Y009954D01*
X012511Y009906D02*
X012561Y009906D01*
X012561Y009857D02*
X012511Y009857D01*
X012511Y009809D02*
X012561Y009809D01*
X012561Y009760D02*
X012511Y009760D01*
X012511Y008984D02*
X012561Y008984D01*
X012561Y008936D02*
X012511Y008936D01*
X012511Y008887D02*
X012561Y008887D01*
X012561Y008839D02*
X012511Y008839D01*
X012511Y008790D02*
X012561Y008790D01*
X012561Y008742D02*
X012511Y008742D01*
X012511Y008693D02*
X012561Y008693D01*
X012754Y008354D02*
X010552Y008354D01*
X010552Y008402D02*
X013713Y008402D01*
X013713Y008354D02*
X013320Y008354D01*
X013313Y008357D02*
X013287Y008364D01*
X013062Y008364D01*
X013062Y008010D01*
X013377Y008010D01*
X013377Y008274D01*
X013370Y008301D01*
X013356Y008324D01*
X013337Y008344D01*
X013313Y008357D01*
X013367Y008305D02*
X013713Y008305D01*
X013713Y008257D02*
X013377Y008257D01*
X013377Y008208D02*
X013713Y008208D01*
X013713Y008160D02*
X013377Y008160D01*
X013377Y008111D02*
X013713Y008111D01*
X013713Y008063D02*
X013377Y008063D01*
X013377Y008014D02*
X013713Y008014D01*
X013713Y007966D02*
X013062Y007966D01*
X013062Y007960D02*
X013062Y008010D01*
X013012Y008010D01*
X013012Y008364D01*
X012787Y008364D01*
X012760Y008357D01*
X012737Y008344D01*
X012717Y008324D01*
X012704Y008301D01*
X012697Y008274D01*
X012697Y008010D01*
X013012Y008010D01*
X013012Y007960D01*
X013062Y007960D01*
X013377Y007960D01*
X013377Y007696D01*
X013370Y007670D01*
X013356Y007646D01*
X013337Y007627D01*
X013313Y007613D01*
X013287Y007606D01*
X013062Y007606D01*
X013062Y007960D01*
X013062Y007917D02*
X013012Y007917D01*
X013012Y007960D02*
X013012Y007606D01*
X012787Y007606D01*
X012760Y007613D01*
X012737Y007627D01*
X012717Y007646D01*
X012704Y007670D01*
X012697Y007696D01*
X012697Y007960D01*
X013012Y007960D01*
X013012Y007966D02*
X012679Y007966D01*
X012679Y008014D02*
X012697Y008014D01*
X012697Y008063D02*
X012679Y008063D01*
X012679Y008111D02*
X012697Y008111D01*
X012697Y008160D02*
X012679Y008160D01*
X012679Y008208D02*
X012697Y008208D01*
X012697Y008257D02*
X012679Y008257D01*
X012665Y008305D02*
X012706Y008305D01*
X013012Y008305D02*
X013062Y008305D01*
X013062Y008257D02*
X013012Y008257D01*
X013012Y008208D02*
X013062Y008208D01*
X013062Y008160D02*
X013012Y008160D01*
X013012Y008111D02*
X013062Y008111D01*
X013062Y008063D02*
X013012Y008063D01*
X013012Y008014D02*
X013062Y008014D01*
X013062Y007869D02*
X013012Y007869D01*
X013012Y007820D02*
X013062Y007820D01*
X013062Y007772D02*
X013012Y007772D01*
X013012Y007723D02*
X013062Y007723D01*
X013062Y007675D02*
X013012Y007675D01*
X013012Y007626D02*
X013062Y007626D01*
X013336Y007626D02*
X013713Y007626D01*
X013713Y007578D02*
X012102Y007578D01*
X012102Y007626D02*
X012738Y007626D01*
X012702Y007675D02*
X012675Y007675D01*
X012679Y007723D02*
X012697Y007723D01*
X012697Y007772D02*
X012679Y007772D01*
X012679Y007820D02*
X012697Y007820D01*
X012697Y007869D02*
X012679Y007869D01*
X012679Y007917D02*
X012697Y007917D01*
X012367Y007985D02*
X012267Y007985D01*
X012002Y007720D01*
X012002Y007252D01*
X011960Y007210D01*
X011352Y007210D01*
X011336Y007194D01*
X011490Y007110D02*
X012001Y007110D01*
X012043Y007152D01*
X012056Y007165D01*
X012056Y006812D01*
X012100Y006768D01*
X012302Y006768D01*
X012302Y006611D01*
X012361Y006552D01*
X012511Y006402D01*
X012622Y006402D01*
X012622Y006386D01*
X012627Y006381D01*
X012627Y005077D01*
X011673Y005077D01*
X011668Y005083D01*
X011527Y005083D01*
X011527Y005782D01*
X011575Y005830D01*
X011575Y005974D01*
X011474Y006075D01*
X011330Y006075D01*
X011229Y005974D01*
X011229Y005830D01*
X011277Y005782D01*
X011277Y005222D01*
X011226Y005222D01*
X011208Y005203D01*
X011190Y005222D01*
X010970Y005222D01*
X010952Y005203D01*
X010934Y005222D01*
X010719Y005222D01*
X010711Y005230D01*
X010687Y005243D01*
X010661Y005250D01*
X010583Y005250D01*
X010583Y004925D01*
X010554Y004925D01*
X010554Y005250D01*
X010476Y005250D01*
X010452Y005244D01*
X010452Y006860D01*
X010476Y006854D01*
X010554Y006854D01*
X010554Y007179D01*
X010583Y007179D01*
X010583Y006854D01*
X010661Y006854D01*
X010687Y006861D01*
X010711Y006875D01*
X010719Y006883D01*
X010934Y006883D01*
X010952Y006901D01*
X010970Y006883D01*
X011190Y006883D01*
X011208Y006901D01*
X011226Y006883D01*
X011446Y006883D01*
X011490Y006927D01*
X011490Y007110D01*
X011490Y007093D02*
X012056Y007093D01*
X012056Y007141D02*
X012033Y007141D01*
X012056Y007044D02*
X011490Y007044D01*
X011490Y006996D02*
X012056Y006996D01*
X012056Y006947D02*
X011490Y006947D01*
X011462Y006899D02*
X012056Y006899D01*
X012056Y006850D02*
X010452Y006850D01*
X010452Y006802D02*
X012067Y006802D01*
X012302Y006753D02*
X010452Y006753D01*
X010452Y006705D02*
X012302Y006705D01*
X012302Y006656D02*
X010452Y006656D01*
X010452Y006608D02*
X012305Y006608D01*
X012354Y006559D02*
X010452Y006559D01*
X010452Y006511D02*
X012402Y006511D01*
X012451Y006462D02*
X010452Y006462D01*
X010452Y006414D02*
X012499Y006414D01*
X012552Y006502D02*
X012402Y006652D01*
X012402Y007084D01*
X012367Y007119D01*
X012502Y006753D02*
X013002Y006753D01*
X013002Y006705D02*
X012502Y006705D01*
X012539Y006656D02*
X012660Y006656D01*
X012622Y006608D02*
X012588Y006608D01*
X012552Y006502D02*
X012752Y006502D01*
X012843Y006656D02*
X012861Y006656D01*
X012952Y006502D02*
X013102Y006652D01*
X013102Y007054D01*
X013037Y007119D01*
X013348Y007141D02*
X013713Y007141D01*
X013713Y007093D02*
X013348Y007093D01*
X013348Y007044D02*
X013713Y007044D01*
X013713Y006996D02*
X013348Y006996D01*
X013348Y006947D02*
X013713Y006947D01*
X013713Y006899D02*
X013348Y006899D01*
X013348Y006850D02*
X013713Y006850D01*
X013713Y006802D02*
X013337Y006802D01*
X013202Y006753D02*
X013713Y006753D01*
X013713Y006705D02*
X013202Y006705D01*
X013202Y006656D02*
X013713Y006656D01*
X013713Y006608D02*
X013199Y006608D01*
X013151Y006559D02*
X013713Y006559D01*
X013713Y006511D02*
X013102Y006511D01*
X013083Y006462D02*
X013713Y006462D01*
X013713Y006414D02*
X013083Y006414D01*
X013061Y006365D02*
X013713Y006365D01*
X013713Y006317D02*
X012877Y006317D01*
X012877Y006268D02*
X013713Y006268D01*
X013713Y006220D02*
X012877Y006220D01*
X012877Y006171D02*
X013713Y006171D01*
X013713Y006123D02*
X012877Y006123D01*
X012877Y006074D02*
X013713Y006074D01*
X013713Y006026D02*
X012877Y006026D01*
X012877Y005977D02*
X013713Y005977D01*
X013713Y005929D02*
X012877Y005929D01*
X012877Y005880D02*
X013713Y005880D01*
X013713Y005832D02*
X012877Y005832D01*
X012877Y005783D02*
X013713Y005783D01*
X013713Y005735D02*
X012877Y005735D01*
X012877Y005686D02*
X013713Y005686D01*
X013713Y005638D02*
X012877Y005638D01*
X012877Y005589D02*
X013713Y005589D01*
X013713Y005541D02*
X012877Y005541D01*
X012877Y005492D02*
X013713Y005492D01*
X013713Y005444D02*
X012877Y005444D01*
X012877Y005395D02*
X013713Y005395D01*
X013713Y005347D02*
X012877Y005347D01*
X012877Y005298D02*
X013713Y005298D01*
X013713Y005250D02*
X012877Y005250D01*
X012877Y005201D02*
X013713Y005201D01*
X013713Y005153D02*
X012877Y005153D01*
X012877Y005104D02*
X013713Y005104D01*
X013713Y005056D02*
X012877Y005056D01*
X012877Y005007D02*
X013713Y005007D01*
X013713Y004959D02*
X012877Y004959D01*
X012837Y004910D02*
X013674Y004910D01*
X013626Y004862D02*
X012788Y004862D01*
X012627Y005104D02*
X011527Y005104D01*
X011527Y005153D02*
X012627Y005153D01*
X012627Y005201D02*
X011527Y005201D01*
X011527Y005250D02*
X012627Y005250D01*
X012627Y005298D02*
X011527Y005298D01*
X011527Y005347D02*
X012627Y005347D01*
X012627Y005395D02*
X011527Y005395D01*
X011527Y005444D02*
X012627Y005444D01*
X012627Y005492D02*
X011527Y005492D01*
X011527Y005541D02*
X012627Y005541D01*
X012627Y005589D02*
X011527Y005589D01*
X011527Y005638D02*
X012627Y005638D01*
X012627Y005686D02*
X011527Y005686D01*
X011527Y005735D02*
X012627Y005735D01*
X012627Y005783D02*
X011528Y005783D01*
X011575Y005832D02*
X012627Y005832D01*
X012627Y005880D02*
X011575Y005880D01*
X011575Y005929D02*
X012627Y005929D01*
X012627Y005977D02*
X011572Y005977D01*
X011524Y006026D02*
X012627Y006026D01*
X012627Y006074D02*
X011475Y006074D01*
X011329Y006074D02*
X010452Y006074D01*
X010452Y006026D02*
X011280Y006026D01*
X011232Y005977D02*
X010452Y005977D01*
X010452Y005929D02*
X011229Y005929D01*
X011229Y005880D02*
X010452Y005880D01*
X010452Y005832D02*
X011229Y005832D01*
X011276Y005783D02*
X010452Y005783D01*
X010452Y005735D02*
X011277Y005735D01*
X011277Y005686D02*
X010452Y005686D01*
X010452Y005638D02*
X011277Y005638D01*
X011277Y005589D02*
X010452Y005589D01*
X010452Y005541D02*
X011277Y005541D01*
X011277Y005492D02*
X010452Y005492D01*
X010452Y005444D02*
X011277Y005444D01*
X011277Y005395D02*
X010452Y005395D01*
X010452Y005347D02*
X011277Y005347D01*
X011277Y005298D02*
X010452Y005298D01*
X010452Y005250D02*
X010473Y005250D01*
X010554Y005250D02*
X010583Y005250D01*
X010583Y005201D02*
X010554Y005201D01*
X010554Y005153D02*
X010583Y005153D01*
X010583Y005104D02*
X010554Y005104D01*
X010554Y005056D02*
X010583Y005056D01*
X010583Y005007D02*
X010554Y005007D01*
X010554Y004959D02*
X010583Y004959D01*
X010663Y005250D02*
X011277Y005250D01*
X011802Y004952D02*
X011802Y004052D01*
X011752Y004002D01*
X010002Y004002D01*
X010002Y004323D01*
X009989Y004336D01*
X010002Y004002D02*
X010002Y003802D01*
X009952Y003752D01*
X007452Y003752D01*
X007365Y003839D01*
X007365Y004374D01*
X007495Y004377D02*
X007502Y004377D01*
X007495Y004425D02*
X007502Y004425D01*
X007495Y004474D02*
X007502Y004474D01*
X007495Y004522D02*
X007502Y004522D01*
X007495Y004571D02*
X007502Y004571D01*
X007495Y004619D02*
X007502Y004619D01*
X007495Y004668D02*
X007502Y004668D01*
X007495Y004680D02*
X007451Y004724D01*
X007302Y004724D01*
X007294Y004732D01*
X007270Y004745D01*
X007244Y004752D01*
X007178Y004752D01*
X007178Y004376D01*
X007173Y004376D01*
X007173Y004752D01*
X007107Y004752D01*
X007080Y004745D01*
X007075Y004742D01*
X007070Y004745D01*
X007044Y004752D01*
X006978Y004752D01*
X006978Y004376D01*
X007173Y004376D01*
X007173Y004371D01*
X007178Y004371D01*
X007178Y003995D01*
X007240Y003995D01*
X007240Y003877D01*
X006962Y003877D01*
X006962Y003995D01*
X006973Y003995D01*
X006973Y004371D01*
X006978Y004371D01*
X006978Y004376D01*
X006973Y004376D01*
X006973Y004752D01*
X006907Y004752D01*
X006880Y004745D01*
X006857Y004732D01*
X006849Y004724D01*
X006835Y004724D01*
X006802Y004780D01*
X006802Y005202D01*
X007343Y005202D01*
X007402Y005261D01*
X007502Y005361D01*
X007502Y004247D01*
X007495Y004241D01*
X007495Y004680D01*
X007502Y004716D02*
X007459Y004716D01*
X007502Y004765D02*
X006811Y004765D01*
X006802Y004813D02*
X007502Y004813D01*
X007502Y004862D02*
X006802Y004862D01*
X006802Y004910D02*
X007502Y004910D01*
X007502Y004959D02*
X006802Y004959D01*
X006802Y005007D02*
X007502Y005007D01*
X007502Y005056D02*
X006802Y005056D01*
X006802Y005104D02*
X007502Y005104D01*
X007502Y005153D02*
X006802Y005153D01*
X006802Y005201D02*
X007502Y005201D01*
X007502Y005250D02*
X007391Y005250D01*
X007402Y005261D02*
X007402Y005261D01*
X007440Y005298D02*
X007502Y005298D01*
X007502Y005347D02*
X007488Y005347D01*
X007602Y005452D02*
X007752Y005602D01*
X007752Y007702D01*
X007802Y007752D01*
X009202Y007752D01*
X009302Y007652D01*
X009180Y007529D02*
X007852Y007529D01*
X007852Y007481D02*
X009228Y007481D01*
X009230Y007479D02*
X009374Y007479D01*
X009475Y007580D01*
X009475Y007633D01*
X009530Y007579D01*
X009674Y007579D01*
X009775Y007680D01*
X009775Y007824D01*
X009747Y007852D01*
X010093Y007852D01*
X010229Y007987D01*
X010229Y007930D01*
X010252Y007906D01*
X010252Y004930D01*
X010247Y004933D01*
X010220Y004940D01*
X010154Y004940D01*
X010154Y004755D01*
X010149Y004755D01*
X010149Y004940D01*
X010083Y004940D01*
X010057Y004933D01*
X010033Y004920D01*
X010014Y004900D01*
X010000Y004877D01*
X009993Y004850D01*
X009993Y004755D01*
X010149Y004755D01*
X010149Y004750D01*
X009993Y004750D01*
X009993Y004661D01*
X009833Y004661D01*
X009822Y004650D01*
X009804Y004669D01*
X009780Y004682D01*
X009754Y004689D01*
X009640Y004689D01*
X009640Y004361D01*
X009590Y004361D01*
X009590Y004689D01*
X009476Y004689D01*
X009450Y004682D01*
X009426Y004669D01*
X009407Y004649D01*
X009393Y004626D01*
X009386Y004599D01*
X009386Y004361D01*
X009590Y004361D01*
X009590Y004311D01*
X009386Y004311D01*
X009386Y004072D01*
X009393Y004045D01*
X009407Y004022D01*
X009426Y004003D01*
X009450Y003989D01*
X009476Y003982D01*
X009590Y003982D01*
X009590Y004311D01*
X009640Y004311D01*
X009640Y003982D01*
X009754Y003982D01*
X009780Y003989D01*
X009804Y004003D01*
X009822Y004021D01*
X009833Y004011D01*
X009902Y004011D01*
X009902Y003852D01*
X007493Y003852D01*
X007490Y003855D01*
X007490Y003969D01*
X007530Y003929D01*
X007674Y003929D01*
X007775Y004030D01*
X007775Y004174D01*
X007702Y004247D01*
X007702Y005411D01*
X007793Y005502D01*
X007852Y005561D01*
X007852Y007652D01*
X009129Y007652D01*
X009129Y007580D01*
X009230Y007479D01*
X009131Y007578D02*
X007852Y007578D01*
X007852Y007626D02*
X009129Y007626D01*
X009376Y007481D02*
X010252Y007481D01*
X010252Y007529D02*
X009424Y007529D01*
X009473Y007578D02*
X010252Y007578D01*
X010252Y007626D02*
X009721Y007626D01*
X009770Y007675D02*
X010252Y007675D01*
X010252Y007723D02*
X009775Y007723D01*
X009775Y007772D02*
X010252Y007772D01*
X010252Y007820D02*
X009775Y007820D01*
X009602Y007752D02*
X009502Y007852D01*
X007702Y007852D01*
X007652Y007802D01*
X007652Y005652D01*
X007302Y005302D01*
X006752Y005302D01*
X006702Y005252D01*
X006702Y004752D01*
X005576Y004752D01*
X005546Y004721D01*
X005546Y004671D01*
X005352Y004668D02*
X005352Y004452D01*
X005402Y004402D01*
X005652Y004402D01*
X005702Y004452D01*
X005702Y004552D01*
X005752Y004602D01*
X006452Y004602D01*
X006585Y004469D01*
X006602Y004452D01*
X006602Y004352D01*
X006585Y004374D02*
X006585Y004469D01*
X006455Y004457D02*
X006411Y004502D01*
X005802Y004502D01*
X005802Y004411D01*
X005752Y004361D01*
X005693Y004302D01*
X005361Y004302D01*
X005311Y004352D01*
X005252Y004411D01*
X005252Y004422D01*
X005230Y004409D01*
X005197Y004400D01*
X005155Y004400D01*
X005155Y004669D01*
X005150Y004669D01*
X005150Y004400D01*
X005107Y004400D01*
X005080Y004408D01*
X005080Y004001D01*
X005204Y003877D01*
X006392Y003877D01*
X006392Y003929D01*
X006280Y003929D01*
X006179Y004030D01*
X006179Y004174D01*
X006280Y004275D01*
X006424Y004275D01*
X006455Y004244D01*
X006455Y004457D01*
X006439Y004474D02*
X005802Y004474D01*
X005802Y004425D02*
X006455Y004425D01*
X006455Y004377D02*
X005768Y004377D01*
X005719Y004328D02*
X006455Y004328D01*
X006455Y004280D02*
X005080Y004280D01*
X005080Y004328D02*
X005335Y004328D01*
X005286Y004377D02*
X005080Y004377D01*
X005150Y004425D02*
X005155Y004425D01*
X005150Y004474D02*
X005155Y004474D01*
X005150Y004522D02*
X005155Y004522D01*
X005150Y004571D02*
X005155Y004571D01*
X005150Y004619D02*
X005155Y004619D01*
X005150Y004668D02*
X005155Y004668D01*
X005155Y004674D02*
X005150Y004674D01*
X005150Y004942D01*
X005127Y004942D01*
X005127Y004985D01*
X005150Y004985D01*
X005150Y005141D01*
X005155Y005141D01*
X005155Y004985D01*
X005177Y004985D01*
X005177Y004942D01*
X005155Y004942D01*
X005155Y004674D01*
X005150Y004716D02*
X005155Y004716D01*
X005150Y004765D02*
X005155Y004765D01*
X005150Y004813D02*
X005155Y004813D01*
X005150Y004862D02*
X005155Y004862D01*
X005150Y004910D02*
X005155Y004910D01*
X005177Y004959D02*
X005127Y004959D01*
X005150Y005007D02*
X005155Y005007D01*
X005150Y005056D02*
X005155Y005056D01*
X005150Y005104D02*
X005155Y005104D01*
X005155Y005146D02*
X005150Y005146D01*
X005150Y005201D01*
X005155Y005201D01*
X005150Y005201D02*
X005150Y005227D01*
X005155Y005227D01*
X005155Y005146D01*
X005155Y005153D02*
X005150Y005153D01*
X005150Y005277D02*
X005150Y005358D01*
X005155Y005358D01*
X005155Y005277D01*
X005150Y005277D01*
X005150Y005298D02*
X005155Y005298D01*
X005150Y005347D02*
X005155Y005347D01*
X005155Y005363D02*
X005150Y005363D01*
X005150Y005519D01*
X005127Y005519D01*
X005127Y005590D01*
X005177Y005590D01*
X005177Y005519D01*
X005155Y005519D01*
X005155Y005363D01*
X005150Y005395D02*
X005155Y005395D01*
X005150Y005444D02*
X005155Y005444D01*
X005150Y005492D02*
X005155Y005492D01*
X005177Y005541D02*
X005127Y005541D01*
X005127Y005589D02*
X005177Y005589D01*
X004756Y005830D02*
X004600Y005830D01*
X004600Y005676D01*
X004606Y005650D01*
X004597Y005641D01*
X004583Y005617D01*
X004576Y005591D01*
X004576Y005519D01*
X004390Y005519D01*
X004364Y005512D01*
X004340Y005498D01*
X004321Y005479D01*
X004307Y005455D01*
X004300Y005429D01*
X004300Y005363D01*
X004576Y005363D01*
X004576Y005358D01*
X004300Y005358D01*
X004300Y005292D01*
X004307Y005265D01*
X004315Y005252D01*
X004307Y005239D01*
X004300Y005213D01*
X004300Y005146D01*
X004576Y005146D01*
X004576Y005141D01*
X004300Y005141D01*
X004300Y005075D01*
X004307Y005049D01*
X004321Y005025D01*
X004340Y005006D01*
X004364Y004992D01*
X004390Y004985D01*
X004576Y004985D01*
X004576Y004914D01*
X004583Y004887D01*
X004597Y004864D01*
X004616Y004844D01*
X004628Y004837D01*
X004628Y004489D01*
X004688Y004429D01*
X004828Y004429D01*
X004830Y004431D01*
X004830Y004251D01*
X004227Y004854D01*
X004227Y006027D01*
X004611Y006027D01*
X004608Y006023D01*
X004600Y005990D01*
X004600Y005835D01*
X004756Y005835D01*
X004756Y005830D01*
X004756Y005832D02*
X004227Y005832D01*
X004227Y005880D02*
X004600Y005880D01*
X004600Y005929D02*
X004227Y005929D01*
X004227Y005977D02*
X004600Y005977D01*
X004610Y006026D02*
X004227Y006026D01*
X004227Y005783D02*
X004600Y005783D01*
X004600Y005735D02*
X004227Y005735D01*
X004227Y005686D02*
X004600Y005686D01*
X004595Y005638D02*
X004227Y005638D01*
X004227Y005589D02*
X004576Y005589D01*
X004576Y005541D02*
X004227Y005541D01*
X004227Y005492D02*
X004334Y005492D01*
X004304Y005444D02*
X004227Y005444D01*
X004227Y005395D02*
X004300Y005395D01*
X004300Y005347D02*
X004227Y005347D01*
X004227Y005298D02*
X004300Y005298D01*
X004314Y005250D02*
X004227Y005250D01*
X004227Y005201D02*
X004300Y005201D01*
X004300Y005153D02*
X004227Y005153D01*
X004227Y005104D02*
X004300Y005104D01*
X004306Y005056D02*
X004227Y005056D01*
X004227Y005007D02*
X004339Y005007D01*
X004227Y004959D02*
X004576Y004959D01*
X004577Y004910D02*
X004227Y004910D01*
X004227Y004862D02*
X004599Y004862D01*
X004628Y004813D02*
X004268Y004813D01*
X004316Y004765D02*
X004628Y004765D01*
X004628Y004716D02*
X004365Y004716D01*
X004413Y004668D02*
X004628Y004668D01*
X004628Y004619D02*
X004462Y004619D01*
X004510Y004571D02*
X004628Y004571D01*
X004628Y004522D02*
X004559Y004522D01*
X004607Y004474D02*
X004644Y004474D01*
X004656Y004425D02*
X004830Y004425D01*
X004830Y004377D02*
X004704Y004377D01*
X004753Y004328D02*
X004830Y004328D01*
X004830Y004280D02*
X004801Y004280D01*
X004642Y004086D02*
X004491Y004086D01*
X004442Y004134D02*
X004593Y004134D01*
X004545Y004183D02*
X004394Y004183D01*
X004345Y004231D02*
X004496Y004231D01*
X004448Y004280D02*
X004297Y004280D01*
X004248Y004328D02*
X004399Y004328D01*
X004351Y004377D02*
X004200Y004377D01*
X004151Y004425D02*
X004302Y004425D01*
X004254Y004474D02*
X004103Y004474D01*
X004054Y004522D02*
X004205Y004522D01*
X004157Y004571D02*
X004006Y004571D01*
X004539Y004037D02*
X004690Y004037D01*
X004739Y003989D02*
X004588Y003989D01*
X004636Y003940D02*
X004787Y003940D01*
X004836Y003892D02*
X004685Y003892D01*
X004733Y003843D02*
X004884Y003843D01*
X004933Y003795D02*
X004782Y003795D01*
X004830Y003746D02*
X004981Y003746D01*
X005027Y003700D02*
X005027Y003700D01*
X005030Y003698D02*
X004879Y003698D01*
X004927Y003649D02*
X005078Y003649D01*
X005189Y003892D02*
X006392Y003892D01*
X006269Y003940D02*
X005141Y003940D01*
X005092Y003989D02*
X006220Y003989D01*
X006179Y004037D02*
X005080Y004037D01*
X005080Y004086D02*
X006179Y004086D01*
X006179Y004134D02*
X005080Y004134D01*
X005080Y004183D02*
X006187Y004183D01*
X006236Y004231D02*
X005080Y004231D01*
X005352Y004668D02*
X005349Y004671D01*
X005696Y004852D02*
X005708Y004864D01*
X005721Y004887D01*
X005728Y004914D01*
X005728Y004985D01*
X005914Y004985D01*
X005940Y004992D01*
X005964Y005006D01*
X005983Y005025D01*
X005997Y005049D01*
X006004Y005075D01*
X006004Y005141D01*
X005728Y005141D01*
X005728Y005146D01*
X006004Y005146D01*
X006004Y005213D01*
X005997Y005239D01*
X005989Y005252D01*
X005997Y005265D01*
X006004Y005292D01*
X006004Y005358D01*
X005728Y005358D01*
X005728Y005363D01*
X006004Y005363D01*
X006004Y005429D01*
X005997Y005455D01*
X005983Y005479D01*
X005964Y005498D01*
X005940Y005512D01*
X005914Y005519D01*
X005728Y005519D01*
X005728Y005591D01*
X005721Y005617D01*
X005708Y005641D01*
X005688Y005660D01*
X005676Y005667D01*
X005676Y005849D01*
X005802Y005975D01*
X005802Y005761D01*
X006161Y005402D01*
X006843Y005402D01*
X007075Y005634D01*
X007075Y005717D01*
X007075Y005758D01*
X007075Y005687D01*
X007152Y005611D01*
X007211Y005552D01*
X007411Y005552D01*
X007261Y005402D01*
X006711Y005402D01*
X006652Y005343D01*
X006602Y005293D01*
X006602Y004852D01*
X005696Y004852D01*
X005706Y004862D02*
X006602Y004862D01*
X006602Y004910D02*
X005727Y004910D01*
X005728Y004959D02*
X006602Y004959D01*
X006602Y005007D02*
X005965Y005007D01*
X005999Y005056D02*
X006602Y005056D01*
X006602Y005104D02*
X006004Y005104D01*
X006004Y005153D02*
X006602Y005153D01*
X006602Y005201D02*
X006004Y005201D01*
X005991Y005250D02*
X006602Y005250D01*
X006607Y005298D02*
X006004Y005298D01*
X006004Y005347D02*
X006655Y005347D01*
X006704Y005395D02*
X006004Y005395D01*
X006000Y005444D02*
X006119Y005444D01*
X006071Y005492D02*
X005970Y005492D01*
X006022Y005541D02*
X005728Y005541D01*
X005728Y005589D02*
X005974Y005589D01*
X005925Y005638D02*
X005709Y005638D01*
X005676Y005686D02*
X005877Y005686D01*
X005828Y005735D02*
X005676Y005735D01*
X005676Y005783D02*
X005802Y005783D01*
X005802Y005832D02*
X005676Y005832D01*
X005707Y005880D02*
X005802Y005880D01*
X005802Y005929D02*
X005755Y005929D01*
X005902Y006052D02*
X005902Y005802D01*
X006202Y005502D01*
X006802Y005502D01*
X006975Y005675D01*
X006975Y006094D01*
X006775Y006094D02*
X006775Y005775D01*
X006652Y005652D01*
X006202Y005652D01*
X006002Y005852D01*
X006002Y006002D01*
X006152Y006152D01*
X006202Y006152D01*
X006252Y006202D01*
X006252Y007802D01*
X006052Y008002D01*
X005052Y008002D01*
X005349Y008257D02*
X006277Y008257D01*
X006277Y008305D02*
X005301Y008305D01*
X005252Y008354D02*
X006277Y008354D01*
X006277Y008402D02*
X005279Y008402D01*
X005277Y008400D02*
X005377Y008500D01*
X005377Y008527D01*
X006277Y008527D01*
X006277Y007918D01*
X006093Y008102D01*
X006011Y008102D01*
X005442Y008102D01*
X005442Y008164D01*
X005241Y008364D01*
X005277Y008400D01*
X005327Y008451D02*
X006277Y008451D01*
X006277Y008499D02*
X005376Y008499D01*
X005398Y008208D02*
X006277Y008208D01*
X006277Y008160D02*
X005442Y008160D01*
X005442Y008111D02*
X006277Y008111D01*
X006277Y008063D02*
X006133Y008063D01*
X006181Y008014D02*
X006277Y008014D01*
X006277Y007966D02*
X006230Y007966D01*
X005952Y007852D02*
X006152Y007652D01*
X006152Y006302D01*
X005902Y006052D01*
X006583Y006096D02*
X006583Y006472D01*
X006527Y006472D01*
X006527Y008527D01*
X007001Y008527D01*
X007127Y008400D01*
X007200Y008327D01*
X009118Y008327D01*
X009218Y008427D01*
X009982Y008427D01*
X010030Y008379D01*
X010174Y008379D01*
X010252Y008457D01*
X010252Y008443D01*
X009961Y008152D01*
X007411Y008152D01*
X007352Y008093D01*
X007302Y008043D01*
X007302Y006444D01*
X007279Y006444D01*
X007270Y006435D01*
X007261Y006444D01*
X007089Y006444D01*
X007075Y006430D01*
X007061Y006444D01*
X006889Y006444D01*
X006875Y006430D01*
X006861Y006444D01*
X006712Y006444D01*
X006704Y006452D01*
X006680Y006465D01*
X006654Y006472D01*
X006588Y006472D01*
X006588Y006096D01*
X006583Y006096D01*
X006583Y006123D02*
X006588Y006123D01*
X006583Y006171D02*
X006588Y006171D01*
X006583Y006220D02*
X006588Y006220D01*
X006583Y006268D02*
X006588Y006268D01*
X006583Y006317D02*
X006588Y006317D01*
X006583Y006365D02*
X006588Y006365D01*
X006583Y006414D02*
X006588Y006414D01*
X006583Y006462D02*
X006588Y006462D01*
X006527Y006511D02*
X007302Y006511D01*
X007302Y006559D02*
X006527Y006559D01*
X006527Y006608D02*
X007302Y006608D01*
X007302Y006656D02*
X006527Y006656D01*
X006527Y006705D02*
X007302Y006705D01*
X007302Y006753D02*
X006527Y006753D01*
X006527Y006802D02*
X007302Y006802D01*
X007302Y006850D02*
X006527Y006850D01*
X006527Y006899D02*
X007302Y006899D01*
X007302Y006947D02*
X006527Y006947D01*
X006527Y006996D02*
X007302Y006996D01*
X007302Y007044D02*
X006527Y007044D01*
X006527Y007093D02*
X007302Y007093D01*
X007302Y007141D02*
X006527Y007141D01*
X006527Y007190D02*
X007302Y007190D01*
X007302Y007238D02*
X006527Y007238D01*
X006527Y007287D02*
X007302Y007287D01*
X007302Y007335D02*
X006527Y007335D01*
X006527Y007384D02*
X007302Y007384D01*
X007302Y007432D02*
X006527Y007432D01*
X006527Y007481D02*
X007302Y007481D01*
X007302Y007529D02*
X006527Y007529D01*
X006527Y007578D02*
X007302Y007578D01*
X007302Y007626D02*
X006527Y007626D01*
X006527Y007675D02*
X007302Y007675D01*
X007302Y007723D02*
X006527Y007723D01*
X006527Y007772D02*
X007302Y007772D01*
X007302Y007820D02*
X006527Y007820D01*
X006527Y007869D02*
X007302Y007869D01*
X007302Y007917D02*
X006527Y007917D01*
X006527Y007966D02*
X007302Y007966D01*
X007302Y008014D02*
X006527Y008014D01*
X006527Y008063D02*
X007321Y008063D01*
X007352Y008093D02*
X007352Y008093D01*
X007370Y008111D02*
X006527Y008111D01*
X006527Y008160D02*
X009968Y008160D01*
X010017Y008208D02*
X006527Y008208D01*
X006527Y008257D02*
X010065Y008257D01*
X010114Y008305D02*
X006527Y008305D01*
X006527Y008354D02*
X007174Y008354D01*
X007125Y008402D02*
X006527Y008402D01*
X006527Y008451D02*
X007077Y008451D01*
X007028Y008499D02*
X006527Y008499D01*
X007102Y008802D02*
X007102Y009202D01*
X007052Y009252D01*
X005252Y009252D01*
X005191Y009552D02*
X005498Y009859D01*
X005498Y010122D01*
X005174Y010122D01*
X005174Y010172D01*
X005498Y010172D01*
X005498Y010434D01*
X005092Y010841D01*
X004829Y010841D01*
X004829Y010517D01*
X004779Y010517D01*
X004779Y010841D01*
X004516Y010841D01*
X004110Y010434D01*
X004110Y010172D01*
X004434Y010172D01*
X004434Y010122D01*
X004110Y010122D01*
X004110Y009859D01*
X004417Y009552D01*
X003927Y009552D01*
X003927Y011005D01*
X004424Y011005D01*
X004468Y011049D01*
X004468Y011127D01*
X005150Y011127D01*
X006379Y009898D01*
X006453Y009825D01*
X007253Y009825D01*
X007377Y009700D01*
X007450Y009627D01*
X007535Y009627D01*
X007535Y009563D01*
X007951Y009563D01*
X007951Y009550D01*
X007535Y009550D01*
X007535Y009511D01*
X007352Y009693D01*
X007293Y009752D01*
X006597Y009752D01*
X006574Y009775D01*
X006430Y009775D01*
X006329Y009674D01*
X006329Y009571D01*
X006274Y009625D01*
X006130Y009625D01*
X006057Y009552D01*
X005191Y009552D01*
X005205Y009566D02*
X006071Y009566D01*
X006119Y009615D02*
X005254Y009615D01*
X005302Y009663D02*
X006329Y009663D01*
X006329Y009615D02*
X006285Y009615D01*
X006366Y009712D02*
X005351Y009712D01*
X005399Y009760D02*
X006415Y009760D01*
X006420Y009857D02*
X005496Y009857D01*
X005498Y009906D02*
X006372Y009906D01*
X006323Y009954D02*
X005498Y009954D01*
X005498Y010003D02*
X006275Y010003D01*
X006226Y010051D02*
X005498Y010051D01*
X005498Y010100D02*
X006178Y010100D01*
X006129Y010148D02*
X005174Y010148D01*
X005498Y010197D02*
X006081Y010197D01*
X006032Y010245D02*
X005498Y010245D01*
X005498Y010294D02*
X005984Y010294D01*
X005935Y010342D02*
X005498Y010342D01*
X005498Y010391D02*
X005887Y010391D01*
X005838Y010439D02*
X005493Y010439D01*
X005445Y010488D02*
X005790Y010488D01*
X005741Y010536D02*
X005396Y010536D01*
X005348Y010585D02*
X005693Y010585D01*
X005644Y010633D02*
X005299Y010633D01*
X005251Y010682D02*
X005596Y010682D01*
X005547Y010730D02*
X005202Y010730D01*
X005154Y010779D02*
X005499Y010779D01*
X005450Y010827D02*
X005105Y010827D01*
X005256Y011021D02*
X004439Y011021D01*
X004468Y011070D02*
X005208Y011070D01*
X005159Y011118D02*
X004468Y011118D01*
X004503Y010827D02*
X003927Y010827D01*
X003927Y010779D02*
X004454Y010779D01*
X004406Y010730D02*
X003927Y010730D01*
X003927Y010682D02*
X004357Y010682D01*
X004309Y010633D02*
X003927Y010633D01*
X003927Y010585D02*
X004260Y010585D01*
X004212Y010536D02*
X003927Y010536D01*
X003927Y010488D02*
X004163Y010488D01*
X004115Y010439D02*
X003927Y010439D01*
X003927Y010391D02*
X004110Y010391D01*
X004110Y010342D02*
X003927Y010342D01*
X003927Y010294D02*
X004110Y010294D01*
X004110Y010245D02*
X003927Y010245D01*
X003927Y010197D02*
X004110Y010197D01*
X004110Y010100D02*
X003927Y010100D01*
X003927Y010148D02*
X004434Y010148D01*
X004110Y010051D02*
X003927Y010051D01*
X003927Y010003D02*
X004110Y010003D01*
X004110Y009954D02*
X003927Y009954D01*
X003927Y009906D02*
X004110Y009906D01*
X004112Y009857D02*
X003927Y009857D01*
X003927Y009809D02*
X004160Y009809D01*
X004209Y009760D02*
X003927Y009760D01*
X003927Y009712D02*
X004257Y009712D01*
X004306Y009663D02*
X003927Y009663D01*
X003927Y009615D02*
X004354Y009615D01*
X004403Y009566D02*
X003927Y009566D01*
X003802Y009452D02*
X006202Y009452D01*
X006502Y009602D02*
X006552Y009602D01*
X006602Y009652D01*
X007252Y009652D01*
X007552Y009352D01*
X007950Y009352D01*
X007958Y009359D01*
X007958Y009162D02*
X007947Y009152D01*
X007602Y009152D01*
X007352Y009402D01*
X007152Y009402D01*
X007102Y009452D01*
X007302Y009202D02*
X007352Y009202D01*
X007602Y008952D01*
X007944Y008952D01*
X007958Y008965D01*
X007958Y008769D02*
X007941Y008752D01*
X007502Y008752D01*
X007302Y008952D01*
X007102Y008802D02*
X007202Y008702D01*
X007302Y008702D01*
X007302Y008152D02*
X007202Y008052D01*
X007302Y008152D02*
X009802Y008152D01*
X010007Y008402D02*
X009193Y008402D01*
X009145Y008354D02*
X010162Y008354D01*
X010197Y008402D02*
X010211Y008402D01*
X010246Y008451D02*
X010252Y008451D01*
X010552Y008451D02*
X013713Y008451D01*
X013713Y008499D02*
X010552Y008499D01*
X010552Y008548D02*
X013713Y008548D01*
X013713Y008596D02*
X010552Y008596D01*
X010547Y008305D02*
X012070Y008305D01*
X012056Y008257D02*
X010498Y008257D01*
X010450Y008208D02*
X012056Y008208D01*
X012056Y008160D02*
X010490Y008160D01*
X010538Y008111D02*
X011116Y008111D01*
X011067Y008063D02*
X010575Y008063D01*
X010575Y008014D02*
X010773Y008014D01*
X010724Y007966D02*
X010575Y007966D01*
X010562Y007917D02*
X010702Y007917D01*
X010702Y007869D02*
X010514Y007869D01*
X010452Y007820D02*
X010702Y007820D01*
X010702Y007772D02*
X010452Y007772D01*
X010452Y007723D02*
X010702Y007723D01*
X010702Y007675D02*
X010452Y007675D01*
X010452Y007626D02*
X010702Y007626D01*
X010702Y007578D02*
X010452Y007578D01*
X010452Y007529D02*
X010458Y007529D01*
X010554Y007529D02*
X010583Y007529D01*
X010583Y007481D02*
X010554Y007481D01*
X010554Y007432D02*
X010583Y007432D01*
X010583Y007384D02*
X010554Y007384D01*
X010554Y007335D02*
X010583Y007335D01*
X010583Y007287D02*
X010554Y007287D01*
X010554Y007238D02*
X010583Y007238D01*
X010583Y007141D02*
X010554Y007141D01*
X010554Y007093D02*
X010583Y007093D01*
X010583Y007044D02*
X010554Y007044D01*
X010554Y006996D02*
X010583Y006996D01*
X010583Y006947D02*
X010554Y006947D01*
X010554Y006899D02*
X010583Y006899D01*
X010252Y006899D02*
X007852Y006899D01*
X007852Y006947D02*
X010252Y006947D01*
X010252Y006996D02*
X007852Y006996D01*
X007852Y007044D02*
X010252Y007044D01*
X010252Y007093D02*
X007852Y007093D01*
X007852Y007141D02*
X010252Y007141D01*
X010252Y007190D02*
X007852Y007190D01*
X007852Y007238D02*
X010252Y007238D01*
X010252Y007287D02*
X007852Y007287D01*
X007852Y007335D02*
X010252Y007335D01*
X010252Y007384D02*
X007852Y007384D01*
X007852Y007432D02*
X010252Y007432D01*
X010252Y007869D02*
X010110Y007869D01*
X010159Y007917D02*
X010242Y007917D01*
X010229Y007966D02*
X010207Y007966D01*
X010352Y007952D02*
X010402Y008002D01*
X010352Y007952D02*
X010352Y004752D01*
X010154Y004765D02*
X010149Y004765D01*
X010149Y004813D02*
X010154Y004813D01*
X010149Y004862D02*
X010154Y004862D01*
X010149Y004910D02*
X010154Y004910D01*
X010252Y004959D02*
X009364Y004959D01*
X009364Y004927D02*
X009364Y005190D01*
X008958Y005597D01*
X008695Y005597D01*
X008695Y005273D01*
X008645Y005273D01*
X008645Y005597D01*
X008383Y005597D01*
X007976Y005190D01*
X007976Y004927D01*
X008300Y004927D01*
X008300Y004877D01*
X007976Y004877D01*
X007976Y004615D01*
X008383Y004208D01*
X008645Y004208D01*
X008645Y004532D01*
X008695Y004532D01*
X008695Y004208D01*
X008958Y004208D01*
X009364Y004615D01*
X009364Y004877D01*
X009040Y004877D01*
X009040Y004927D01*
X009364Y004927D01*
X009364Y004862D02*
X009996Y004862D01*
X009993Y004813D02*
X009364Y004813D01*
X009364Y004765D02*
X009993Y004765D01*
X009993Y004716D02*
X009364Y004716D01*
X009364Y004668D02*
X009425Y004668D01*
X009392Y004619D02*
X009364Y004619D01*
X009386Y004571D02*
X009320Y004571D01*
X009272Y004522D02*
X009386Y004522D01*
X009386Y004474D02*
X009223Y004474D01*
X009175Y004425D02*
X009386Y004425D01*
X009386Y004377D02*
X009126Y004377D01*
X009078Y004328D02*
X009590Y004328D01*
X009590Y004280D02*
X009640Y004280D01*
X009640Y004231D02*
X009590Y004231D01*
X009590Y004183D02*
X009640Y004183D01*
X009640Y004134D02*
X009590Y004134D01*
X009590Y004086D02*
X009640Y004086D01*
X009640Y004037D02*
X009590Y004037D01*
X009590Y003989D02*
X009640Y003989D01*
X009779Y003989D02*
X009902Y003989D01*
X009902Y003940D02*
X007685Y003940D01*
X007734Y003989D02*
X009451Y003989D01*
X009398Y004037D02*
X007775Y004037D01*
X007775Y004086D02*
X009386Y004086D01*
X009386Y004134D02*
X007775Y004134D01*
X007767Y004183D02*
X009386Y004183D01*
X009386Y004231D02*
X008981Y004231D01*
X009029Y004280D02*
X009386Y004280D01*
X009590Y004377D02*
X009640Y004377D01*
X009640Y004425D02*
X009590Y004425D01*
X009590Y004474D02*
X009640Y004474D01*
X009640Y004522D02*
X009590Y004522D01*
X009590Y004571D02*
X009640Y004571D01*
X009640Y004619D02*
X009590Y004619D01*
X009590Y004668D02*
X009640Y004668D01*
X009805Y004668D02*
X009993Y004668D01*
X010023Y004910D02*
X009040Y004910D01*
X009353Y005201D02*
X010252Y005201D01*
X010252Y005153D02*
X009364Y005153D01*
X009364Y005104D02*
X010252Y005104D01*
X010252Y005056D02*
X009364Y005056D01*
X009364Y005007D02*
X010252Y005007D01*
X010252Y005250D02*
X009305Y005250D01*
X009256Y005298D02*
X010252Y005298D01*
X010252Y005347D02*
X009208Y005347D01*
X009159Y005395D02*
X010252Y005395D01*
X010252Y005444D02*
X009111Y005444D01*
X009062Y005492D02*
X010252Y005492D01*
X010252Y005541D02*
X009014Y005541D01*
X008965Y005589D02*
X010252Y005589D01*
X010252Y005638D02*
X007852Y005638D01*
X007852Y005686D02*
X010252Y005686D01*
X010252Y005735D02*
X007852Y005735D01*
X007852Y005783D02*
X010252Y005783D01*
X010252Y005832D02*
X007852Y005832D01*
X007852Y005880D02*
X010252Y005880D01*
X010252Y005929D02*
X007852Y005929D01*
X007852Y005977D02*
X010252Y005977D01*
X010252Y006026D02*
X007852Y006026D01*
X007852Y006074D02*
X010252Y006074D01*
X010252Y006123D02*
X007852Y006123D01*
X007852Y006171D02*
X010252Y006171D01*
X010252Y006220D02*
X007852Y006220D01*
X007852Y006268D02*
X010252Y006268D01*
X010252Y006317D02*
X007852Y006317D01*
X007852Y006365D02*
X010252Y006365D01*
X010252Y006414D02*
X007852Y006414D01*
X007852Y006462D02*
X010252Y006462D01*
X010252Y006511D02*
X007852Y006511D01*
X007852Y006559D02*
X010252Y006559D01*
X010252Y006608D02*
X007852Y006608D01*
X007852Y006656D02*
X010252Y006656D01*
X010252Y006705D02*
X007852Y006705D01*
X007852Y006753D02*
X010252Y006753D01*
X010252Y006802D02*
X007852Y006802D01*
X007852Y006850D02*
X010252Y006850D01*
X010452Y006365D02*
X012627Y006365D01*
X012627Y006317D02*
X010452Y006317D01*
X010452Y006268D02*
X012627Y006268D01*
X012627Y006220D02*
X010452Y006220D01*
X010452Y006171D02*
X012627Y006171D01*
X012627Y006123D02*
X010452Y006123D01*
X010950Y006899D02*
X010954Y006899D01*
X011206Y006899D02*
X011210Y006899D01*
X011080Y007194D02*
X011102Y007216D01*
X011102Y007552D01*
X011202Y007652D01*
X011324Y007529D02*
X011902Y007529D01*
X011902Y007481D02*
X011470Y007481D01*
X011490Y007432D02*
X011902Y007432D01*
X011902Y007384D02*
X011490Y007384D01*
X011490Y007335D02*
X011902Y007335D01*
X012102Y007481D02*
X013713Y007481D01*
X013713Y007529D02*
X012102Y007529D01*
X011902Y007578D02*
X011373Y007578D01*
X011375Y007626D02*
X011902Y007626D01*
X011902Y007675D02*
X011375Y007675D01*
X011375Y007723D02*
X011902Y007723D01*
X011912Y007772D02*
X011328Y007772D01*
X011315Y007820D02*
X011961Y007820D01*
X012009Y007869D02*
X011364Y007869D01*
X011375Y007917D02*
X012056Y007917D01*
X012056Y007966D02*
X011375Y007966D01*
X011375Y008014D02*
X012056Y008014D01*
X012056Y008063D02*
X011337Y008063D01*
X011288Y008111D02*
X012056Y008111D01*
X012672Y007432D02*
X012732Y007432D01*
X012725Y007384D02*
X012679Y007384D01*
X012679Y007335D02*
X012725Y007335D01*
X012725Y007287D02*
X012679Y007287D01*
X012679Y007238D02*
X012725Y007238D01*
X012725Y007190D02*
X012679Y007190D01*
X012679Y007141D02*
X012725Y007141D01*
X012725Y007093D02*
X012679Y007093D01*
X012679Y007044D02*
X012725Y007044D01*
X012725Y006996D02*
X012679Y006996D01*
X012679Y006947D02*
X012725Y006947D01*
X012725Y006899D02*
X012679Y006899D01*
X012679Y006850D02*
X012725Y006850D01*
X012736Y006802D02*
X012668Y006802D01*
X012952Y006502D02*
X012952Y006502D01*
X013348Y007190D02*
X013713Y007190D01*
X013713Y007238D02*
X013348Y007238D01*
X013348Y007287D02*
X013713Y007287D01*
X013713Y007335D02*
X013348Y007335D01*
X013348Y007384D02*
X013713Y007384D01*
X013713Y007432D02*
X013342Y007432D01*
X013371Y007675D02*
X013713Y007675D01*
X013713Y007723D02*
X013377Y007723D01*
X013377Y007772D02*
X013713Y007772D01*
X013713Y007820D02*
X013377Y007820D01*
X013377Y007869D02*
X013713Y007869D01*
X013713Y007917D02*
X013377Y007917D01*
X013062Y008354D02*
X013012Y008354D01*
X011202Y007952D02*
X010852Y007952D01*
X010802Y007902D01*
X010802Y007216D01*
X010824Y007194D01*
X010702Y007529D02*
X010678Y007529D01*
X009977Y008677D02*
X009777Y008677D01*
X009777Y008831D01*
X009785Y008839D01*
X009798Y008862D01*
X009805Y008889D01*
X009805Y008959D01*
X009389Y008959D01*
X009389Y008972D01*
X009805Y008972D01*
X009805Y009042D01*
X009798Y009068D01*
X009785Y009092D01*
X009784Y009093D01*
X010002Y009311D01*
X010002Y009097D01*
X009929Y009024D01*
X009929Y008880D01*
X009977Y008832D01*
X009977Y008677D01*
X009977Y008693D02*
X009777Y008693D01*
X009777Y008742D02*
X009977Y008742D01*
X009977Y008790D02*
X009777Y008790D01*
X009785Y008839D02*
X009970Y008839D01*
X009929Y008887D02*
X009805Y008887D01*
X009805Y008936D02*
X009929Y008936D01*
X009929Y008984D02*
X009805Y008984D01*
X009805Y009033D02*
X009937Y009033D01*
X009986Y009081D02*
X009791Y009081D01*
X009821Y009130D02*
X010002Y009130D01*
X010002Y009178D02*
X009870Y009178D01*
X009918Y009227D02*
X010002Y009227D01*
X010002Y009275D02*
X009967Y009275D01*
X010102Y009352D02*
X010102Y008952D01*
X010102Y009352D02*
X010352Y009602D01*
X009952Y009602D02*
X009952Y009802D01*
X010102Y009952D01*
X010152Y010002D01*
X010052Y010302D02*
X010052Y010602D01*
X010252Y010802D01*
X010375Y010924D02*
X011402Y010924D01*
X011402Y010876D02*
X010424Y010876D01*
X010425Y010874D02*
X010324Y010975D01*
X010180Y010975D01*
X010152Y010947D01*
X010152Y011029D01*
X010224Y011029D01*
X010325Y011130D01*
X010325Y011274D01*
X010325Y011264D02*
X010468Y011264D01*
X010420Y011215D02*
X010325Y011215D01*
X010325Y011167D02*
X010379Y011167D01*
X010379Y011118D02*
X010313Y011118D01*
X010265Y011070D02*
X010379Y011070D01*
X010388Y011021D02*
X010152Y011021D01*
X010152Y010973D02*
X010177Y010973D01*
X010052Y010952D02*
X009952Y010852D01*
X009952Y010352D01*
X009747Y010147D01*
X009383Y010147D01*
X009383Y010343D02*
X009793Y010343D01*
X009852Y010402D01*
X009852Y011052D01*
X009952Y011052D01*
X009952Y012102D01*
X010002Y012152D01*
X010202Y012152D01*
X010502Y012152D01*
X010386Y012282D02*
X010317Y012282D01*
X010087Y012282D02*
X007024Y012282D01*
X007072Y012331D02*
X007347Y012331D01*
X007353Y012324D02*
X007377Y012310D01*
X007403Y012303D01*
X007690Y012303D01*
X007690Y012460D01*
X007313Y012460D01*
X007313Y012393D01*
X007320Y012367D01*
X007334Y012343D01*
X007353Y012324D01*
X007317Y012379D02*
X007121Y012379D01*
X007169Y012428D02*
X007313Y012428D01*
X007313Y012476D02*
X007218Y012476D01*
X007266Y012525D02*
X007313Y012525D01*
X007315Y012573D02*
X007330Y012573D01*
X007302Y012702D02*
X006802Y012202D01*
X006802Y012152D01*
X006935Y012040D02*
X008344Y012040D01*
X008296Y011991D02*
X006886Y011991D01*
X006975Y012088D02*
X009852Y012088D01*
X009852Y012040D02*
X008560Y012040D01*
X008608Y011991D02*
X009852Y011991D01*
X009852Y011943D02*
X008625Y011943D01*
X008625Y011894D02*
X009852Y011894D01*
X009852Y011846D02*
X008625Y011846D01*
X008592Y011797D02*
X009852Y011797D01*
X009852Y011749D02*
X008544Y011749D01*
X008402Y011852D02*
X008452Y011902D01*
X008402Y011852D02*
X007552Y011852D01*
X006902Y011202D01*
X006902Y010502D01*
X006952Y010452D01*
X007452Y010452D01*
X007561Y010343D01*
X007958Y010343D01*
X007952Y010152D02*
X007958Y010147D01*
X007952Y010152D02*
X007602Y010152D01*
X007411Y010343D01*
X006861Y010343D01*
X006802Y010402D01*
X006802Y011352D01*
X006942Y011458D02*
X007016Y011458D01*
X007065Y011506D02*
X006893Y011506D01*
X006711Y011506D02*
X006691Y011506D01*
X007008Y011167D02*
X008021Y011167D01*
X007973Y011118D02*
X007002Y011118D01*
X007002Y011070D02*
X007929Y011070D01*
X007929Y011021D02*
X007002Y011021D01*
X007002Y010973D02*
X007929Y010973D01*
X007935Y010924D02*
X007002Y010924D01*
X007002Y010876D02*
X007983Y010876D01*
X008002Y010827D02*
X007002Y010827D01*
X007002Y010779D02*
X008002Y010779D01*
X008002Y010730D02*
X007002Y010730D01*
X007002Y010682D02*
X007958Y010682D01*
X007958Y010540D02*
X008102Y010685D01*
X008102Y011002D01*
X008183Y011167D02*
X008221Y011167D01*
X008270Y011215D02*
X007057Y011215D01*
X007105Y011264D02*
X009852Y011264D01*
X009852Y011312D02*
X007154Y011312D01*
X007202Y011361D02*
X009852Y011361D01*
X009852Y011409D02*
X007251Y011409D01*
X007299Y011458D02*
X009852Y011458D01*
X009852Y011506D02*
X007348Y011506D01*
X007396Y011555D02*
X009852Y011555D01*
X009852Y011603D02*
X007445Y011603D01*
X007493Y011652D02*
X009852Y011652D01*
X009852Y011700D02*
X007542Y011700D01*
X007590Y011749D02*
X008360Y011749D01*
X008434Y011215D02*
X009570Y011215D01*
X009521Y011167D02*
X008483Y011167D01*
X008352Y011052D02*
X008921Y011052D01*
X009383Y010540D01*
X009390Y010682D02*
X009752Y010682D01*
X009752Y010730D02*
X009346Y010730D01*
X009302Y010779D02*
X009752Y010779D01*
X009752Y010827D02*
X009259Y010827D01*
X009215Y010876D02*
X009752Y010876D01*
X009652Y011052D02*
X009852Y011052D01*
X009852Y011167D02*
X009783Y011167D01*
X009734Y011215D02*
X009852Y011215D01*
X010052Y011202D02*
X010052Y010952D01*
X010052Y011202D02*
X010152Y011202D01*
X010052Y011202D02*
X010052Y011652D01*
X010252Y011852D01*
X010502Y011852D01*
X010596Y011700D02*
X010609Y011700D01*
X010702Y011852D02*
X010952Y011852D01*
X011125Y011846D02*
X011202Y011846D01*
X011202Y011894D02*
X011125Y011894D01*
X011107Y011943D02*
X011202Y011943D01*
X011202Y011991D02*
X011058Y011991D01*
X011202Y012040D02*
X010833Y012040D01*
X010833Y012088D02*
X011202Y012088D01*
X011202Y012137D02*
X010833Y012137D01*
X010833Y012185D02*
X011202Y012185D01*
X011202Y012234D02*
X010833Y012234D01*
X010818Y012282D02*
X011202Y012282D01*
X011202Y012331D02*
X010802Y012331D01*
X010802Y012379D02*
X011202Y012379D01*
X011202Y012428D02*
X010802Y012428D01*
X010802Y012476D02*
X011202Y012476D01*
X011202Y012525D02*
X010802Y012525D01*
X010802Y012573D02*
X011202Y012573D01*
X011202Y012622D02*
X010802Y012622D01*
X010802Y012670D02*
X011202Y012670D01*
X011202Y012719D02*
X010802Y012719D01*
X010802Y012767D02*
X011202Y012767D01*
X011202Y012816D02*
X010802Y012816D01*
X010781Y012864D02*
X011202Y012864D01*
X011202Y012913D02*
X010733Y012913D01*
X010652Y012852D02*
X009852Y012852D01*
X009852Y013242D01*
X009412Y013242D01*
X009410Y013055D02*
X009410Y013050D01*
X009033Y013050D01*
X009033Y012983D01*
X009040Y012957D01*
X009054Y012933D01*
X009062Y012925D01*
X009062Y012766D01*
X009076Y012752D01*
X008975Y012752D01*
X008975Y012774D01*
X008874Y012875D01*
X008852Y012875D01*
X008852Y013211D01*
X008943Y013302D01*
X009062Y013302D01*
X009062Y013179D01*
X009054Y013171D01*
X009040Y013147D01*
X009033Y013121D01*
X009033Y013055D01*
X009410Y013055D01*
X009412Y012852D02*
X009852Y012852D01*
X009952Y012961D02*
X011202Y012961D01*
X011202Y013010D02*
X009952Y013010D01*
X009952Y013058D02*
X011202Y013058D01*
X011202Y013107D02*
X009962Y013107D01*
X010010Y013155D02*
X010058Y013155D01*
X010102Y013252D02*
X009902Y013452D01*
X009752Y013452D01*
X009702Y013402D01*
X008902Y013402D01*
X008752Y013252D01*
X008752Y012752D01*
X008802Y012702D01*
X008852Y012652D01*
X009412Y012652D01*
X009412Y012462D02*
X008952Y012462D01*
X008692Y012462D01*
X008602Y012552D01*
X008602Y013252D01*
X008852Y013502D01*
X009652Y013502D01*
X009702Y013552D01*
X010005Y013640D02*
X010752Y013640D01*
X010752Y013592D02*
X010054Y013592D01*
X010102Y013543D02*
X010752Y013543D01*
X010752Y013495D02*
X010151Y013495D01*
X010102Y013252D02*
X010852Y013252D01*
X011052Y013452D01*
X011194Y013349D02*
X011202Y013349D01*
X011202Y013301D02*
X011146Y013301D01*
X011202Y013252D02*
X010994Y013252D01*
X010952Y013211D02*
X010952Y013211D01*
X010945Y013204D02*
X011202Y013204D01*
X011202Y013155D02*
X010897Y013155D01*
X010652Y012852D02*
X010702Y012802D01*
X010702Y012152D01*
X010702Y012152D01*
X010702Y012152D01*
X010702Y011852D01*
X010809Y011991D02*
X010846Y011991D01*
X010859Y011700D02*
X010796Y011700D01*
X010842Y011458D02*
X011016Y011458D01*
X011065Y011506D02*
X010152Y011506D01*
X010152Y011458D02*
X010662Y011458D01*
X010614Y011409D02*
X010152Y011409D01*
X010239Y011361D02*
X010579Y011361D01*
X010552Y011102D02*
X010952Y011102D01*
X011402Y011552D01*
X011402Y013452D01*
X011552Y013452D01*
X011402Y013452D02*
X011402Y014552D01*
X011583Y014733D01*
X011858Y014733D01*
X012055Y014733D02*
X012055Y014949D01*
X012002Y015002D01*
X011702Y015002D01*
X011302Y014602D01*
X011302Y013702D01*
X011202Y013834D02*
X009080Y013834D01*
X009128Y013883D02*
X011202Y013883D01*
X011202Y013931D02*
X009177Y013931D01*
X009225Y013980D02*
X009432Y013980D01*
X009384Y014028D02*
X009274Y014028D01*
X009322Y014077D02*
X009335Y014077D01*
X009031Y013786D02*
X010844Y013786D01*
X010670Y014028D02*
X011202Y014028D01*
X011202Y013980D02*
X009872Y013980D01*
X009920Y014028D02*
X010234Y014028D01*
X010185Y014077D02*
X009969Y014077D01*
X010017Y014125D02*
X010137Y014125D01*
X010088Y014174D02*
X010066Y014174D01*
X010427Y014174D02*
X010477Y014174D01*
X010477Y014222D02*
X010427Y014222D01*
X010427Y014271D02*
X010477Y014271D01*
X010477Y014319D02*
X010427Y014319D01*
X010427Y014368D02*
X010477Y014368D01*
X010477Y014416D02*
X011202Y014416D01*
X011202Y014368D02*
X010871Y014368D01*
X010871Y014319D02*
X011202Y014319D01*
X011202Y014271D02*
X010871Y014271D01*
X010864Y014222D02*
X011202Y014222D01*
X011202Y014174D02*
X010816Y014174D01*
X010767Y014125D02*
X011202Y014125D01*
X011202Y014077D02*
X010719Y014077D01*
X010477Y014077D02*
X010427Y014077D01*
X010427Y014125D02*
X010477Y014125D01*
X010477Y014028D02*
X010427Y014028D01*
X010477Y014427D02*
X010871Y014427D01*
X010871Y014576D01*
X010626Y014821D01*
X010477Y014821D01*
X010477Y014427D01*
X010477Y014465D02*
X010427Y014465D01*
X010427Y014513D02*
X010477Y014513D01*
X010477Y014562D02*
X010427Y014562D01*
X010427Y014610D02*
X010477Y014610D01*
X010477Y014659D02*
X010427Y014659D01*
X010427Y014707D02*
X010477Y014707D01*
X010477Y014756D02*
X010427Y014756D01*
X010427Y014804D02*
X010477Y014804D01*
X010642Y014804D02*
X011363Y014804D01*
X011411Y014853D02*
X009206Y014853D01*
X009157Y014901D02*
X011460Y014901D01*
X011508Y014950D02*
X009109Y014950D01*
X009060Y014998D02*
X011557Y014998D01*
X011605Y015047D02*
X009012Y015047D01*
X008963Y015095D02*
X011654Y015095D01*
X012050Y015095D02*
X012978Y015095D01*
X013026Y015047D02*
X012099Y015047D01*
X012147Y014998D02*
X012186Y014998D01*
X012250Y014998D02*
X012255Y014998D01*
X012250Y014950D02*
X012255Y014950D01*
X012250Y014901D02*
X012255Y014901D01*
X012250Y014853D02*
X012255Y014853D01*
X012250Y014804D02*
X012255Y014804D01*
X012250Y014756D02*
X012255Y014756D01*
X012255Y014730D02*
X012255Y014462D01*
X012277Y014462D01*
X012277Y014419D01*
X012255Y014419D01*
X012255Y014263D01*
X012250Y014263D01*
X012250Y014419D01*
X012227Y014419D01*
X012227Y014462D01*
X012250Y014462D01*
X012250Y014730D01*
X012255Y014730D01*
X012250Y014707D02*
X012255Y014707D01*
X012250Y014659D02*
X012255Y014659D01*
X012250Y014610D02*
X012255Y014610D01*
X012250Y014562D02*
X012255Y014562D01*
X012250Y014513D02*
X012255Y014513D01*
X012250Y014465D02*
X012255Y014465D01*
X012250Y014416D02*
X012255Y014416D01*
X012250Y014368D02*
X012255Y014368D01*
X012250Y014319D02*
X012255Y014319D01*
X012250Y014271D02*
X012255Y014271D01*
X012255Y014258D02*
X012255Y014177D01*
X012250Y014177D01*
X012250Y014258D01*
X012255Y014258D01*
X012250Y014222D02*
X012255Y014222D01*
X012255Y014127D02*
X012255Y014101D01*
X012255Y014046D01*
X012250Y014046D01*
X012250Y014127D01*
X012255Y014127D01*
X012255Y014125D02*
X012250Y014125D01*
X012250Y014077D02*
X012255Y014077D01*
X012255Y014041D02*
X012255Y013885D01*
X012277Y013885D01*
X012277Y013814D01*
X012227Y013814D01*
X012227Y013885D01*
X012250Y013885D01*
X012250Y014041D01*
X012255Y014041D01*
X012250Y014028D02*
X012255Y014028D01*
X012250Y013980D02*
X012255Y013980D01*
X012250Y013931D02*
X012255Y013931D01*
X012277Y013883D02*
X012227Y013883D01*
X012227Y013834D02*
X012277Y013834D01*
X012643Y013543D02*
X012648Y013543D01*
X012643Y013495D02*
X012648Y013495D01*
X012643Y013446D02*
X012648Y013446D01*
X012643Y013398D02*
X012648Y013398D01*
X012643Y013349D02*
X012648Y013349D01*
X012643Y013301D02*
X012648Y013301D01*
X012692Y013301D02*
X013713Y013301D01*
X013713Y013349D02*
X012777Y013349D01*
X012800Y013398D02*
X013713Y013398D01*
X013713Y013446D02*
X012805Y013446D01*
X012805Y013495D02*
X013713Y013495D01*
X013713Y013543D02*
X012805Y013543D01*
X012805Y013592D02*
X013713Y013592D01*
X013713Y013640D02*
X012805Y013640D01*
X012805Y013689D02*
X013713Y013689D01*
X013713Y013737D02*
X012802Y013737D01*
X012820Y013786D02*
X013713Y013786D01*
X013713Y013834D02*
X012828Y013834D01*
X012828Y013883D02*
X013713Y013883D01*
X013713Y013931D02*
X013087Y013931D01*
X013104Y013980D02*
X013713Y013980D01*
X013713Y014028D02*
X013104Y014028D01*
X013104Y014077D02*
X013713Y014077D01*
X013713Y014125D02*
X013100Y014125D01*
X013099Y014174D02*
X013713Y014174D01*
X013713Y014222D02*
X013104Y014222D01*
X013104Y014271D02*
X013713Y014271D01*
X013713Y014319D02*
X013104Y014319D01*
X013090Y014368D02*
X013705Y014368D01*
X013657Y014416D02*
X013025Y014416D01*
X012828Y014465D02*
X013608Y014465D01*
X013560Y014513D02*
X012822Y014513D01*
X012785Y014562D02*
X013511Y014562D01*
X013463Y014610D02*
X012776Y014610D01*
X012776Y014659D02*
X013414Y014659D01*
X013366Y014707D02*
X012776Y014707D01*
X012776Y014756D02*
X013317Y014756D01*
X013269Y014804D02*
X012776Y014804D01*
X012776Y014853D02*
X013220Y014853D01*
X013172Y014901D02*
X012776Y014901D01*
X012741Y014950D02*
X013123Y014950D01*
X013075Y014998D02*
X012515Y014998D01*
X012451Y014998D02*
X012446Y014998D01*
X012446Y014950D02*
X012451Y014950D01*
X012446Y014901D02*
X012451Y014901D01*
X012446Y014853D02*
X012451Y014853D01*
X012446Y014804D02*
X012451Y014804D01*
X012446Y014756D02*
X012451Y014756D01*
X012383Y014998D02*
X012318Y014998D01*
X011314Y014756D02*
X010691Y014756D01*
X010739Y014707D02*
X011266Y014707D01*
X011217Y014659D02*
X010788Y014659D01*
X010836Y014610D02*
X011202Y014610D01*
X011202Y014562D02*
X010871Y014562D01*
X010871Y014513D02*
X011202Y014513D01*
X011202Y014465D02*
X010871Y014465D01*
X010262Y014804D02*
X009254Y014804D01*
X009303Y014756D02*
X009463Y014756D01*
X009415Y014707D02*
X009351Y014707D01*
X009364Y014659D02*
X009366Y014659D01*
X009627Y014659D02*
X009677Y014659D01*
X009677Y014707D02*
X009627Y014707D01*
X009627Y014756D02*
X009677Y014756D01*
X009677Y014610D02*
X009627Y014610D01*
X009627Y014562D02*
X009677Y014562D01*
X009677Y014513D02*
X009627Y014513D01*
X009627Y014465D02*
X009677Y014465D01*
X009677Y014416D02*
X009627Y014416D01*
X009627Y014319D02*
X009677Y014319D01*
X009677Y014271D02*
X009627Y014271D01*
X009627Y014222D02*
X009677Y014222D01*
X009677Y014174D02*
X009627Y014174D01*
X009627Y014125D02*
X009677Y014125D01*
X009677Y014077D02*
X009627Y014077D01*
X009627Y014028D02*
X009677Y014028D01*
X009677Y013980D02*
X009627Y013980D01*
X009986Y014610D02*
X010068Y014610D01*
X010116Y014659D02*
X009938Y014659D01*
X009889Y014707D02*
X010165Y014707D01*
X010213Y014756D02*
X009841Y014756D01*
X008695Y014804D02*
X008645Y014804D01*
X008645Y014853D02*
X008695Y014853D01*
X008695Y014901D02*
X008645Y014901D01*
X008645Y014950D02*
X008695Y014950D01*
X008695Y014998D02*
X008645Y014998D01*
X008645Y015047D02*
X008695Y015047D01*
X008695Y015095D02*
X008645Y015095D01*
X007989Y014707D02*
X007849Y014707D01*
X007897Y014659D02*
X007976Y014659D01*
X007976Y014610D02*
X007946Y014610D01*
X007998Y013592D02*
X008800Y013592D01*
X008752Y013543D02*
X008502Y013293D01*
X008502Y013252D02*
X008042Y013252D01*
X008042Y013204D02*
X008058Y013204D01*
X008246Y013204D02*
X008502Y013204D01*
X008502Y013155D02*
X008294Y013155D01*
X008325Y013107D02*
X008502Y013107D01*
X008502Y013058D02*
X008325Y013058D01*
X008325Y013010D02*
X008502Y013010D01*
X008502Y012961D02*
X008306Y012961D01*
X008258Y012913D02*
X008502Y012913D01*
X008502Y012864D02*
X008042Y012864D01*
X008042Y012816D02*
X008070Y012816D01*
X008046Y012913D02*
X008042Y012913D01*
X008234Y012816D02*
X008502Y012816D01*
X008502Y012767D02*
X008282Y012767D01*
X008325Y012719D02*
X008502Y012719D01*
X008502Y012670D02*
X008325Y012670D01*
X008325Y012622D02*
X008502Y012622D01*
X008502Y012573D02*
X008318Y012573D01*
X008270Y012525D02*
X008502Y012525D01*
X008537Y012476D02*
X008071Y012476D01*
X008071Y012460D02*
X007695Y012460D01*
X007695Y012303D01*
X007981Y012303D01*
X008007Y012310D01*
X008031Y012324D01*
X008050Y012343D01*
X008064Y012367D01*
X008071Y012393D01*
X008071Y012460D01*
X008071Y012428D02*
X008585Y012428D01*
X008634Y012379D02*
X008067Y012379D01*
X008037Y012331D02*
X008838Y012331D01*
X009066Y012331D02*
X010602Y012331D01*
X010602Y012298D02*
X010602Y012298D01*
X010602Y012379D02*
X009762Y012379D01*
X009762Y012428D02*
X010602Y012428D01*
X010602Y012476D02*
X009762Y012476D01*
X009762Y012525D02*
X010602Y012525D01*
X010602Y012573D02*
X009762Y012573D01*
X009762Y012622D02*
X010602Y012622D01*
X010602Y012670D02*
X009762Y012670D01*
X009762Y012719D02*
X010602Y012719D01*
X009942Y012234D02*
X006975Y012234D01*
X006975Y012185D02*
X009894Y012185D01*
X009852Y012137D02*
X006975Y012137D01*
X006718Y011991D02*
X006650Y011991D01*
X007113Y011555D02*
X005493Y011555D01*
X005484Y011534D02*
X005521Y011623D01*
X005521Y011719D01*
X005484Y011808D01*
X005416Y011876D01*
X005327Y011913D01*
X005230Y011913D01*
X005141Y011876D01*
X005073Y011808D01*
X005036Y011719D01*
X005036Y011623D01*
X005073Y011534D01*
X005141Y011466D01*
X005230Y011429D01*
X005327Y011429D01*
X005416Y011466D01*
X005484Y011534D01*
X005456Y011506D02*
X006090Y011506D01*
X006089Y011458D02*
X005397Y011458D01*
X005270Y011361D02*
X006089Y011361D01*
X006089Y011409D02*
X004468Y011409D01*
X004468Y011458D02*
X005160Y011458D01*
X005101Y011506D02*
X004467Y011506D01*
X003927Y011555D02*
X005064Y011555D01*
X005044Y011603D02*
X003927Y011603D01*
X003927Y011652D02*
X005036Y011652D01*
X005036Y011700D02*
X003927Y011700D01*
X003927Y011749D02*
X005048Y011749D01*
X005068Y011797D02*
X003927Y011797D01*
X003927Y011846D02*
X005110Y011846D01*
X005184Y011894D02*
X003927Y011894D01*
X003927Y011943D02*
X007501Y011943D01*
X007453Y011894D02*
X005373Y011894D01*
X005446Y011846D02*
X007404Y011846D01*
X007356Y011797D02*
X005488Y011797D01*
X005509Y011749D02*
X007307Y011749D01*
X007259Y011700D02*
X005521Y011700D01*
X005521Y011652D02*
X007210Y011652D01*
X007162Y011603D02*
X005513Y011603D01*
X005319Y011312D02*
X006089Y011312D01*
X006089Y011264D02*
X005367Y011264D01*
X005416Y011215D02*
X006089Y011215D01*
X006089Y011167D02*
X005464Y011167D01*
X005513Y011118D02*
X006089Y011118D01*
X006089Y011070D02*
X005561Y011070D01*
X005610Y011021D02*
X006118Y011021D01*
X006277Y010973D02*
X005658Y010973D01*
X005707Y010924D02*
X006277Y010924D01*
X006277Y010876D02*
X005755Y010876D01*
X005804Y010827D02*
X006277Y010827D01*
X006277Y010779D02*
X005852Y010779D01*
X005901Y010730D02*
X006277Y010730D01*
X006277Y010682D02*
X005949Y010682D01*
X005998Y010633D02*
X006277Y010633D01*
X006277Y010585D02*
X006046Y010585D01*
X006095Y010536D02*
X006277Y010536D01*
X006277Y010488D02*
X006143Y010488D01*
X006192Y010439D02*
X006277Y010439D01*
X006277Y010391D02*
X006240Y010391D01*
X006589Y009760D02*
X007317Y009760D01*
X007334Y009712D02*
X007366Y009712D01*
X007377Y009700D02*
X007377Y009700D01*
X007382Y009663D02*
X007414Y009663D01*
X007431Y009615D02*
X007535Y009615D01*
X007535Y009566D02*
X007479Y009566D01*
X007528Y009518D02*
X007535Y009518D01*
X007269Y009809D02*
X005448Y009809D01*
X004726Y009352D02*
X004715Y009341D01*
X004715Y008964D01*
X004726Y008952D01*
X004715Y008941D01*
X004715Y008577D01*
X004617Y008577D01*
X004618Y008581D01*
X004618Y008727D01*
X004382Y008727D01*
X004382Y008777D01*
X004618Y008777D01*
X004618Y008923D01*
X004611Y008950D01*
X004610Y008952D01*
X004611Y008955D01*
X004618Y008981D01*
X004618Y009127D01*
X004382Y009127D01*
X004382Y009177D01*
X004618Y009177D01*
X004618Y009323D01*
X004611Y009350D01*
X004610Y009352D01*
X004726Y009352D01*
X004715Y009324D02*
X004618Y009324D01*
X004618Y009275D02*
X004715Y009275D01*
X004715Y009227D02*
X004618Y009227D01*
X004618Y009178D02*
X004715Y009178D01*
X004715Y009130D02*
X004382Y009130D01*
X004382Y009127D02*
X004382Y008891D01*
X004382Y008777D01*
X004332Y008777D01*
X004332Y009127D01*
X004382Y009127D01*
X004382Y009081D02*
X004332Y009081D01*
X004332Y009127D02*
X004096Y009127D01*
X004096Y008981D01*
X004103Y008955D01*
X004104Y008952D01*
X004103Y008950D01*
X004096Y008923D01*
X004096Y008777D01*
X004332Y008777D01*
X004332Y008727D01*
X004096Y008727D01*
X004096Y008581D01*
X004097Y008577D01*
X003927Y008577D01*
X003927Y009352D01*
X004104Y009352D01*
X004103Y009350D01*
X004096Y009323D01*
X004096Y009177D01*
X004332Y009177D01*
X004332Y009127D01*
X004332Y009130D02*
X003927Y009130D01*
X003927Y009178D02*
X004096Y009178D01*
X004096Y009227D02*
X003927Y009227D01*
X003927Y009275D02*
X004096Y009275D01*
X004096Y009324D02*
X003927Y009324D01*
X003927Y009081D02*
X004096Y009081D01*
X004096Y009033D02*
X003927Y009033D01*
X003927Y008984D02*
X004096Y008984D01*
X004099Y008936D02*
X003927Y008936D01*
X003927Y008887D02*
X004096Y008887D01*
X004096Y008839D02*
X003927Y008839D01*
X003927Y008790D02*
X004096Y008790D01*
X004096Y008693D02*
X003927Y008693D01*
X003927Y008645D02*
X004096Y008645D01*
X004096Y008596D02*
X003927Y008596D01*
X003927Y008742D02*
X004332Y008742D01*
X004332Y008790D02*
X004382Y008790D01*
X004382Y008742D02*
X004715Y008742D01*
X004715Y008790D02*
X004618Y008790D01*
X004618Y008839D02*
X004715Y008839D01*
X004715Y008887D02*
X004618Y008887D01*
X004615Y008936D02*
X004715Y008936D01*
X004715Y008984D02*
X004618Y008984D01*
X004618Y009033D02*
X004715Y009033D01*
X004715Y009081D02*
X004618Y009081D01*
X004382Y009033D02*
X004332Y009033D01*
X004332Y008984D02*
X004382Y008984D01*
X004382Y008936D02*
X004332Y008936D01*
X004332Y008887D02*
X004382Y008887D01*
X004382Y008839D02*
X004332Y008839D01*
X004618Y008693D02*
X004715Y008693D01*
X004715Y008645D02*
X004618Y008645D01*
X004618Y008596D02*
X004715Y008596D01*
X004852Y007602D02*
X005352Y007602D01*
X005602Y007852D01*
X005952Y007852D01*
X005911Y007752D02*
X006052Y007611D01*
X006052Y006979D01*
X006004Y007027D01*
X005972Y007027D01*
X005972Y007212D01*
X005677Y007212D01*
X005677Y007262D01*
X005627Y007262D01*
X005627Y007537D01*
X005429Y007537D01*
X005643Y007752D01*
X005911Y007752D01*
X005940Y007723D02*
X005615Y007723D01*
X005566Y007675D02*
X005988Y007675D01*
X006037Y007626D02*
X005518Y007626D01*
X005469Y007578D02*
X006052Y007578D01*
X006052Y007529D02*
X005911Y007529D01*
X005909Y007530D02*
X005882Y007537D01*
X005677Y007537D01*
X005677Y007262D01*
X005972Y007262D01*
X005972Y007447D01*
X005965Y007474D01*
X005952Y007497D01*
X005932Y007517D01*
X005909Y007530D01*
X005961Y007481D02*
X006052Y007481D01*
X006052Y007432D02*
X005972Y007432D01*
X005972Y007384D02*
X006052Y007384D01*
X006052Y007335D02*
X005972Y007335D01*
X005972Y007287D02*
X006052Y007287D01*
X006052Y007238D02*
X005677Y007238D01*
X005677Y007287D02*
X005627Y007287D01*
X005627Y007335D02*
X005677Y007335D01*
X005677Y007384D02*
X005627Y007384D01*
X005627Y007432D02*
X005677Y007432D01*
X005677Y007481D02*
X005627Y007481D01*
X005627Y007529D02*
X005677Y007529D01*
X005972Y007190D02*
X006052Y007190D01*
X006052Y007141D02*
X005972Y007141D01*
X005972Y007093D02*
X006052Y007093D01*
X006052Y007044D02*
X005972Y007044D01*
X006035Y006996D02*
X006052Y006996D01*
X006686Y006462D02*
X007302Y006462D01*
X007075Y005758D02*
X007075Y005758D01*
X007075Y005735D02*
X007075Y005735D01*
X007075Y005686D02*
X007077Y005686D01*
X007075Y005638D02*
X007125Y005638D01*
X007174Y005589D02*
X007031Y005589D01*
X006982Y005541D02*
X007399Y005541D01*
X007351Y005492D02*
X006934Y005492D01*
X006885Y005444D02*
X007302Y005444D01*
X007602Y005452D02*
X007602Y004102D01*
X007718Y004231D02*
X008360Y004231D01*
X008311Y004280D02*
X007702Y004280D01*
X007702Y004328D02*
X008263Y004328D01*
X008214Y004377D02*
X007702Y004377D01*
X007702Y004425D02*
X008166Y004425D01*
X008117Y004474D02*
X007702Y004474D01*
X007702Y004522D02*
X008069Y004522D01*
X008020Y004571D02*
X007702Y004571D01*
X007702Y004619D02*
X007976Y004619D01*
X007976Y004668D02*
X007702Y004668D01*
X007702Y004716D02*
X007976Y004716D01*
X007976Y004765D02*
X007702Y004765D01*
X007702Y004813D02*
X007976Y004813D01*
X007976Y004862D02*
X007702Y004862D01*
X007702Y004910D02*
X008300Y004910D01*
X007987Y005201D02*
X007702Y005201D01*
X007702Y005153D02*
X007976Y005153D01*
X007976Y005104D02*
X007702Y005104D01*
X007702Y005056D02*
X007976Y005056D01*
X007976Y005007D02*
X007702Y005007D01*
X007702Y004959D02*
X007976Y004959D01*
X008035Y005250D02*
X007702Y005250D01*
X007702Y005298D02*
X008084Y005298D01*
X008132Y005347D02*
X007702Y005347D01*
X007702Y005395D02*
X008181Y005395D01*
X008229Y005444D02*
X007735Y005444D01*
X007784Y005492D02*
X008278Y005492D01*
X008326Y005541D02*
X007832Y005541D01*
X007852Y005589D02*
X008375Y005589D01*
X008645Y005589D02*
X008695Y005589D01*
X008695Y005541D02*
X008645Y005541D01*
X008645Y005492D02*
X008695Y005492D01*
X008695Y005444D02*
X008645Y005444D01*
X008645Y005395D02*
X008695Y005395D01*
X008695Y005347D02*
X008645Y005347D01*
X008645Y005298D02*
X008695Y005298D01*
X008695Y004522D02*
X008645Y004522D01*
X008645Y004474D02*
X008695Y004474D01*
X008695Y004425D02*
X008645Y004425D01*
X008645Y004377D02*
X008695Y004377D01*
X008695Y004328D02*
X008645Y004328D01*
X008645Y004280D02*
X008695Y004280D01*
X008695Y004231D02*
X008645Y004231D01*
X007502Y004280D02*
X007495Y004280D01*
X007495Y004328D02*
X007502Y004328D01*
X007178Y004328D02*
X007173Y004328D01*
X007173Y004371D02*
X007173Y003995D01*
X007107Y003995D01*
X007080Y004002D01*
X007075Y004005D01*
X007070Y004002D01*
X007044Y003995D01*
X006978Y003995D01*
X006978Y004371D01*
X007134Y004371D01*
X007173Y004371D01*
X007173Y004377D02*
X007178Y004377D01*
X007173Y004425D02*
X007178Y004425D01*
X007173Y004474D02*
X007178Y004474D01*
X007173Y004522D02*
X007178Y004522D01*
X007173Y004571D02*
X007178Y004571D01*
X007173Y004619D02*
X007178Y004619D01*
X007173Y004668D02*
X007178Y004668D01*
X007173Y004716D02*
X007178Y004716D01*
X006978Y004716D02*
X006973Y004716D01*
X006973Y004668D02*
X006978Y004668D01*
X006973Y004619D02*
X006978Y004619D01*
X006973Y004571D02*
X006978Y004571D01*
X006973Y004522D02*
X006978Y004522D01*
X006973Y004474D02*
X006978Y004474D01*
X006973Y004425D02*
X006978Y004425D01*
X006973Y004377D02*
X006978Y004377D01*
X006973Y004328D02*
X006978Y004328D01*
X006973Y004280D02*
X006978Y004280D01*
X006973Y004231D02*
X006978Y004231D01*
X006973Y004183D02*
X006978Y004183D01*
X006973Y004134D02*
X006978Y004134D01*
X006973Y004086D02*
X006978Y004086D01*
X006973Y004037D02*
X006978Y004037D01*
X006962Y003989D02*
X007240Y003989D01*
X007240Y003940D02*
X006962Y003940D01*
X006962Y003892D02*
X007240Y003892D01*
X007178Y004037D02*
X007173Y004037D01*
X007173Y004086D02*
X007178Y004086D01*
X007173Y004134D02*
X007178Y004134D01*
X007173Y004183D02*
X007178Y004183D01*
X007173Y004231D02*
X007178Y004231D01*
X007173Y004280D02*
X007178Y004280D01*
X006775Y004374D02*
X006775Y004629D01*
X006702Y004752D01*
X006585Y004152D02*
X006535Y004102D01*
X006352Y004102D01*
X006552Y003952D02*
X006585Y003986D01*
X006552Y003752D02*
X006552Y003752D01*
X006431Y003627D02*
X006431Y003627D01*
X006752Y003752D02*
X006952Y003752D01*
X006802Y003752D02*
X006752Y003752D01*
X006799Y003952D02*
X006775Y003976D01*
X006799Y003952D02*
X006802Y003952D01*
X007376Y003649D02*
X012413Y003649D01*
X012462Y003698D02*
X010039Y003698D01*
X010087Y003746D02*
X012510Y003746D01*
X012559Y003795D02*
X010102Y003795D01*
X010102Y003843D02*
X012607Y003843D01*
X012656Y003892D02*
X010102Y003892D01*
X009902Y003892D02*
X007490Y003892D01*
X007490Y003940D02*
X007519Y003940D01*
X005087Y006552D02*
X004937Y006702D01*
X004852Y006702D01*
X004652Y006902D01*
X004652Y007402D01*
X004852Y007602D01*
X004779Y010536D02*
X004829Y010536D01*
X004829Y010585D02*
X004779Y010585D01*
X004779Y010633D02*
X004829Y010633D01*
X004829Y010682D02*
X004779Y010682D01*
X004779Y010730D02*
X004829Y010730D01*
X004829Y010779D02*
X004779Y010779D01*
X004779Y010827D02*
X004829Y010827D01*
X005305Y010973D02*
X003927Y010973D01*
X003927Y010924D02*
X005353Y010924D01*
X005402Y010876D02*
X003927Y010876D01*
X007002Y010633D02*
X007564Y010633D01*
X007564Y010585D02*
X007002Y010585D01*
X007509Y010536D02*
X007564Y010536D01*
X007558Y010488D02*
X007564Y010488D01*
X008996Y011118D02*
X009479Y011118D01*
X009479Y011070D02*
X009040Y011070D01*
X009084Y011021D02*
X009479Y011021D01*
X009486Y010973D02*
X009127Y010973D01*
X009171Y010924D02*
X009535Y010924D01*
X009391Y010352D02*
X009383Y010343D01*
X009383Y009950D02*
X009700Y009950D01*
X010052Y010302D01*
X010281Y010538D02*
X010952Y010538D01*
X010850Y010682D02*
X010383Y010682D01*
X010425Y010730D02*
X010425Y010874D01*
X010425Y010827D02*
X011402Y010827D01*
X011402Y010779D02*
X010425Y010779D01*
X010436Y010973D02*
X010327Y010973D01*
X010668Y010973D02*
X011402Y010973D01*
X011402Y011021D02*
X011013Y011021D01*
X011061Y011070D02*
X011402Y011070D01*
X011402Y011118D02*
X011110Y011118D01*
X011158Y011167D02*
X011402Y011167D01*
X011402Y011215D02*
X011207Y011215D01*
X011255Y011264D02*
X011402Y011264D01*
X011402Y011312D02*
X011304Y011312D01*
X011352Y011361D02*
X011402Y011361D01*
X011401Y011409D02*
X011402Y011409D01*
X011602Y011312D02*
X011852Y011312D01*
X011852Y011264D02*
X011602Y011264D01*
X011602Y011215D02*
X011852Y011215D01*
X011852Y011167D02*
X011602Y011167D01*
X011602Y011118D02*
X011852Y011118D01*
X011828Y011070D02*
X011602Y011070D01*
X011602Y011021D02*
X011780Y011021D01*
X011731Y010973D02*
X011602Y010973D01*
X011602Y010924D02*
X011683Y010924D01*
X011634Y010876D02*
X011602Y010876D01*
X010968Y011409D02*
X010890Y011409D01*
X011045Y011700D02*
X011202Y011700D01*
X011202Y011652D02*
X010193Y011652D01*
X010152Y011603D02*
X011162Y011603D01*
X011113Y011555D02*
X010152Y011555D01*
X010345Y011700D02*
X010408Y011700D01*
X011094Y011749D02*
X011202Y011749D01*
X011202Y011797D02*
X011125Y011797D01*
X012577Y013252D02*
X013157Y013252D01*
X013347Y013252D02*
X013713Y013252D01*
X013713Y013204D02*
X013396Y013204D01*
X013425Y013155D02*
X013713Y013155D01*
X013713Y013107D02*
X013425Y013107D01*
X013425Y013058D02*
X013713Y013058D01*
X013713Y013010D02*
X013405Y013010D01*
X013356Y012961D02*
X013713Y012961D01*
X013713Y012913D02*
X013209Y012913D01*
X013209Y012864D02*
X013713Y012864D01*
X013713Y012816D02*
X013209Y012816D01*
X013209Y012767D02*
X013713Y012767D01*
X013713Y012719D02*
X013209Y012719D01*
X013209Y012670D02*
X013713Y012670D01*
X013713Y012622D02*
X013209Y012622D01*
X013209Y012573D02*
X013713Y012573D01*
X013713Y012525D02*
X013209Y012525D01*
X013205Y012476D02*
X013713Y012476D01*
X013713Y012428D02*
X013253Y012428D01*
X013302Y012379D02*
X013713Y012379D01*
X013713Y012331D02*
X013327Y012331D01*
X013327Y012282D02*
X013713Y012282D01*
X013713Y012234D02*
X013327Y012234D01*
X013327Y012185D02*
X013713Y012185D01*
X013713Y012137D02*
X013327Y012137D01*
X013327Y012088D02*
X013713Y012088D01*
X013713Y012040D02*
X013327Y012040D01*
X013327Y011991D02*
X013713Y011991D01*
X013713Y011943D02*
X013327Y011943D01*
X013327Y011894D02*
X013713Y011894D01*
X013713Y011846D02*
X013327Y011846D01*
X013327Y011797D02*
X013713Y011797D01*
X013713Y011749D02*
X013327Y011749D01*
X013327Y011700D02*
X013713Y011700D01*
X013713Y011652D02*
X013327Y011652D01*
X013327Y011603D02*
X013713Y011603D01*
X013713Y011555D02*
X013281Y011555D01*
X013233Y011506D02*
X013713Y011506D01*
X013713Y011458D02*
X013184Y011458D01*
X013136Y011409D02*
X013713Y011409D01*
X013713Y011361D02*
X013087Y011361D01*
X013039Y011312D02*
X013713Y011312D01*
X013713Y011264D02*
X012990Y011264D01*
X012942Y011215D02*
X013713Y011215D01*
X013713Y011167D02*
X012742Y011167D01*
X012720Y011118D02*
X013713Y011118D01*
X013713Y011070D02*
X012671Y011070D01*
X012577Y013301D02*
X012600Y013301D01*
X009389Y009712D02*
X009376Y009712D01*
X009376Y009663D02*
X009389Y009663D01*
X009383Y009652D02*
X009383Y009556D01*
X009389Y009566D02*
X009376Y009566D01*
X009376Y009615D02*
X009389Y009615D01*
X009475Y007626D02*
X009483Y007626D01*
X011902Y004813D02*
X013577Y004813D01*
X013529Y004765D02*
X011902Y004765D01*
X011902Y004716D02*
X013480Y004716D01*
X013432Y004668D02*
X011902Y004668D01*
X011902Y004619D02*
X013383Y004619D01*
X013335Y004571D02*
X011902Y004571D01*
X011902Y004522D02*
X013286Y004522D01*
X013238Y004474D02*
X011902Y004474D01*
X011902Y004425D02*
X013189Y004425D01*
X013141Y004377D02*
X011902Y004377D01*
X011902Y004328D02*
X013092Y004328D01*
X013044Y004280D02*
X011902Y004280D01*
X011902Y004231D02*
X012995Y004231D01*
X012947Y004183D02*
X011902Y004183D01*
X011902Y004134D02*
X012898Y004134D01*
X012850Y004086D02*
X011902Y004086D01*
X011902Y004037D02*
X012801Y004037D01*
X012753Y003989D02*
X011880Y003989D01*
X011831Y003940D02*
X012704Y003940D01*
X007695Y012331D02*
X007690Y012331D01*
X007690Y012379D02*
X007695Y012379D01*
X007690Y012428D02*
X007695Y012428D01*
X007692Y012652D02*
X008152Y012652D01*
X007692Y012852D02*
X007352Y012852D01*
X007302Y012802D01*
X007302Y012702D01*
X008752Y013543D02*
X008752Y013543D01*
X008942Y013301D02*
X009062Y013301D01*
X009062Y013252D02*
X008894Y013252D01*
X008852Y013204D02*
X009062Y013204D01*
X009045Y013155D02*
X008852Y013155D01*
X008852Y013107D02*
X009033Y013107D01*
X009033Y013058D02*
X008852Y013058D01*
X008852Y013010D02*
X009033Y013010D01*
X009039Y012961D02*
X008852Y012961D01*
X008852Y012913D02*
X009062Y012913D01*
X009062Y012864D02*
X008885Y012864D01*
X008934Y012816D02*
X009062Y012816D01*
X009062Y012767D02*
X008975Y012767D01*
D32*
X008802Y012702D03*
X008952Y012462D03*
X008952Y013002D03*
X008152Y013052D03*
X008152Y012652D03*
X008052Y012152D03*
X008452Y011902D03*
X008352Y011052D03*
X008102Y011002D03*
X007252Y010702D03*
X006802Y011352D03*
X006352Y011752D03*
X006802Y012152D03*
X006852Y013702D03*
X006202Y013702D03*
X007902Y014952D03*
X009852Y013242D03*
X010152Y013052D03*
X010202Y012152D03*
X010252Y011852D03*
X010152Y011202D03*
X010252Y010802D03*
X010281Y010538D03*
X010252Y010252D03*
X010102Y009952D03*
X010152Y009652D03*
X010102Y008952D03*
X009902Y008752D03*
X010102Y008552D03*
X010002Y008302D03*
X010402Y008002D03*
X009602Y007752D03*
X009302Y007652D03*
X008752Y007502D03*
X009502Y008252D03*
X011202Y007952D03*
X011202Y007652D03*
X011802Y008602D03*
X011102Y010252D03*
X010952Y010538D03*
X011152Y010888D03*
X010752Y011302D03*
X010552Y011102D03*
X010952Y011852D03*
X011602Y011552D03*
X011702Y011202D03*
X011602Y013202D03*
X011552Y013452D03*
X011052Y013452D03*
X009652Y011052D03*
X007302Y009202D03*
X007302Y008952D03*
X007302Y008702D03*
X007102Y009452D03*
X006502Y009602D03*
X006202Y009452D03*
X005752Y009852D03*
X006052Y008352D03*
X005852Y007652D03*
X006202Y005952D03*
X007102Y005002D03*
X007602Y004102D03*
X006352Y004102D03*
X006002Y004102D03*
X007202Y006552D03*
X004002Y008952D03*
X011052Y005502D03*
X011402Y005902D03*
X013252Y013102D03*
X013352Y014052D03*
D33*
X010452Y014402D02*
X010452Y014869D01*
X009652Y014819D02*
X009652Y014352D01*
X007652Y014352D02*
X007152Y013852D01*
X007152Y013252D01*
X007152Y012802D01*
X006952Y012602D01*
X006552Y012602D01*
X006391Y012441D01*
X006391Y012262D01*
X005952Y012402D02*
X005812Y012262D01*
X004166Y012262D01*
X004166Y013246D02*
X004896Y013246D01*
X005102Y013452D01*
X005102Y013969D01*
X005102Y014835D02*
X005952Y014835D01*
X005952Y013969D02*
X005952Y013352D01*
X006058Y013246D01*
X006391Y013246D01*
X006152Y012802D02*
X005952Y012602D01*
X005952Y012402D01*
X006152Y012802D02*
X006752Y012802D01*
X006852Y012902D01*
X006852Y013702D01*
X006852Y014352D01*
D34*
X009602Y004902D02*
X009602Y004902D01*
M02*
