%
M48
M72
T01C0.0079
T02C0.0335
T03C0.0360
T04C0.0591
T05C0.0630
%
T01
X6002Y4102
X6352Y4102
X7102Y5002
X7602Y4102
X6202Y5952
X7202Y6552
X5852Y7652
X6052Y8352
X6202Y9452
X6502Y9602
X7102Y9452
X7302Y9202
X7302Y8952
X7302Y8702
X8752Y7502
X9302Y7652
X9602Y7752
X9502Y8252
X10002Y8302
X10102Y8552
X9902Y8752
X10102Y8952
X10152Y9652
X10102Y9952
X10252Y10252
X10281Y10538
X10252Y10802
X10552Y11102
X10752Y11302
X11152Y10888
X10952Y10538
X11102Y10252
X11702Y11202
X11602Y11552
X10952Y11852
X10252Y11852
X10202Y12152
X10152Y11202
X9652Y11052
X8352Y11052
X8102Y11002
X8452Y11902
X8052Y12152
X8152Y12652
X8152Y13052
X8802Y12702
X8952Y12462
X8952Y13002
X9852Y13242
X10152Y13052
X11052Y13452
X11552Y13452
X11602Y13202
X13252Y13102
X13352Y14052
X11802Y8602
X11202Y7952
X11202Y7652
X10402Y8002
X11402Y5902
X11052Y5502
X7252Y10702
X6802Y11352
X6352Y11752
X6802Y12152
X6852Y13702
X6202Y13702
X7902Y14952
X5752Y9852
X4002Y8952
T02
X5278Y11671
X5278Y12852
T03
X5052Y7152
X5052Y8002
X6852Y14352
X7652Y14352
X9652Y14352
X10452Y14402
X12352Y12152
X12352Y11302
T04
X12536Y9379
X8670Y4902
X4804Y10147
X8670Y14406
T05
X8670Y14406
X4804Y10147
X8670Y4902
X12536Y9379
M30
