G75*
G70*
%OFA0B0*%
%FSLAX24Y24*%
%IPPOS*%
%LPD*%
%AMOC8*
5,1,8,0,0,1.08239X$1,22.5*
%
%ADD10R,0.0169X0.0228*%
%ADD11C,0.0089*%
%ADD12R,0.0157X0.0197*%
%ADD13R,0.0228X0.0169*%
%ADD14OC8,0.0689*%
%ADD15R,0.0846X0.0335*%
%ADD16R,0.0846X0.0453*%
%ADD17R,0.0453X0.0295*%
%ADD18OC8,0.1240*%
%ADD19C,0.0650*%
%ADD20C,0.0394*%
%ADD21R,0.0846X0.0531*%
%ADD22R,0.0531X0.0197*%
%ADD23OC8,0.0256*%
D10*
G36*
X006310Y005283D02*
X006191Y005402D01*
X006352Y005563D01*
X006471Y005444D01*
X006310Y005283D01*
G37*
G36*
X006452Y005141D02*
X006333Y005260D01*
X006494Y005421D01*
X006613Y005302D01*
X006452Y005141D01*
G37*
X007252Y006802D03*
X007452Y006802D03*
X007102Y007452D03*
X006902Y007452D03*
X006902Y008302D03*
X007102Y008302D03*
G36*
X009641Y010652D02*
X009760Y010771D01*
X009921Y010610D01*
X009802Y010491D01*
X009641Y010652D01*
G37*
G36*
X009783Y010794D02*
X009902Y010913D01*
X010063Y010752D01*
X009944Y010633D01*
X009783Y010794D01*
G37*
X010702Y012102D03*
X010902Y012102D03*
X010902Y012352D03*
X010702Y012352D03*
G36*
X011002Y013741D02*
X010883Y013860D01*
X011044Y014021D01*
X011163Y013902D01*
X011002Y013741D01*
G37*
G36*
X010860Y013883D02*
X010741Y014002D01*
X010902Y014163D01*
X011021Y014044D01*
X010860Y013883D01*
G37*
X007202Y013402D03*
X007002Y013402D03*
X007002Y013152D03*
X007202Y013152D03*
G36*
X005583Y013294D02*
X005702Y013413D01*
X005863Y013252D01*
X005744Y013133D01*
X005583Y013294D01*
G37*
G36*
X005441Y013152D02*
X005560Y013271D01*
X005721Y013110D01*
X005602Y012991D01*
X005441Y013152D01*
G37*
X010502Y005802D03*
X010702Y005802D03*
X010702Y005552D03*
X010502Y005552D03*
G36*
X012071Y006260D02*
X011952Y006141D01*
X011791Y006302D01*
X011910Y006421D01*
X012071Y006260D01*
G37*
G36*
X012213Y006402D02*
X012094Y006283D01*
X011933Y006444D01*
X012052Y006563D01*
X012213Y006402D01*
G37*
D11*
X009790Y009293D02*
X009617Y009466D01*
X009790Y009293D02*
X009727Y009230D01*
X009554Y009403D01*
X009617Y009466D01*
X009639Y009318D02*
X009765Y009318D01*
X009677Y009406D02*
X009557Y009406D01*
X009478Y009327D02*
X009651Y009154D01*
X009588Y009091D01*
X009415Y009264D01*
X009478Y009327D01*
X009500Y009179D02*
X009626Y009179D01*
X009538Y009267D02*
X009418Y009267D01*
X009339Y009188D02*
X009512Y009015D01*
X009449Y008952D01*
X009276Y009125D01*
X009339Y009188D01*
X009361Y009040D02*
X009487Y009040D01*
X009399Y009128D02*
X009279Y009128D01*
X009200Y009049D02*
X009373Y008876D01*
X009310Y008813D01*
X009137Y008986D01*
X009200Y009049D01*
X009222Y008901D02*
X009348Y008901D01*
X009260Y008989D02*
X009140Y008989D01*
X009061Y008909D02*
X009234Y008736D01*
X009171Y008673D01*
X008998Y008846D01*
X009061Y008909D01*
X009083Y008761D02*
X009209Y008761D01*
X009121Y008849D02*
X009001Y008849D01*
X008921Y008770D02*
X009094Y008597D01*
X009031Y008534D01*
X008858Y008707D01*
X008921Y008770D01*
X008943Y008622D02*
X009069Y008622D01*
X008981Y008710D02*
X008861Y008710D01*
X008782Y008631D02*
X008955Y008458D01*
X008892Y008395D01*
X008719Y008568D01*
X008782Y008631D01*
X008804Y008483D02*
X008930Y008483D01*
X008842Y008571D02*
X008722Y008571D01*
X008621Y008568D02*
X008558Y008631D01*
X008621Y008568D02*
X008448Y008395D01*
X008385Y008458D01*
X008558Y008631D01*
X008536Y008483D02*
X008410Y008483D01*
X008498Y008571D02*
X008618Y008571D01*
X008482Y008707D02*
X008419Y008770D01*
X008482Y008707D02*
X008309Y008534D01*
X008246Y008597D01*
X008419Y008770D01*
X008397Y008622D02*
X008271Y008622D01*
X008359Y008710D02*
X008479Y008710D01*
X008343Y008846D02*
X008280Y008909D01*
X008343Y008846D02*
X008170Y008673D01*
X008107Y008736D01*
X008280Y008909D01*
X008258Y008761D02*
X008132Y008761D01*
X008220Y008849D02*
X008340Y008849D01*
X008204Y008986D02*
X008141Y009049D01*
X008204Y008986D02*
X008031Y008813D01*
X007968Y008876D01*
X008141Y009049D01*
X008119Y008901D02*
X007993Y008901D01*
X008081Y008989D02*
X008201Y008989D01*
X008064Y009125D02*
X008001Y009188D01*
X008064Y009125D02*
X007891Y008952D01*
X007828Y009015D01*
X008001Y009188D01*
X007979Y009040D02*
X007853Y009040D01*
X007941Y009128D02*
X008061Y009128D01*
X007925Y009264D02*
X007862Y009327D01*
X007925Y009264D02*
X007752Y009091D01*
X007689Y009154D01*
X007862Y009327D01*
X007840Y009179D02*
X007714Y009179D01*
X007802Y009267D02*
X007922Y009267D01*
X007786Y009403D02*
X007723Y009466D01*
X007786Y009403D02*
X007613Y009230D01*
X007550Y009293D01*
X007723Y009466D01*
X007701Y009318D02*
X007575Y009318D01*
X007663Y009406D02*
X007783Y009406D01*
X007647Y009542D02*
X007584Y009605D01*
X007647Y009542D02*
X007474Y009369D01*
X007411Y009432D01*
X007584Y009605D01*
X007562Y009457D02*
X007436Y009457D01*
X007524Y009545D02*
X007644Y009545D01*
X007647Y009766D02*
X007474Y009939D01*
X007647Y009766D02*
X007584Y009703D01*
X007411Y009876D01*
X007474Y009939D01*
X007496Y009791D02*
X007622Y009791D01*
X007534Y009879D02*
X007414Y009879D01*
X007613Y010079D02*
X007786Y009906D01*
X007723Y009843D01*
X007550Y010016D01*
X007613Y010079D01*
X007635Y009931D02*
X007761Y009931D01*
X007673Y010019D02*
X007553Y010019D01*
X007752Y010218D02*
X007925Y010045D01*
X007862Y009982D01*
X007689Y010155D01*
X007752Y010218D01*
X007774Y010070D02*
X007900Y010070D01*
X007812Y010158D02*
X007692Y010158D01*
X007891Y010357D02*
X008064Y010184D01*
X008001Y010121D01*
X007828Y010294D01*
X007891Y010357D01*
X007913Y010209D02*
X008039Y010209D01*
X007951Y010297D02*
X007831Y010297D01*
X008031Y010496D02*
X008204Y010323D01*
X008141Y010260D01*
X007968Y010433D01*
X008031Y010496D01*
X008053Y010348D02*
X008179Y010348D01*
X008091Y010436D02*
X007971Y010436D01*
X008170Y010635D02*
X008343Y010462D01*
X008280Y010399D01*
X008107Y010572D01*
X008170Y010635D01*
X008192Y010487D02*
X008318Y010487D01*
X008230Y010575D02*
X008110Y010575D01*
X008309Y010775D02*
X008482Y010602D01*
X008419Y010539D01*
X008246Y010712D01*
X008309Y010775D01*
X008331Y010627D02*
X008457Y010627D01*
X008369Y010715D02*
X008249Y010715D01*
X008448Y010914D02*
X008621Y010741D01*
X008558Y010678D01*
X008385Y010851D01*
X008448Y010914D01*
X008470Y010766D02*
X008596Y010766D01*
X008508Y010854D02*
X008388Y010854D01*
X008892Y010914D02*
X008955Y010851D01*
X008782Y010678D01*
X008719Y010741D01*
X008892Y010914D01*
X008870Y010766D02*
X008744Y010766D01*
X008832Y010854D02*
X008952Y010854D01*
X009031Y010775D02*
X009094Y010712D01*
X008921Y010539D01*
X008858Y010602D01*
X009031Y010775D01*
X009009Y010627D02*
X008883Y010627D01*
X008971Y010715D02*
X009091Y010715D01*
X009171Y010635D02*
X009234Y010572D01*
X009061Y010399D01*
X008998Y010462D01*
X009171Y010635D01*
X009149Y010487D02*
X009023Y010487D01*
X009111Y010575D02*
X009231Y010575D01*
X009310Y010496D02*
X009373Y010433D01*
X009200Y010260D01*
X009137Y010323D01*
X009310Y010496D01*
X009288Y010348D02*
X009162Y010348D01*
X009250Y010436D02*
X009370Y010436D01*
X009449Y010357D02*
X009512Y010294D01*
X009339Y010121D01*
X009276Y010184D01*
X009449Y010357D01*
X009427Y010209D02*
X009301Y010209D01*
X009389Y010297D02*
X009509Y010297D01*
X009588Y010218D02*
X009651Y010155D01*
X009478Y009982D01*
X009415Y010045D01*
X009588Y010218D01*
X009566Y010070D02*
X009440Y010070D01*
X009528Y010158D02*
X009648Y010158D01*
X009727Y010079D02*
X009790Y010016D01*
X009617Y009843D01*
X009554Y009906D01*
X009727Y010079D01*
X009705Y009931D02*
X009579Y009931D01*
X009667Y010019D02*
X009787Y010019D01*
X009867Y009939D02*
X009930Y009876D01*
X009757Y009703D01*
X009694Y009766D01*
X009867Y009939D01*
X009845Y009791D02*
X009719Y009791D01*
X009807Y009879D02*
X009927Y009879D01*
X009757Y009605D02*
X009930Y009432D01*
X009867Y009369D01*
X009694Y009542D01*
X009757Y009605D01*
X009779Y009457D02*
X009905Y009457D01*
X009817Y009545D02*
X009697Y009545D01*
D12*
X008400Y007452D03*
X008204Y007452D03*
X009704Y005852D03*
X009900Y005852D03*
G36*
X007486Y010256D02*
X007596Y010146D01*
X007458Y010008D01*
X007348Y010118D01*
X007486Y010256D01*
G37*
G36*
X007346Y010396D02*
X007456Y010286D01*
X007318Y010148D01*
X007208Y010258D01*
X007346Y010396D01*
G37*
G36*
X007596Y010696D02*
X007706Y010586D01*
X007568Y010448D01*
X007458Y010558D01*
X007596Y010696D01*
G37*
G36*
X007736Y010556D02*
X007846Y010446D01*
X007708Y010308D01*
X007598Y010418D01*
X007736Y010556D01*
G37*
D13*
X007052Y009202D03*
X007052Y009002D03*
X006902Y008802D03*
X006902Y008602D03*
X006902Y008052D03*
X006902Y007852D03*
X006902Y007252D03*
X006902Y007052D03*
X006952Y006802D03*
X006952Y006602D03*
D14*
X005052Y007152D03*
X005052Y008002D03*
X006852Y014352D03*
X007652Y014352D03*
X009652Y014352D03*
X010452Y014402D03*
X012352Y012152D03*
X012352Y011302D03*
D15*
G36*
X012694Y013174D02*
X012096Y013772D01*
X012332Y014008D01*
X012930Y013410D01*
X012694Y013174D01*
G37*
G36*
X011803Y014065D02*
X011205Y014663D01*
X011441Y014899D01*
X012039Y014301D01*
X011803Y014065D01*
G37*
G36*
X006135Y014663D02*
X005537Y014065D01*
X005301Y014301D01*
X005899Y014899D01*
X006135Y014663D01*
G37*
G36*
X005244Y013772D02*
X004646Y013174D01*
X004410Y013410D01*
X005008Y014008D01*
X005244Y013772D01*
G37*
G36*
X004646Y006135D02*
X005244Y005537D01*
X005008Y005301D01*
X004410Y005899D01*
X004646Y006135D01*
G37*
G36*
X005537Y005244D02*
X006135Y004646D01*
X005899Y004410D01*
X005301Y005008D01*
X005537Y005244D01*
G37*
G36*
X011205Y004646D02*
X011803Y005244D01*
X012039Y005008D01*
X011441Y004410D01*
X011205Y004646D01*
G37*
G36*
X012096Y005537D02*
X012694Y006135D01*
X012930Y005899D01*
X012332Y005301D01*
X012096Y005537D01*
G37*
D16*
G36*
X004368Y005856D02*
X004965Y005259D01*
X004646Y004940D01*
X004049Y005537D01*
X004368Y005856D01*
G37*
G36*
X005008Y006496D02*
X005605Y005899D01*
X005286Y005580D01*
X004689Y006177D01*
X005008Y006496D01*
G37*
G36*
X005899Y005605D02*
X006496Y005008D01*
X006177Y004689D01*
X005580Y005286D01*
X005899Y005605D01*
G37*
G36*
X005259Y004965D02*
X005856Y004368D01*
X005537Y004049D01*
X004940Y004646D01*
X005259Y004965D01*
G37*
G36*
X010844Y005008D02*
X011441Y005605D01*
X011760Y005286D01*
X011163Y004689D01*
X010844Y005008D01*
G37*
G36*
X011485Y004368D02*
X012082Y004965D01*
X012401Y004646D01*
X011804Y004049D01*
X011485Y004368D01*
G37*
G36*
X012375Y005259D02*
X012972Y005856D01*
X013291Y005537D01*
X012694Y004940D01*
X012375Y005259D01*
G37*
G36*
X011735Y005899D02*
X012332Y006496D01*
X012651Y006177D01*
X012054Y005580D01*
X011735Y005899D01*
G37*
G36*
X012332Y012813D02*
X011735Y013410D01*
X012054Y013729D01*
X012651Y013132D01*
X012332Y012813D01*
G37*
G36*
X012972Y013453D02*
X012375Y014050D01*
X012694Y014369D01*
X013291Y013772D01*
X012972Y013453D01*
G37*
G36*
X012082Y014344D02*
X011485Y014941D01*
X011804Y015260D01*
X012401Y014663D01*
X012082Y014344D01*
G37*
G36*
X011441Y013704D02*
X010844Y014301D01*
X011163Y014620D01*
X011760Y014023D01*
X011441Y013704D01*
G37*
G36*
X006496Y014301D02*
X005899Y013704D01*
X005580Y014023D01*
X006177Y014620D01*
X006496Y014301D01*
G37*
G36*
X005856Y014941D02*
X005259Y014344D01*
X004940Y014663D01*
X005537Y015260D01*
X005856Y014941D01*
G37*
G36*
X005605Y013410D02*
X005008Y012813D01*
X004689Y013132D01*
X005286Y013729D01*
X005605Y013410D01*
G37*
G36*
X004965Y014050D02*
X004368Y013453D01*
X004049Y013772D01*
X004646Y014369D01*
X004965Y014050D01*
G37*
D17*
X005948Y012902D03*
X006656Y012646D03*
X006656Y013158D03*
X006556Y009158D03*
X006556Y008646D03*
X006556Y008308D03*
X006556Y007796D03*
X006556Y007458D03*
X006556Y006946D03*
X006556Y006608D03*
X006556Y006096D03*
X005848Y006352D03*
X005848Y007202D03*
X005848Y008052D03*
X005848Y008902D03*
X010698Y006608D03*
X010698Y006096D03*
X011406Y006352D03*
X010698Y012646D03*
X010698Y013158D03*
X011406Y012902D03*
D18*
X008670Y014406D03*
X004804Y010147D03*
X008670Y004902D03*
X012536Y009379D03*
D19*
X012536Y009379D03*
X008670Y004902D03*
X004804Y010147D03*
X008670Y014406D03*
D20*
X005278Y012852D03*
X005278Y011671D03*
D21*
X008274Y007085D03*
X008274Y006219D03*
X009730Y006219D03*
X009730Y007085D03*
D22*
X009804Y011668D03*
X009804Y011924D03*
X009804Y012180D03*
X009804Y012436D03*
X007500Y012436D03*
X007500Y012180D03*
X007500Y011924D03*
X007500Y011668D03*
D23*
X008052Y012152D03*
X008452Y011902D03*
X008952Y012462D03*
X008802Y012702D03*
X008952Y013002D03*
X008152Y013052D03*
X008152Y012652D03*
X006802Y012152D03*
X006352Y011752D03*
X006802Y011352D03*
X007252Y010702D03*
X008102Y011002D03*
X008352Y011052D03*
X009652Y011052D03*
X010152Y011202D03*
X010252Y010802D03*
X010281Y010538D03*
X010252Y010252D03*
X010102Y009952D03*
X010152Y009652D03*
X010102Y008952D03*
X009902Y008752D03*
X010102Y008552D03*
X010002Y008302D03*
X010402Y008002D03*
X009602Y007752D03*
X009302Y007652D03*
X008752Y007502D03*
X009502Y008252D03*
X011202Y007952D03*
X011202Y007652D03*
X011802Y008602D03*
X011102Y010252D03*
X010952Y010538D03*
X011152Y010888D03*
X010752Y011302D03*
X010552Y011102D03*
X010252Y011852D03*
X010202Y012152D03*
X010952Y011852D03*
X011602Y011552D03*
X011702Y011202D03*
X011602Y013202D03*
X011552Y013452D03*
X011052Y013452D03*
X010152Y013052D03*
X009852Y013242D03*
X007902Y014952D03*
X006852Y013702D03*
X006202Y013702D03*
X005752Y009852D03*
X006202Y009452D03*
X006502Y009602D03*
X007102Y009452D03*
X007302Y009202D03*
X007302Y008952D03*
X007302Y008702D03*
X006052Y008352D03*
X005852Y007652D03*
X006202Y005952D03*
X007102Y005002D03*
X007602Y004102D03*
X006352Y004102D03*
X006002Y004102D03*
X007202Y006552D03*
X004002Y008952D03*
X011052Y005502D03*
X011402Y005902D03*
X013252Y013102D03*
X013352Y014052D03*
M02*
