G75*
G70*
%OFA0B0*%
%FSLAX24Y24*%
%IPPOS*%
%LPD*%
%AMOC8*
5,1,8,0,0,1.08239X$1,22.5*
%
%ADD10R,0.0531X0.0610*%
%ADD11R,0.0217X0.0531*%
%ADD12R,0.0309X0.0559*%
%ADD13R,0.0228X0.0169*%
%ADD14R,0.0169X0.0228*%
%ADD15C,0.0138*%
%ADD16R,0.0236X0.0118*%
%ADD17R,0.0965X0.0669*%
%ADD18R,0.0138X0.0299*%
%ADD19OC8,0.0689*%
%ADD20R,0.0492X0.0453*%
%ADD21R,0.0453X0.0492*%
%ADD22R,0.0697X0.0185*%
%ADD23R,0.0374X0.0374*%
%ADD24OC8,0.1240*%
%ADD25C,0.0650*%
%ADD26R,0.0169X0.0609*%
%ADD27R,0.0512X0.0453*%
%ADD28C,0.0394*%
%ADD29R,0.0609X0.0169*%
%ADD30R,0.0295X0.0295*%
%ADD31OC8,0.0256*%
D10*
X012367Y007119D03*
X013037Y007119D03*
X013037Y007985D03*
X012367Y007985D03*
D11*
X011336Y007194D03*
X011080Y007194D03*
X010824Y007194D03*
X010568Y007194D03*
X010568Y004910D03*
X010824Y004910D03*
X011080Y004910D03*
X011336Y004910D03*
D12*
X011485Y004336D03*
X011111Y004336D03*
X010737Y004336D03*
X010363Y004336D03*
X009989Y004336D03*
X009615Y004336D03*
D13*
X011552Y004752D03*
X011552Y004952D03*
X010752Y009802D03*
X010752Y010002D03*
X006802Y003952D03*
X006802Y003752D03*
X006552Y003752D03*
X006552Y003952D03*
X005252Y008652D03*
X005252Y008852D03*
X005252Y009052D03*
X005252Y009252D03*
D14*
X010152Y004752D03*
X010352Y004752D03*
X012752Y006502D03*
X012952Y006502D03*
X010552Y009802D03*
X010352Y009802D03*
X010502Y011852D03*
X010702Y011852D03*
X010702Y012152D03*
X010502Y012152D03*
D15*
X011858Y013693D03*
X012055Y013693D03*
X012252Y013693D03*
X012449Y013693D03*
X012646Y013693D03*
X012646Y014611D03*
X012449Y014611D03*
X012252Y014611D03*
X012055Y014611D03*
X011858Y014611D03*
X005546Y005711D03*
X005349Y005711D03*
X005152Y005711D03*
X004955Y005711D03*
X004758Y005711D03*
X004758Y004793D03*
X004955Y004793D03*
X005152Y004793D03*
X005349Y004793D03*
X005546Y004793D03*
D16*
X004512Y005144D03*
X004512Y005360D03*
X005792Y005360D03*
X005792Y005144D03*
X011612Y014044D03*
X011612Y014260D03*
X012892Y014260D03*
X012892Y014044D03*
D17*
X012252Y014152D03*
X005152Y005252D03*
D18*
X005152Y004644D03*
X004955Y004644D03*
X004758Y004644D03*
X005349Y004644D03*
X005546Y004644D03*
X005546Y005860D03*
X005349Y005860D03*
X005152Y005860D03*
X004955Y005860D03*
X004758Y005860D03*
X011858Y013544D03*
X012055Y013544D03*
X012252Y013544D03*
X012449Y013544D03*
X012646Y013544D03*
X012646Y014760D03*
X012449Y014760D03*
X012252Y014760D03*
X012055Y014760D03*
X011858Y014760D03*
D19*
X010452Y014402D03*
X009652Y014352D03*
X007652Y014352D03*
X006852Y014352D03*
X005052Y008002D03*
X005052Y007152D03*
X012352Y011302D03*
X012352Y012152D03*
D20*
X011752Y012017D03*
X011752Y012687D03*
X005652Y007237D03*
X005652Y006567D03*
D21*
X005087Y006552D03*
X004417Y006552D03*
X012267Y012752D03*
X012937Y012752D03*
D22*
X009383Y010540D03*
X009383Y010343D03*
X009383Y010147D03*
X009383Y009950D03*
X009383Y009753D03*
X009383Y009556D03*
X009383Y009359D03*
X009383Y009162D03*
X009383Y008965D03*
X009383Y008769D03*
X007958Y008769D03*
X007958Y008965D03*
X007958Y009162D03*
X007958Y009359D03*
X007958Y009556D03*
X007958Y009753D03*
X007958Y009950D03*
X007958Y010147D03*
X007958Y010343D03*
X007958Y010540D03*
D23*
X004947Y009152D03*
X004947Y008752D03*
X004357Y008752D03*
X004357Y009152D03*
D24*
X004804Y010147D03*
X008670Y014406D03*
X012536Y009379D03*
X008670Y004902D03*
D25*
X008670Y004902D03*
X012536Y009379D03*
X008670Y014406D03*
X004804Y010147D03*
D26*
X006585Y006094D03*
X006775Y006094D03*
X006975Y006094D03*
X007175Y006094D03*
X007365Y006094D03*
X007365Y004374D03*
X007175Y004374D03*
X006975Y004374D03*
X006775Y004374D03*
X006585Y004374D03*
D27*
X006391Y011277D03*
X006391Y012262D03*
X006391Y013246D03*
X004166Y013246D03*
X004166Y012262D03*
X004166Y011277D03*
D28*
X005278Y011671D03*
X005278Y012852D03*
D29*
X007692Y012852D03*
X007692Y012652D03*
X007692Y012462D03*
X007692Y013052D03*
X007692Y013242D03*
X009412Y013242D03*
X009412Y013052D03*
X009412Y012852D03*
X009412Y012652D03*
X009412Y012462D03*
D30*
X005952Y013969D03*
X005952Y014835D03*
X005102Y014835D03*
X005102Y013969D03*
D31*
X006202Y013702D03*
X006852Y013702D03*
X007902Y014952D03*
X008152Y013052D03*
X008152Y012652D03*
X008052Y012152D03*
X008452Y011902D03*
X008952Y012462D03*
X008802Y012702D03*
X008952Y013002D03*
X009852Y013242D03*
X010152Y013052D03*
X010202Y012152D03*
X010252Y011852D03*
X010152Y011202D03*
X010252Y010802D03*
X010281Y010538D03*
X010252Y010252D03*
X010102Y009952D03*
X010152Y009652D03*
X010102Y008952D03*
X009902Y008752D03*
X010102Y008552D03*
X010002Y008302D03*
X010402Y008002D03*
X009602Y007752D03*
X009302Y007652D03*
X008752Y007502D03*
X009502Y008252D03*
X011202Y007952D03*
X011202Y007652D03*
X011802Y008602D03*
X011102Y010252D03*
X010952Y010538D03*
X011152Y010888D03*
X010752Y011302D03*
X010552Y011102D03*
X010952Y011852D03*
X011602Y011552D03*
X011702Y011202D03*
X011602Y013202D03*
X011552Y013452D03*
X011052Y013452D03*
X009652Y011052D03*
X008352Y011052D03*
X008102Y011002D03*
X007252Y010702D03*
X006802Y011352D03*
X006352Y011752D03*
X006802Y012152D03*
X005752Y009852D03*
X006202Y009452D03*
X006502Y009602D03*
X007102Y009452D03*
X007302Y009202D03*
X007302Y008952D03*
X007302Y008702D03*
X006052Y008352D03*
X005852Y007652D03*
X006202Y005952D03*
X007102Y005002D03*
X007602Y004102D03*
X006352Y004102D03*
X006002Y004102D03*
X007202Y006552D03*
X004002Y008952D03*
X011052Y005502D03*
X011402Y005902D03*
X013252Y013102D03*
X013352Y014052D03*
M02*
