%
M48
M72
T01C0.0236
T02C0.0320
T03C0.0360
%
T01
X8187Y6603
X7387Y7323
X9787Y7323
X10837Y6603
X9787Y3603
X14827Y6723
X15787Y5763
X15787Y4683
X17417Y3203
X18417Y3203
X19627Y3483
X18417Y1703
X17417Y2203
X16867Y6483
X11467Y10323
X11467Y11043
X9067Y10323
X7672Y11448
X5667Y12703
X5667Y13453
X4667Y13453
X4167Y12703
X6917Y15703
X12067Y15003
X21427Y20403
X27307Y17283
X29417Y17203
X29417Y16203
X30417Y16203
X30917Y17203
X30917Y12483
X30417Y11403
X29917Y10923
X24427Y9003
X21547Y15003
T02
X21367Y13263
X20367Y13263
X19367Y13263
X18367Y13263
X17367Y13263
X16367Y13263
X15367Y13263
X14367Y13263
X13367Y13263
X13367Y10263
X14367Y10263
X15367Y10263
X16367Y10263
X17367Y10263
X18367Y10263
X19367Y10263
X20367Y10263
X21367Y10263
X22367Y10263
X23367Y10263
X24367Y10263
X25367Y10263
X26367Y10263
X26367Y13263
X25367Y13263
X24367Y13263
X23367Y13263
X22367Y13263
T03
X8187Y4503
X9387Y4503
X10827Y4503
X12027Y4503
X6877Y17643
X6877Y18643
X6877Y19643
X6877Y20643
M30
