%
M48
M72
T01C0.0236
T02C0.0360
%
T01
X8447Y1933
X8927Y2893
X11327Y2893
X11927Y2773
X11687Y6133
X11327Y6973
X8567Y6973
X11807Y9133
X10847Y10453
X10007Y11053
X9047Y10093
X8087Y10333
X8087Y11053
X7727Y15013
X13607Y15493
X17567Y15493
X18647Y15493
X20447Y16093
X21287Y16093
X22007Y16093
X23207Y16093
X24407Y16093
X24407Y15613
X24407Y16693
X27167Y18493
X28127Y18493
X28967Y18013
X28127Y19333
X28127Y19813
X27287Y19813
X28967Y19813
X28967Y21613
X27167Y22573
X28967Y23293
X31847Y23173
X32207Y22573
X31727Y22213
X31967Y21493
X33047Y20053
X34127Y20053
X33647Y18973
X32087Y18853
X31607Y18613
X33167Y17653
X31127Y16453
X32567Y15133
X33047Y14653
X28727Y14653
X28727Y15613
X24047Y13813
X23207Y12613
X21287Y9613
X20567Y9613
X19247Y9613
X18647Y9613
X18167Y9613
X18047Y7573
X18047Y6973
X18047Y6253
X15887Y6253
X15887Y6973
X15887Y7573
X17207Y4213
X23087Y7213
X21047Y17053
X21527Y18373
X18887Y17413
X18047Y20293
X17447Y20293
X33287Y22933
X33287Y23413
T02
X7137Y4503
X8187Y4503
X9777Y4503
X10827Y4503
X8377Y17643
X8377Y18643
X8377Y19643
X8377Y20643
M30
