%
M48
M72
T01C0.0236
T02C0.0320
T03C0.0360
%
T01
X12546Y5576
X15066Y5576
X14346Y9416
X13386Y9416
X17786Y14556
X16226Y16356
X14066Y16356
X17906Y18636
X19946Y18636
X19626Y20336
X17466Y20216
X17466Y20576
X15906Y20576
X22706Y14796
X22226Y14556
X22706Y14196
X24866Y14196
X24866Y14796
X23586Y8336
X24426Y7736
X24426Y6896
X23586Y5456
X23186Y3636
X24386Y3636
X26106Y6896
X26106Y7736
X27426Y7256
X29106Y7256
X20466Y4976
X20466Y2336
T02
X20726Y10316
X19726Y10316
X18726Y10316
X17726Y10316
X16726Y10316
X15726Y10316
X14726Y10316
X13726Y10316
X13726Y13316
X14726Y13316
X15726Y13316
X16726Y13316
X17726Y13316
X18726Y13316
X19726Y13316
X20726Y13316
X21726Y13316
X22726Y13316
X23726Y13316
X24726Y13316
X25726Y13316
X26726Y13316
X26726Y10316
X25726Y10316
X24726Y10316
X23726Y10316
X22726Y10316
X21726Y10316
T03
X9666Y3776
X11226Y3776
X13526Y3796
X15006Y3746
X5556Y10016
X5556Y11016
X5556Y12016
X5556Y13016
M30
