%
M48
M72
T01C0.0276
T02C0.0320
T03C0.0400
T04C0.1260
%
T01
X11212Y5482
X11212Y6982
X11212Y8232
X11212Y9482
X10462Y10732
X11212Y11232
X8962Y10732
X11212Y12732
X16962Y12732
X17712Y12732
X18712Y12732
X19462Y13732
X18462Y14482
X17712Y15482
X16962Y14982
X18462Y16482
X25712Y16232
X27962Y15732
X27962Y13732
X32462Y15732
X33712Y15732
X35212Y9732
X33962Y9232
X34212Y8732
X33712Y8732
X32462Y9232
X31462Y8732
X35212Y8232
X34212Y6232
X25712Y9732
X20212Y10732
X19462Y10232
X18712Y9982
X20212Y11732
X7712Y6982
X6212Y6982
T02
X21462Y7232
X21462Y8232
X21462Y9232
X21462Y10232
X21462Y11232
X21462Y12232
X21462Y13232
X21462Y14232
X21462Y15232
X21462Y16232
X24462Y16232
X24462Y15232
X24462Y14232
X24462Y13232
X24462Y12232
X24462Y11232
X24462Y10232
X24462Y9232
X24462Y8232
X24462Y7232
T03
X4462Y8732
X4462Y9732
X4462Y10732
X4462Y11732
T04
X1712Y2982
X1712Y20232
X35462Y3232
X35712Y20232
M30
