%
M48
M72
T01C0.0236
%
T01
X17668Y14430
X18418Y14430
X19168Y14430
X19668Y17930
X19668Y18680
X18668Y20180
X18168Y20930
X17668Y21430
X18418Y22180
X17168Y22680
X17168Y23430
X16168Y22680
X14168Y19680
X13168Y19680
X12418Y19680
X10918Y19930
X6418Y24680
X6418Y28430
X5418Y28430
X10418Y31680
X12168Y32680
X13168Y32680
X14418Y32930
X15168Y34180
X16918Y34180
X18168Y32680
X20918Y29180
X20918Y28430
X18168Y28430
X17168Y28430
X16168Y28430
X15168Y28430
X14168Y28430
X13168Y28430
X10918Y25430
X21918Y25430
X22668Y25430
X23668Y26180
X27168Y26180
X32418Y22430
X33168Y22930
X27168Y20680
X22668Y19430
X21918Y19430
X29168Y14430
X30418Y14430
X30418Y10680
X29168Y10680
X26168Y11430
X23918Y11430
X23918Y7430
X26168Y7430
X29168Y5930
X30418Y5930
X35918Y15930
X35918Y16930
M30
