%
M48
M72
T01C0.0236
T02C0.0360
%
T01
X9585Y8287
X7065Y15847
X7785Y17767
X7785Y19807
X10905Y21367
X13665Y18847
X13665Y17767
X15105Y17767
X15945Y17767
X16665Y17767
X19545Y17767
X15945Y20287
X15105Y20287
X13425Y15847
X19905Y11047
X20625Y22687
X21465Y23407
X22185Y24007
X25785Y22687
X21465Y29047
X14265Y27967
X11445Y27967
X8145Y25687
X4785Y23047
X3465Y26767
X33585Y26407
X34185Y22687
X33585Y20167
X34305Y19447
X33345Y16207
X34305Y15367
X33345Y10927
X33585Y8887
X42065Y17767
X42065Y23047
T02
X12465Y13327
X10905Y13327
X6225Y13327
X4665Y13327
X5625Y29167
X5625Y30127
X5625Y31207
X5625Y32047
M30
